<?xml version="1.0" encoding="UTF-8" standalone="no"?>
<svg
   xmlns:dc="http://purl.org/dc/elements/1.1/"
   xmlns:cc="http://creativecommons.org/ns#"
   xmlns:rdf="http://www.w3.org/1999/02/22-rdf-syntax-ns#"
   xmlns:svg="http://www.w3.org/2000/svg"
   xmlns="http://www.w3.org/2000/svg"
   xmlns:xlink="http://www.w3.org/1999/xlink"
   xml:space="preserve"
   enable-background="new 0 0 595.275 350"
   viewBox="0 0 397.44487 624.82001"
   height="624.82001"
   width="397.44489"
   y="0px"
   x="0px"
   id="Capa_1"
   version="1.1"><metadata
     id="metadata19947"><rdf:RDF><cc:Work
         rdf:about=""><dc:format>image/svg+xml</dc:format><dc:type
           rdf:resource="http://purl.org/dc/dcmitype/StillImage" /><dc:title></dc:title></cc:Work></rdf:RDF></metadata><defs
     id="defs19945" /><g
     transform="translate(-293.24375,285.889)"
     id="g20491"><polygon
       points="298.889,267.785 298.491,269.882 341.968,269.882 341.347,267.785 "
       id="polygon19219"
       transform="matrix(6.5620021,0,0,6.9135611,-1606.7011,-2004.2892)"
       style="fill:#926a3a" /><path
       d="m 484.02494,-198.65369 0,0 -14.83012,0 0,-21.79845 16.51,0 c -1.09586,2.04641 -1.67988,4.83258 -1.67988,8.64886 l 0,13.14959 z m 91.19215,0 0,0 -14.23955,0 0,-13.14959 c 0,-3.81628 -0.57089,-6.60245 -1.67987,-8.64886 l 15.91942,0 0,21.79845 z m -14.29204,39.82903 c -1.11554,19.4755 -17.88802,34.94805 -38.44021,34.94805 -20.51282,0 -37.29842,-15.47255 -38.40084,-34.94805 l -0.0591,0 0,-0.84345 0,-1.20988 0,-1.18913 0,-30.55103 1.56832,0 c 2.72323,8.96689 8.82589,16.50267 16.95622,21.22464 -0.0525,-0.38025 -0.0525,-0.83655 -0.0525,-1.24445 0,-10.61923 8.95713,-19.23352 19.9813,-19.23352 11.03728,0 20.04035,8.61429 20.04035,19.23352 0,0.4079 -0.0656,0.8642 -0.0656,1.24445 8.13032,-4.72888 14.2133,-12.25775 16.96278,-21.22464 l 1.56175,0 0,31.74016 0,2.05333 -0.0525,0 z"
       id="path19221"
       style="clip-rule:evenodd;fill:#790d23;fill-rule:evenodd" /><path
       d="m 670.93701,34.817273 0,97.612567 0,7.12788 0,17.1802 c 3.32694,5.70369 5.1643,12.29232 5.1643,19.35106 0,13.12194 -6.57513,24.77129 -16.65436,31.98214 l -42.77113,0 0,-24.90957 -19.86318,0 c -0.46591,-2.34369 -0.68245,-4.67356 -0.68245,-7.07257 0,-10.16293 3.87814,-19.40636 10.32859,-26.36832 l 0,-14.04836 0,-99.714289 64.47823,-1.140738 z"
       id="path19223"
       style="fill:#f6bdb4" /><path
       d="m 361.00709,-26.388483 c 0,9.82417 4.6459,28.145107 -3.02508,33.2058338 C 333.99133,22.718541 290.31464,0.3600847 293.39878,-36.102037 l 0,-104.291073 c 0,-16.95205 4.53434,-35.0241 19.86318,-37.72039 l 33.80087,0 c 6.10267,0.34568 11.02417,5.42715 11.02417,11.64935 l 0,7.87455 1.40427,0 c 6.21421,0 11.26695,5.08838 11.26695,11.30367 l 0,17.80242 c 0,5.70369 -4.23905,10.46022 -9.75113,11.24837 l 0,91.846657 z"
       id="path19225"
       style="fill:#f6bdb4" /><path
       d="m 619.35311,-201.86849 13.86551,48.90653 4.07501,14.51156 26.03146,0 1.4502,-4.49381 18.74764,-58.67539 c -34.97547,-9.36097 -59.13676,-2.03259 -64.16982,-0.24889"
       id="path19227"
       style="fill:#c3c6c8" /><path
       d="m 649.95829,-233.82297 c -13.35367,0 -26.0249,2.91752 -37.34435,8.158 l 6.73261,23.81031 c 5.03962,-1.7837 29.18779,-9.11208 64.17638,0.24197 l 7.16571,-22.39302 c -12.13971,-6.28443 -26.00522,-9.81726 -40.73035,-9.81726"
       id="path19229"
       style="fill:#ffffff" /><polygon
       points="315.292,290.539 314.451,290.539 314.451,271.789 315.292,271.096 "
       id="polygon19231"
       transform="matrix(6.5620021,0,0,6.9135611,-1606.7011,-2004.2892)"
       style="fill:#45296f" /><path
       d="m 484.03807,-192.63197 0,-25.15845 c 0,-20.84439 17.23181,-5.19209 38.47958,-5.19209 21.21495,0 38.47302,-17.64341 38.47302,3.19407 l 0,27.15647 -1.56832,0 c -2.74292,8.95997 -8.84558,16.50267 -16.98246,21.23846 0,-0.38716 0.0787,-0.85037 0.0787,-1.25136 0,-10.62614 -9.00963,-19.23353 -20.03379,-19.23353 -11.05041,0 -20.00755,8.60739 -20.00755,19.23353 0,0.40099 0,0.8642 0.0656,1.25136 -8.11063,-4.73579 -14.21986,-12.27158 -16.96277,-21.23846 l -1.54207,0 z"
       id="path19233"
       style="fill:#f6bdb4" /><path
       d="m 477.81729,-231.66594 c 0,-20.60933 19.21354,-37.33323 42.90237,-37.33323 23.76757,0 42.98767,16.7239 42.98767,37.33323 l -85.89004,0 z"
       id="path19235"
       style="fill:#e30613" /><path
       d="m 578.76057,-228.29212 c 0,6.00097 -4.86245,10.77824 -10.97167,10.77824 l -92.82608,0 c -6.05017,0 -10.97167,-4.77727 -10.97167,-10.77824 0,-5.91801 4.9215,-10.77824 10.97167,-10.77824 l 92.82608,0 c 6.10922,0 10.97167,4.86023 10.97167,10.77824"
       id="path19237"
       style="fill:#e30613" /><path
       d="m 532.36065,-274.51619 c 0,6.34665 -5.18398,11.42811 -11.64099,11.42811 -6.35858,0 -11.55569,-5.08146 -11.55569,-11.42811 0,-6.28443 5.19711,-11.37281 11.55569,-11.37281 6.45701,0 11.64099,5.08838 11.64099,11.37281"
       id="path19239"
       style="fill:#e30613" /><path
       d="m 536.00912,-168.34463 c 0,6.40195 -5.97142,11.53182 -13.34055,11.53182 -7.38225,0 -13.32086,-5.12987 -13.32086,-11.53182 l 26.66141,0 z"
       id="path19241"
       style="fill:#ffffff" /><path
       d="m 486.93847,-138.49879 c 1.38458,-0.34568 2.72323,-0.69827 4.16687,-0.97481 6.97541,9.42318 18.41298,15.59008 31.37294,15.59008 12.82871,0 24.21378,-5.99406 31.19575,-15.25823 0.87931,0.20741 1.73237,0.42173 2.55262,0.64296 l -33.55808,43.548521 -35.7301,-43.548521 z"
       id="path19243"
       style="fill:#f6bdb4" /><rect
       x="456.56955"
       y="-127.65146"
       width="5.4661479"
       height="132.00063"
       id="rect19245"
       style="fill:#45296f" /><polygon
       points="335.117,271.698 335.163,271.741 335.163,271.69 "
       id="polygon19247"
       transform="matrix(6.5620021,0,0,6.9135611,-1606.7011,-2004.2892)"
       style="fill:#c68f51" /><rect
       x="496.42056"
       y="-209.32823"
       width="19.115112"
       height="6.1046748"
       id="rect19249"
       style="fill:#1d1d1b" /><rect
       x="529.82776"
       y="-209.32823"
       width="19.115112"
       height="6.1046748"
       id="rect19251"
       style="fill:#1d1d1b" /><path
       d="m 484.03807,-205.04182 0.0591,13.77182 -6.62763,-0.0553 c -4.55403,-0.0346 -8.22875,-2.78617 -8.24187,-6.18072 l -0.0459,-7.68097 14.85638,0.14518 z"
       id="path19253"
       style="fill:#f6bdb4" /><path
       d="m 560.97754,-205.46354 -0.0722,13.84095 6.33889,-0.0691 c 4.38342,-0.0553 7.94003,-2.80691 7.97284,-6.22912 l 0.0394,-7.70171 -14.27892,0.15902 z"
       id="path19255"
       style="fill:#f6bdb4" /><path
       d="m 670.53673,1.9640309 0,-70.1380779 c 0.16405,-1.762958 0.22967,-3.546657 0.22967,-5.371837 0,-1.762958 -0.0656,-3.588138 -0.22967,-5.371837 -2.78229,-27.916959 -26.71391,-49.756899 -55.87545,-49.756899 -6.48326,0 -14.99417,2.27456 -22.278,5.3511 -11.22758,-6.69233 -23.49196,-11.86367 -36.50441,-15.18218 l -33.55152,43.555431 -35.71042,-43.513951 c -12.36937,3.16641 -24.04973,7.96442 -34.79829,14.19354 l -3.20882,-0.71901 c -7.36913,-3.1111 -16.62155,-4.7911 -24.22035,-4.7911 -14.63327,0 -28.64314,6.05628 -38.59114,16.63403 0,0 -1.21397,-3.09728 -7.42162,2.38518 -6.27328,5.42714 -17.36306,16.267606 -17.36306,16.267606 l 0,101.5878672 0,6.8305988 22.71765,0 c 0,0 66.13186,107.934518 137.60519,107.934518 59.32706,0 109.8676,-34.104599 128.9499,-84.656558 l 32.65252,0 0,-35.2522482 -12.40218,0 z"
       id="path19257"
       style="fill:#e30613" /><g
       id="g19259"
       transform="matrix(6.5620021,0,0,6.9135611,-1606.7011,-2004.2892)"><defs
         id="defs19261"><path
           id="SVGID_3_"
           d="m 324.452,276.171 -5.442,-6.289 c -1.924,0.463 -3.741,1.181 -5.412,2.109 -1.166,-0.557 -2.772,-0.856 -4.071,-0.856 -2.232,0 -4.359,0.875 -5.873,2.4 0,0 -0.188,-0.443 -1.135,0.351 -0.96,0.785 -2.645,2.35 -2.645,2.35 l 0,14.702 0,0.984 3.453,0 c 0,0 10.086,15.61 20.973,15.61 9.045,0 16.743,-4.932 19.654,-12.244 l 4.97,0 0,-5.097 -1.885,0 0,-10.146 c 0.031,-0.251 0.04,-0.512 0.04,-0.777 0,-0.254 -0.009,-0.52 -0.04,-0.777 -0.422,-4.037 -4.07,-7.196 -8.512,-7.196 -0.989,0 -2.286,0.334 -3.398,0.774 -1.711,-0.966 -3.578,-1.713 -5.561,-2.196 l -5.116,6.298 z" /></defs><clipPath
         id="SVGID_4_"><use
           xlink:href="#SVGID_3_"
           overflow="visible"
           id="use19265"
           style="overflow:visible"
           x="0"
           y="0"
           width="100%"
           height="100%" /></clipPath><path
         clip-path="url(#SVGID_4_)"
         d="m 343.729,292.771 0,-4.714 4.091,0 0,-1.372 -4.091,0 0,-4.412 4.091,0 0,-1.372 -4.091,0 0,-4.869 3.008,0 0,-1.372 -3.008,0 0,-3.965 -0.978,0 0,3.965 -5.362,0 0,-3.811 -0.975,0 0,3.811 -5.514,0 0,-3.811 -0.977,0 0,3.811 -5.035,0 0,-5.175 -0.975,0 0,5.175 -5.416,0 0,-5.175 -0.978,0 0,5.175 -5.049,0 0,-5.175 -0.979,0 0,5.175 -5.516,0 0,-5.175 -0.975,0 0,5.175 -8.038,0 0,1.372 8.038,0 0,4.869 -6.958,0 0,1.372 6.958,0 0,4.412 -6.958,0 0,1.372 6.958,0 0,3.73 0.977,0 0,-3.73 5.516,0 0,3.73 0.979,0 0,-3.73 5.049,0 0,3.73 0.978,0 0,-3.73 5.416,0 0,3.73 0.975,0 0,-3.73 5.035,0 0,4.714 -30.178,0 0,1.368 49.771,0 0,-1.368 -5.789,0 z m -32.236,-6.086 -5.516,0 0,-4.415 5.516,0 0,4.415 z m 0,-5.784 -5.516,0 0,-4.869 5.516,0 0,4.869 z m 6.027,5.784 -5.052,0 0,-4.415 5.052,0 0,4.415 z m 0,-5.784 -5.052,0 0,-4.869 5.052,0 0,4.869 z m 6.394,5.784 -5.416,0 0,-4.415 5.416,0 0,4.415 z m 0,-5.784 -5.416,0 0,-4.869 5.416,0 0,4.869 z m 6.009,5.784 -5.035,0 0,-4.415 5.035,0 0,4.415 z m 0,-5.784 -5.035,0 0,-4.869 5.035,0 0,4.869 z m 6.492,11.87 -5.515,0 0,-4.714 5.515,0 0,4.714 z m 0,-6.086 -5.515,0 0,-4.415 5.515,0 0,4.415 z m 0,-5.784 -5.515,0 0,-4.869 5.515,0 0,4.869 z m 6.336,11.87 -5.362,0 0,-4.714 5.362,0 0,4.714 z m 0,-6.086 -5.362,0 0,-4.415 5.362,0 0,4.415 z m 0,-5.784 -5.362,0 0,-4.869 5.362,0 0,4.869 z"
         id="path19267"
         style="clip-rule:evenodd;fill:#790d23;fill-rule:evenodd" /></g><path
       d="m 658.02299,5.2134046 -65.38379,0.055309 0,-129.2213736 -15.49945,3.78172 0,125.4396536 -107.68245,0 0,-125.8475536 -15.49945,-4.51456 0,130.3552 -69.78033,0.055308 -0.45934,-0.110617 c 0,51.844795 37.04906,96.008619 89.07918,113.195739 l 0,165.75263 10.99791,0 0,52.59145 32.23256,0 0,-52.59145 4.17343,0 0,-158.08549 c 0.24279,0 0.47246,0.0207 0.7087,0.0207 1.40427,0 2.77572,-0.0415 4.20624,-0.0899 l 0,167.39806 5.80081,0 0,43.35494 32.27193,0 0,-43.35494 8.74715,0 0,-175.99853 c 50.48148,-17.8231 86.0869,-61.337053 86.0869,-112.1862954"
       id="path19269"
       style="fill:#c68f51" /><polygon
       points="324.497,276.137 324.432,279.46 320.36,273.778 312.672,271.678 319.337,269.771 "
       id="polygon19271"
       transform="matrix(6.5620021,0,0,6.9135611,-1606.7011,-2004.2892)"
       style="fill:#790d23" /><polygon
       points="324.456,276.146 324.41,279.469 328.592,273.787 336.589,271.684 329.55,269.825 "
       id="polygon19273"
       transform="matrix(6.5620021,0,0,6.9135611,-1606.7011,-2004.2892)"
       style="fill:#790d23" /><path
       d="m 520.20782,338.92409 0,-64.386 c -11.78535,0.62914 -34.03054,-0.35259 -47.44983,0.51852 0,0.73284 0.0328,1.70765 0.0328,2.84147 l -0.28217,0 0,30.93819 c -1.58144,0.88493 -5.1118,-0.21432 -15.89317,3.83011 -9.02931,3.38073 -13.21587,12.25083 -11.85098,26.26462 l 75.44334,0 z"
       id="path19275"
       style="clip-rule:evenodd;fill:#12214f;fill-rule:evenodd" /><path
       d="m 525.9627,267.67293 c 0,7.13479 -5.93205,12.90761 -13.18963,12.90761 l -33.34153,0 c -7.24445,0 -13.124,-5.77282 -13.124,-12.90761 0,-7.11406 5.87955,-12.8938 13.124,-12.8938 l 33.34153,0 c 7.25758,-0.007 13.18963,5.77974 13.18963,12.8938"
       id="path19277"
       style="fill:#ffd085" /><path
       d="m 600.55298,338.92409 c 1.31896,-14.01379 -2.85447,-22.88389 -11.87067,-26.26462 -12.01502,-4.50764 -15.02698,-2.62024 -16.37875,-4.2311 -0.14437,-0.15901 -0.26904,-1.17531 -0.37404,-2.69629 l 0,-29.9772 0,-1.21679 c -13.39304,-0.86419 -35.05421,0.62914 -46.81988,0 l 0,64.386 75.44334,0 z"
       id="path19279"
       style="clip-rule:evenodd;fill:#12214f;fill-rule:evenodd" /><path
       d="m 519.34164,267.67293 c 0,7.13479 5.91236,12.90761 13.124,12.90761 l 33.40716,0 c 7.25101,0 13.13056,-5.77282 13.13056,-12.90761 0,-7.11406 -5.87955,-12.8938 -13.13056,-12.8938 l -33.40716,0 c -7.21164,-0.007 -13.124,5.77974 -13.124,12.8938"
       id="path19281"
       style="fill:#ffd085" /></g></svg>