<svg width="1620" height="1500" xmlns="http://www.w3.org/2000/svg">

 <metadata id="imagebot_723">image/svg+xml</metadata>
 <g id="imagebot_2" label="Layer 1">
  <title>Layer 1</title>
  <g id="imagebot_3" label="Layer 1" transform="translate(7.62939 -19.0735) matrix(2.24718 0 0 2.07311 1162.13 392.937)">
   <g id="imagebot_725" transform="matrix(0.47061415,-0.88233912,0.88233912,0.47061415,-221.98941,-65.690142)">
    <path id="imagebot_726" fill="#ffd5d5" stroke="#000000" stroke-width="2.5999" stroke-linecap="round" stroke-linejoin="round" stroke-miterlimit="4" d="M-107.08807,117.27106C-113.16564,117.27106 -116.65571,122.04345 -118.05878,127.6734C-123.58186,149.83527 -122.23796,169.65729 -118.20136,187.61871C-117.75054,190.69175 -116.1837,193.9428 -114.26776,195.68707C-113.14858,196.82285 -111.81207,197.7006 -110.24628,198.20074C-110.24528,198.20117 -110.24328,198.20274 -110.24228,198.20274C-92.25967,208.22059 -74.13833,212.08441 -56.77353,213.24571C-51.09969,213.62516 -45.46639,211.68728 -43.379,206.22617C-41.2916,200.76506 -46.62968,197.75216 -52.21103,196.9586C-69.22164,194.54002 -83.70957,188.84325 -101.2872,179.23789C-102.65494,163.22112 -100.66162,147.57278 -96.11728,127.67344C-94.82689,122.02286 -101.01041,117.2711 -107.08798,117.2711L-107.08807,117.27106z"/>
    <path id="imagebot_727" fill="#aa0088" stroke="#000000" stroke-width="2.7018" stroke-linecap="round" stroke-linejoin="round" stroke-miterlimit="4" d="M-116.48351,113.7374C-125.97152,142.59272 -124.9577,156.95884 -124.9577,156.95884C-124.9577,156.95884 -107.91504,162.51215 -98.2132,163.97248C-93.45518,145.9782 -88.59405,130.21254 -99.47042,112.66898"/>
   </g>
   <g id="imagebot_728" transform="translate(-1077.5519,128.69731)">
    <g id="imagebot_729" display="inline" fill="#d4cf00" transform="matrix(1.7056962,0,0,1.1953187,3716.5396,-2476.2029)">
     <path id="imagebot_730" fill="#aa0088" fill-rule="nonzero" stroke="#000000" stroke-width="3.0554" stroke-linecap="round" stroke-linejoin="round" stroke-miterlimit="4" stroke-dashoffset="0" d="M-1641.31,2168.3579C-1652.4431,2182.0664 -1676.7859,2181.5657 -1688.7472,2168.3579C-1700.7085,2155.1501 -1699.6996,2135.1236 -1688.7472,2122.4639C-1678.9301,2111.1165 -1677.5427,2092.2424 -1688.7472,2076.5699C-1698.548,2062.8608 -1701.9259,2042.5067 -1688.7472,2030.6759C-1675.5684,2018.845 -1653.3704,2017.5187 -1641.31,2030.6759C-1629.2495,2043.833 -1629.7103,2064.4276 -1641.31,2076.5699C-1653.0971,2088.9084 -1650.8908,2107.333 -1641.31,2122.4639C-1630.3552,2139.7646 -1632.1039,2157.0222 -1641.31,2168.3579z"/>
     <path id="imagebot_731" fill="#ffd5d5" fill-rule="nonzero" stroke="#000000" stroke-width="2.10101" stroke-linecap="round" stroke-linejoin="round" stroke-miterlimit="4" stroke-dashoffset="0" d="M-1655.8341,2011.1035L-1655.8341,2028.2534C-1660.9828,2035.0879 -1666.6883,2036.3608 -1673.3328,2028.2534L-1673.3328,2011.1035"/>
    </g>
    <g id="imagebot_732" display="inline" fill="#aa0088" transform="matrix(2.0185823,0,0.05923598,1.6745344,-1033.9794,-2323.896)">
     <path id="imagebot_733" fill="#aa0088" stroke="#000000" stroke-width="2" stroke-linecap="round" stroke-linejoin="round" stroke-miterlimit="4" stroke-dashoffset="0" d="M897.36056,1373.7974C883.2554,1391.8476 911.93355,1403.1245 916.58543,1388.2237C923.54065,1399.8662 937.0043,1393.1753 937.92736,1383.8246C938.53291,1377.6902 930.15107,1375.9229 931.49388,1368.8052"/>
     <path id="imagebot_734" fill="#aa0088" fill-rule="nonzero" stroke="#000000" stroke-width="2" stroke-linecap="round" stroke-linejoin="round" stroke-miterlimit="4" stroke-dashoffset="0" d="M917.85594,1373.1861C915.92974,1374.2123 914.87284,1376.0323 914.40264,1378.1133"/>
     <path id="imagebot_735" fill="#aa0088" fill-rule="nonzero" stroke="#000000" stroke-width="2" stroke-linecap="round" stroke-linejoin="round" stroke-miterlimit="4" stroke-dashoffset="0" d="M912.29804,1374.037C913.21894,1374.8693 913.93954,1375.7016 914.52424,1376.5339"/>
    </g>
   </g>
   <g id="imagebot_736" transform="matrix(0.99980042,0.01997828,-0.01997828,0.99980042,-576.20791,-66.820153)">
    <path id="imagebot_737" fill="#ffe680" stroke="#000000" stroke-width="4.03664" stroke-linecap="round" stroke-linejoin="round" stroke-miterlimit="4" stroke-dashoffset="0" d="M346.172,-42.9881C309.93951,-43.32439 283.77707,-24.86119 273.34338,20.78613C262.51186,68.17488 268.2058,95.78654 295.63631,113.62342C344.96711,120.82793 431.63996,140.4225 473.46174,95.96906C423.06386,89.33461 454.99896,-8.26069 451.3325,-13.94004C433.52344,-64.01656 367.3626,-70.0297 333.51606,-44.03571"/>
    <g id="imagebot_738" display="inline" transform="matrix(-2.2203318,0,0,2.1103431,-1065.0731,-2702.407)">
     <path id="imagebot_739" fill="#ffd5d5" stroke="#000000" stroke-width="1.72538" stroke-linecap="round" stroke-linejoin="round" stroke-miterlimit="4" stroke-dashoffset="0" d="M-674.74151,1308.5262A6.64745,9.49682 0 0 1 -683.79879,1308.1892A6.64745,9.49682 0 0 1 -684.20783,1295.2584A6.64745,9.49682 0 0 1 -675.20875,1293.7556" transform="matrix(0.99999164,-0.00408966,0.00408533,0.99999166,0,0)"/>
     <path id="imagebot_740" fill="none" stroke="#000000" stroke-width="1.72538" stroke-linecap="round" stroke-linejoin="round" stroke-miterlimit="4" stroke-dashoffset="0" d="M-676.85215,1307.8374C-674.51232,1305.4838 -673.06051,1302.1619 -675.797,1300.0398C-673.69572,1300.2706 -672.99453,1298.9694 -671.72809,1307.3424"/>
     <ellipse id="imagebot_741" fill="#ffff00" fill-rule="nonzero" stroke="#000000" stroke-width="1.72538" stroke-linecap="round" stroke-linejoin="round" stroke-miterlimit="4" stroke-dashoffset="0" cx="-675.36621" cy="1314.7177" rx="2.88547" ry="3.16859"/>
    </g>
    <path id="imagebot_742" fill="#ffd5d5" stroke="#000000" stroke-width="3.04895" stroke-linecap="round" stroke-linejoin="round" stroke-miterlimit="4" d="M378.96773,129.70663C424.21229,129.14738 438.14016,90.27757 438.19039,44.09147C438.23869,-2.09463 435.32385,-12.94503 381.08351,-12.67753C329.82362,-12.42472 358.69585,41.72511 324.17845,33.69235C319.20628,32.53524 324.25195,40.66098 324.33038,44.51599C325.82855,106.04898 342.71799,130.15575 378.96773,129.70663z"/>
    <g id="imagebot_743" display="inline" fill="#d3bc5f" transform="matrix(1.7949483,0,0,2.3477226,-106.22883,-190.81644)">
     <path id="imagebot_744" fill="#ffe680" stroke="#000000" stroke-width="2" stroke-linecap="round" stroke-linejoin="round" stroke-miterlimit="4" stroke-dashoffset="0" d="M245.04624,75.0879C233.8117,90.03159 254.43068,95.14909 254.43068,95.14909C250.50808,78.45909 294.95455,81.87457 306.89628,84.68663C308.41677,81.0223 304.64812,64.44759 296.15926,61.23484"/>
     <path id="imagebot_745" fill="#ffe680" stroke="#000000" stroke-width="2" stroke-linecap="round" stroke-linejoin="round" stroke-miterlimit="4" stroke-dashoffset="0" d="M253.68728,73.71918C252.45076,76.90472 252.83252,79.32591 254.76039,81.45533"/>
     <path id="imagebot_746" fill="#ffe680" stroke="#000000" stroke-width="2" stroke-linecap="round" stroke-linejoin="round" stroke-miterlimit="4" stroke-dashoffset="0" d="M262.33504,72.46377L263.49927,79.06853"/>
     <path id="imagebot_747" fill="#ffe680" stroke="#000000" stroke-width="2" stroke-linecap="round" stroke-linejoin="round" stroke-miterlimit="4" stroke-dashoffset="0" d="M274.25251,70.8714C276.02184,72.90233 276.58719,75.66644 275.87583,78.97436"/>
     <path id="imagebot_748" fill="#ffe680" stroke="#000000" stroke-width="2" stroke-linecap="round" stroke-linejoin="round" stroke-miterlimit="4" stroke-dashoffset="0" d="M283.78637,69.27942C285.64941,70.98698 287.88976,75.17203 287.51875,78.39117"/>
     <path id="imagebot_749" fill="#ffe680" stroke="#000000" stroke-width="2" stroke-linecap="round" stroke-linejoin="round" stroke-miterlimit="4" stroke-dashoffset="0" d="M292.09722,66.34228C296.06939,70.71428 298.32415,75.08661 298.06226,79.45936"/>
    </g>
    <g id="imagebot_750" display="inline" transform="matrix(2.2203318,0,0,2.1103431,1818.7923,-2701.6439)">
     <path id="imagebot_751" fill="#ffd5d5" stroke="#000000" stroke-width="1.72538" stroke-linecap="round" stroke-linejoin="round" stroke-miterlimit="4" stroke-dashoffset="0" d="M-674.74151,1308.5262A6.64745,9.49682 0 0 1 -683.79879,1308.1892A6.64745,9.49682 0 0 1 -684.20783,1295.2584A6.64745,9.49682 0 0 1 -675.20875,1293.7556" transform="matrix(0.99999164,-0.00408966,0.00408533,0.99999166,0,0)"/>
     <path id="imagebot_752" fill="none" stroke="#000000" stroke-width="1.72538" stroke-linecap="round" stroke-linejoin="round" stroke-miterlimit="4" stroke-dashoffset="0" d="M-676.85215,1307.8374C-674.51232,1305.4838 -673.06051,1302.1619 -675.797,1300.0398C-673.69572,1300.2706 -672.99453,1298.9694 -671.72809,1307.3424"/>
     <ellipse id="imagebot_753" fill="#ffff00" fill-rule="nonzero" stroke="#000000" stroke-width="1.72538" stroke-linecap="round" stroke-linejoin="round" stroke-miterlimit="4" stroke-dashoffset="0" cx="-675.36621" cy="1314.7177" rx="2.88547" ry="3.16859"/>
    </g>
    <path id="imagebot_754" fill="#ffd5d5" fill-rule="evenodd" stroke="#000000" stroke-width="3.15886" stroke-linecap="round" stroke-linejoin="round" stroke-miterlimit="4" d="M407.14102,69.64326C404.81723,55.12816 389.71212,57.67694 376.71742,69.83431"/>
    <g id="imagebot_755" transform="translate(0.67496404,-1.8591557)">
     <ellipse id="imagebot_756" fill="#afdde9" stroke="#000000" stroke-width="0.9702" stroke-miterlimit="4" ry="5.32822" rx="5.72727" cy="51.14099" cx="367.37982"/>
     <ellipse id="imagebot_757" stroke-width="0.55323" stroke-miterlimit="4" ry="2.28352" rx="2.45455" cy="51.14264" cx="367.37982"/>
     <ellipse id="imagebot_758" fill="#ffffff" stroke-width="0.55323" stroke-miterlimit="4" ry="1.00306" rx="1.07818" cy="51.64838" cx="368.19977"/>
     <ellipse id="imagebot_759" fill="#afdde9" stroke="#000000" stroke-width="0.9702" stroke-miterlimit="4" ry="5.32822" rx="5.72727" cy="51.14099" cx="419.30655"/>
     <ellipse id="imagebot_760" stroke-width="0.55323" stroke-miterlimit="4" ry="2.28352" rx="2.45455" cy="51.14264" cx="419.30655"/>
     <ellipse id="imagebot_761" fill="#ffffff" stroke-width="0.55323" stroke-miterlimit="4" ry="1.00306" rx="1.07818" cy="51.64838" cx="420.12653"/>
    </g>
   </g>
   <g id="imagebot_762">
    <g id="imagebot_763" transform="matrix(1.1308553,0,0,0.99908973,172.3084,-292.71576)">
     <path id="imagebot_764" fill="#ffd5d5" stroke="#000000" stroke-width="3.02915" stroke-linecap="round" stroke-linejoin="round" stroke-miterlimit="4" d="M-325.2447,506.88911C-323.25395,497.74116 -298.28051,492.3581 -291.84148,518.23103C-299.81334,590.0393 -342.35209,641.43314 -377.33417,693.24213C-384.45133,703.67454 -401.46292,699.97342 -395.53846,687.97396C-355.92198,634.57843 -334.976,573.1471 -325.2447,506.88911z"/>
     <path id="imagebot_765" fill="#ffd5d5" stroke="#000000" stroke-width="3.12922" stroke-linecap="round" stroke-linejoin="round" stroke-miterlimit="4" d="M-379.91968,521.97479C-384.73186,513.24061 -369.44335,492.70284 -346.64483,509.59746C-303.04328,573.20563 -299.87798,642.55907 -290.67272,707.3618C-288.87474,720.45793 -304.38559,728.45056 -308.17551,714.85046C-314.95007,645.75818 -341.49674,582.20336 -379.91968,521.97479z"/>
     <path id="imagebot_766" fill="#e87cd2" stroke="#000000" stroke-width="3.91919" stroke-linecap="round" stroke-linejoin="round" stroke-miterlimit="4" d="M-367.58617,480.78536C-339.2562,497.81362 -322.9073,498.2543 -287.66939,486.46938C-280.11369,525.48893 -267.56749,542.57135 -274.49589,582.25298C-308.8995,599.20718 -347.9144,601.06548 -393.57526,581.1686C-383.28209,542.08151 -389.66446,509.05496 -367.58617,480.78536z"/>
    </g>
    <g id="imagebot_767" transform="translate(81.945215,-373.49836)">
     <path id="imagebot_768" fill="#e6e6e6" stroke="#000000" stroke-width="4.35403" stroke-linecap="round" stroke-linejoin="round" stroke-miterlimit="4" d="M-330.70649,559.67139C-337.39372,566.42169 -341.98108,573.44897 -345.29591,580.76744C-304.31515,593.76132 -276.75449,593.93976 -225.10549,584.42219C-227.05844,578.57791 -228.99061,572.29408 -230.71399,565.27775C-274.80435,576.90249 -295.25949,576.46827 -330.70649,559.67139z"/>
     <path id="imagebot_769" clip-rule="nonzero" fill="#aa0088" fill-rule="nonzero" stroke="#000000" stroke-width="3.54473" stroke-linecap="round" stroke-linejoin="round" stroke-miterlimit="4" stroke-dashoffset="0" d="M-277.1543,561.97735C-290.25904,561.97715 -300.88271,570.35525 -300.88281,580.69025C-300.88271,591.02525 -290.25904,599.40335 -277.1543,599.40315C-264.04955,599.40335 -253.42588,591.02525 -253.42578,580.69025C-253.42588,570.35525 -264.04955,561.97715 -277.1543,561.97735zM-276.00195,568.83875C-265.9899,568.83865 -260.84754,573.09545 -260.84875,579.72155C-260.84913,586.34705 -265.99102,592.83295 -276.00195,592.83285C-286.01288,592.83295 -294.12854,587.46215 -294.12891,580.83675C-294.12991,574.21055 -286.014,568.83865 -276.00195,568.83875z"/>
    </g>
   </g>
   <g id="imagebot_770" transform="matrix(0.68364008,0.72981932,-0.72981932,0.68364008,303.54491,-441.45921)">
    <path id="imagebot_771" fill="#ffd5d5" stroke="#000000" stroke-width="2.5999" stroke-linecap="round" stroke-linejoin="round" stroke-miterlimit="4" d="M22.89217,764.99216C16.8146,764.99216 13.32453,769.7626 11.92146,775.39255C6.39081,797.58481 7.74497,817.4331 11.79451,835.41403C11.49569,837.52834 11.47171,840.63358 13.1656,843.38474C24.64209,862.02434 39.54413,874.59227 55.08748,884.15622C59.9306,887.13625 65.81853,888.0464 70.21052,884.18742C74.60252,880.32849 71.28273,875.17431 66.71443,871.87101C51.73772,861.04149 41.11399,848.22502 29.02303,829.45304L28.93903,829.47064C27.12775,812.56414 29.07939,796.33044 33.86091,775.39252C35.1513,769.74194 28.96973,764.99213 22.89216,764.99213L22.89217,764.99216z"/>
    <path id="imagebot_772" fill="#aa0088" stroke="#000000" stroke-width="2.7018" stroke-linecap="round" stroke-linejoin="round" stroke-miterlimit="4" d="M33.67841,765.22481C36.32357,795.4846 32.05464,809.23922 32.05464,809.23922C32.05464,809.23922 14.19401,810.75231 4.41512,809.95765C3.89368,791.35225 2.76274,774.89298 17.35929,760.29803"/>
   </g>
   <g id="imagebot_773" display="inline" stroke-width="1.40145" stroke-miterlimit="4" transform="matrix(1.7060839,1.0547092,-1.0082789,1.6309788,290.44471,419.90114)">
    <g id="imagebot_774" stroke-width="1.40145" stroke-miterlimit="4" transform="translate(24.5,-8)">
     <path id="imagebot_775" fill="#ffd5d5" stroke="#000000" stroke-width="1.40145" stroke-linecap="round" stroke-linejoin="round" stroke-miterlimit="4" stroke-dashoffset="0" d="M1163.5254,153.25977L1162.8262,147.88672C1166.3422,145.97574 1168.6801,141.95284 1166.9121,137.51562C1164.0425,130.31391 1163.2723,128.60744 1161.5645,128.49805C1160.7882,128.44835 1159.8182,128.72867 1158.3691,128.97266C1152.8982,129.8938 1148.6367,128.28211 1149.7617,139.45508C1150.1853,143.6617 1151.7447,147.03054 1154.916,148.39844L1155.0811,153.23845" transform="matrix(-1,0,0,1,894.00077,-198.79278)"/>
     <path id="imagebot_776" fill="#ffd5d5" stroke="#000000" stroke-width="1.40145" stroke-linecap="round" stroke-linejoin="round" stroke-miterlimit="4" stroke-dashoffset="0" d="M-271.5042,-55.23863C-276.58601,-55.29701 -285.07017,-55.46961 -284.41244,-58.64838C-283.2265,-64.37993 -277.22876,-63.18017 -272.2603,-60.44637"/>
     <path id="imagebot_777" fill="#ffd5d5" stroke="#000000" stroke-width="1.40145" stroke-linecap="round" stroke-linejoin="round" stroke-miterlimit="4" stroke-dashoffset="0" d="M-266.59135,-66.80383C-266.02027,-71.8087 -265.28976,-82.96599 -261.0224,-82.41169C-257.06628,-81.89782 -259.72716,-71.60866 -261.55151,-66.05333"/>
     <path id="imagebot_778" fill="#ffd5d5" stroke="#000000" stroke-width="1.40145" stroke-linecap="round" stroke-linejoin="round" stroke-miterlimit="4" stroke-dashoffset="0" d="M-270.95742,-65.18672C-271.9055,-70.30961 -275.39693,-80.1538 -271.0946,-80.24075C-267.10605,-80.32135 -266.08151,-72.88326 -267.05878,-67.11829"/>
     <path id="imagebot_779" fill="#ffd5d5" stroke="#000000" stroke-width="1.40145" stroke-linecap="round" stroke-linejoin="round" stroke-miterlimit="4" stroke-dashoffset="0" d="M-261.55131,-66.1375C-258.40935,-70.29334 -253.97216,-78.22429 -251.32695,-76.04091C-249.01898,-74.1359 -252.67396,-68.52563 -257.24539,-63.81272"/>
     <path id="imagebot_780" fill="#ffd5d5" stroke="#000000" stroke-width="1.40145" stroke-linecap="round" stroke-linejoin="round" stroke-miterlimit="4" stroke-dashoffset="0" d="M-257.09883,-63.76735C-253.02064,-66.79333 -248.3939,-69.5399 -247.58397,-67.56679C-246.12362,-64.00913 -251.48917,-61.06982 -256.60019,-59.43987"/>
    </g>
    <path id="imagebot_781" fill="none" fill-rule="nonzero" stroke="#000000" stroke-width="1.40145" stroke-linecap="round" stroke-linejoin="round" stroke-miterlimit="4" stroke-dashoffset="0" d="M-238.05194,-63.71896C-238.99082,-65.87068 -240.65499,-67.91845 -243.36939,-69.81569L-236.47443,-66.86448"/>
   </g>
   <g id="imagebot_782" display="inline" stroke-width="1.40145" stroke-miterlimit="4" transform="matrix(1.9063008,0.6238196,0.59635785,-1.8223818,330.60531,526.93261)">
    <path id="imagebot_783" fill="#ffd5d5" stroke="#000000" stroke-width="1.40145" stroke-linecap="round" stroke-linejoin="round" stroke-miterlimit="4" stroke-dashoffset="0" d="M-343.75143,61.45305L-342.10623,56.97969C-338.12743,55.72907 -334.84253,51.78659 -336.70583,47.61055C-341.09233,37.77911 -335.05803,35.94463 -343.41093,36.07149C-348.80513,36.15339 -352.91303,35.18454 -353.62773,46.66914C-353.88783,50.84963 -352.50493,53.8906 -349.72733,55.72969"/>
    <path id="imagebot_784" fill="#ffd5d5" stroke="#000000" stroke-width="1.40145" stroke-linecap="round" stroke-linejoin="round" stroke-miterlimit="4" stroke-dashoffset="0" d="M-350.42499,41.83336C-350.96566,37.81432 -355.94264,34.25509 -357.3791,37.56831C-358.28109,39.64878 -352.51993,41.91346 -353.08398,46.56413"/>
    <path id="imagebot_785" fill="#ffd5d5" stroke="#000000" stroke-width="1.40145" stroke-linecap="round" stroke-linejoin="round" stroke-miterlimit="4" stroke-dashoffset="0" d="M-346.02253,41.53273C-345.68597,36.05042 -352.0992,27.53908 -355.14539,30.18261C-358.59088,33.17267 -349.48546,36.18856 -350.44685,42.68818"/>
    <path id="imagebot_786" fill="#ffd5d5" stroke="#000000" stroke-width="1.40145" stroke-linecap="round" stroke-linejoin="round" stroke-miterlimit="4" stroke-dashoffset="0" d="M-342.36689,41.31414C-341.34378,36.63305 -344.15781,22.75523 -349.04006,24.71868C-354.33863,26.84957 -345.08696,34.96775 -346.31745,43.49573"/>
    <path id="imagebot_787" fill="#ffd5d5" stroke="#000000" stroke-width="1.40145" stroke-linecap="round" stroke-linejoin="round" stroke-miterlimit="4" stroke-dashoffset="0" d="M-338.50721,42.6482C-338.23274,37.59102 -335.47948,26.34794 -340.15775,25.48605C-344.57343,24.67253 -341.82735,35.44302 -343.03496,42.29427"/>
    <path id="imagebot_788" fill="#ffd5d5" stroke="#000000" stroke-width="1.40145" stroke-linecap="round" stroke-linejoin="round" stroke-miterlimit="4" stroke-dashoffset="0" d="M-338.81272,53.3533C-334.19398,53.72913 -331.22788,57.92387 -329.49652,55.16017C-326.8715,50.96997 -331.35398,48.24362 -336.80637,48.27457"/>
   </g>
   <g id="imagebot_789" display="inline" transform="matrix(1.3953977,0.91301174,-0.97557313,1.5077182,-1632.9298,-2844.5197)">
    <path id="imagebot_790" fill="#e87cd2" stroke="#000000" stroke-width="1.73157" stroke-linecap="round" stroke-linejoin="round" stroke-miterlimit="4" stroke-dashoffset="0" d="M1743.4332,1091.5739C1724.8315,1096.5079 1736.2681,1101.894 1736.2381,1120.6742C1737.5348,1120.6902 1738.8096,1120.6492 1740.0652,1120.5502C1738.8141,1088.536 1743.0997,1123.5297 1757.3099,1123.3056C1765.1526,1123.9034 1775.6207,1119.6032 1767.7447,1114.9427C1760.4048,1110.5992 1761.065,1091.0595 1747.6447,1093.1378"/>
    <path id="imagebot_791" fill="#ffd5d5" stroke="#000000" stroke-width="1.73157" stroke-linecap="round" stroke-linejoin="round" stroke-miterlimit="4" stroke-dashoffset="0" d="M1739.1197,1088.8319C1737.3883,1091.0072 1736.1855,1094.9116 1737.4691,1098.1074C1746.8668,1098.4404 1743.7021,1113.5892 1758.0818,1107.1308C1759.3686,1099.0401 1756.7357,1094.5295 1751.832,1089.6983"/>
   </g>
   <g id="imagebot_792" display="inline" transform="matrix(1.6903844,0.09051233,-0.08805873,1.7374843,-3021.5725,-1640.4295)">
    <path id="imagebot_793" fill="#e87cd2" stroke="#000000" stroke-width="1.66548" stroke-linecap="round" stroke-linejoin="round" stroke-miterlimit="4" stroke-dashoffset="0" d="M1745.0718,1091.4553C1727.9146,1096.3222 1738.4976,1101.7651 1738.5468,1120.58C1739.7443,1120.601 1740.9213,1120.566 1742.0804,1120.4714C1740.7939,1088.3929 1738.512,1119.5866 1749.8474,1122.8842C1756.6485,1125.7856 1772.077,1123.2021 1763.7533,1116.2907C1759.0452,1112.3814 1761.3515,1091.0122 1748.9673,1093.0393"/>
    <path id="imagebot_794" fill="#ffd5d5" stroke="#000000" stroke-width="1.73157" stroke-linecap="round" stroke-linejoin="round" stroke-miterlimit="4" stroke-dashoffset="0" d="M1739.1197,1088.8319C1737.3883,1091.0072 1736.1855,1094.9116 1737.4691,1098.1074C1746.8668,1098.4404 1741.9629,1112.5562 1758.0789,1112.4681C1759.3657,1104.3774 1756.7357,1094.5295 1751.832,1089.6983"/>
   </g>
   <g id="imagebot_795" display="inline" transform="matrix(1.9589771,-0.06896724,0,1.4621664,-247.95157,-188.2821)">
    <g id="imagebot_796">
     <g id="imagebot_797">
      <g id="imagebot_798" display="inline" stroke-width="1.95848" stroke-miterlimit="4" transform="matrix(0.76626214,0,0,0.76554093,112.53693,-235.66084)">
       <path id="imagebot_799" fill="#de8787" stroke="#000000" stroke-width="1.95848" stroke-linecap="round" stroke-linejoin="round" stroke-miterlimit="4" stroke-dashoffset="0" d="M-116.50975,512.61223C-113.38608,519.62309 -87.02697,531.16503 -93.18491,514.16047"/>
       <path id="imagebot_800" fill="#ffffff" stroke="#000000" stroke-width="1.43622" stroke-linecap="square" stroke-linejoin="round" stroke-miterlimit="4" stroke-dashoffset="0" d="M-94.27084,505.48717L-94.27084,516.42467C-99.54447,518.58102 -106.32193,519.17098 -117.17124,512.51075C-123.68938,508.50937 -117.6143,502.41117 -114.02549,506.94722"/>
       <path id="imagebot_801" fill="#de8787" stroke="#000000" stroke-width="1.95848" stroke-linecap="round" stroke-linejoin="round" stroke-miterlimit="4" stroke-dashoffset="0" d="M-117.95041,504.43669C-105.45828,506.43364 -103.1271,497.86096 -98.51122,505.09683C-94.62157,500.09214 -91.63582,500.83688 -91.02503,505.67983C-93.21499,510.74042 -111.18064,511.96358 -117.95041,504.43669z"/>
       <path id="imagebot_802" fill="none" stroke="#000000" stroke-width="1.43622" stroke-linecap="round" stroke-linejoin="round" stroke-miterlimit="4" stroke-dashoffset="0" d="M-116.00971,509.69455C-110.14682,514.47601 -98.27066,515.26732 -94.83333,512.45668"/>
      </g>
     </g>
    </g>
   </g>
   <g id="imagebot_803" transform="translate(-651.28257,146.97257)">
    <g id="imagebot_804" transform="matrix(0.86310693,0,0,0.99167233,390.02596,4.1422879)">
     <g id="imagebot_805" transform="translate(-0.51768561,0)">
      <path id="imagebot_806" fill="#de8787" stroke-width="2" stroke-linecap="round" stroke-linejoin="round" stroke-miterlimit="4" stroke-dashoffset="0" d="M33.5496,-162.32334C38.11033,-160.11526 69.59699,-178.87018 82.73833,-158.95946C82.78908,-168.8725 71.72946,-180.79849 59.91969,-181.25564C43.70316,-181.88337 37.22409,-173.68714 33.5496,-162.32334z"/>
      <path id="imagebot_807" fill="#000000" fill-rule="nonzero" stroke-width="2" stroke-linecap="round" stroke-linejoin="round" stroke-miterlimit="4" stroke-dashoffset="0" d="M48.19124,-170.46363C44.21381,-172.14668 40.76501,-176.28933 37.24433,-179.79938C35.97376,-177.08502 39.09548,-172.99565 40.93224,-171.02414L30.02438,-178.60175C30.80992,-175.72245 32.80569,-172.77268 37.20758,-169.68236L27.30242,-173.24302C28.85754,-170.43716 32.01221,-167.17518 34.81896,-165.73831L25.04497,-169.523C28.01083,-167.07373 28.03658,-162.96713 34.70065,-161.21762L48.19124,-170.46363z"/>
     </g>
     <path id="imagebot_808" fill="#ffffff" stroke="#000000" stroke-width="2.16179" stroke-linecap="round" stroke-linejoin="round" stroke-miterlimit="4" d="M32.65675,-163.32733C32.65675,-163.32733 34.70618,-159.76634 36.34972,-161.14417C41.4763,-165.44397 50.11491,-172.32405 59.72025,-172.33816C72.40374,-172.35836 81.52721,-161.15123 81.5672,-153.56056C68.10093,-152.36617 55.07054,-151.32902 45.26226,-152.94069C41.73623,-153.52024 40.7715,-154.54631 37.54039,-157.96317C34.65319,-160.82869 32.65675,-163.32733 32.65675,-163.32733z"/>
    </g>
    <g id="imagebot_809" transform="matrix(-0.76344747,0,0,0.99198894,538.52547,4.2363853)">
     <g id="imagebot_810" transform="translate(-0.51768561,0)">
      <path id="imagebot_811" fill="#de8787" stroke-width="2" stroke-linecap="round" stroke-linejoin="round" stroke-miterlimit="4" stroke-dashoffset="0" d="M33.5496,-162.32334C38.11033,-160.11526 69.59699,-178.87018 82.73833,-158.95946C82.78908,-168.8725 71.72946,-180.79849 59.91969,-181.25564C43.70316,-181.88337 37.22409,-173.68714 33.5496,-162.32334z"/>
      <path id="imagebot_812" fill="#000000" fill-rule="nonzero" stroke-width="2" stroke-linecap="round" stroke-linejoin="round" stroke-miterlimit="4" stroke-dashoffset="0" d="M48.19124,-170.46363C44.21381,-172.14668 40.76501,-176.28933 37.24433,-179.79938C35.97376,-177.08502 39.09548,-172.99565 40.93224,-171.02414L30.02438,-178.60175C30.80992,-175.72245 32.80569,-172.77268 37.20758,-169.68236L27.30242,-173.24302C28.85754,-170.43716 32.01221,-167.17518 34.81896,-165.73831L25.04497,-169.523C28.01083,-167.07373 28.03658,-162.96713 34.70065,-161.21762L48.19124,-170.46363z"/>
     </g>
     <path id="imagebot_813" fill="#ffffff" stroke="#000000" stroke-width="2.2982" stroke-linecap="round" stroke-linejoin="round" stroke-miterlimit="4" d="M32.65675,-163.32733C32.65675,-163.32733 34.70618,-159.76634 36.34972,-161.14417C41.4763,-165.44397 50.11491,-172.32405 59.72025,-172.33816C72.40374,-172.35836 81.52721,-161.15123 81.5672,-153.56056C68.10093,-152.36617 55.07054,-151.32902 45.26226,-152.94069C41.73623,-153.52024 40.7715,-154.54631 37.54039,-157.96317C34.65319,-160.82869 32.65675,-163.32733 32.65675,-163.32733z"/>
    </g>
   </g>
   <g id="imagebot_814" transform="translate(-569.30664,-58.042772)">
    <ellipse id="imagebot_815" fill="#afdde9" stroke="#000000" stroke-width="0.9702" stroke-miterlimit="4" cx="367.37982" cy="51.14099" rx="5.72727" ry="5.32822"/>
    <ellipse id="imagebot_816" stroke-width="0.55323" stroke-miterlimit="4" cx="367.37982" cy="51.14264" rx="2.45455" ry="2.28352"/>
    <ellipse id="imagebot_817" fill="#ffffff" stroke-width="0.55323" stroke-miterlimit="4" cx="368.19977" cy="51.64838" rx="1.07818" ry="1.00306"/>
    <ellipse id="imagebot_818" fill="#afdde9" stroke="#000000" stroke-width="0.9702" stroke-miterlimit="4" cx="419.30655" cy="51.14099" rx="5.72727" ry="5.32822"/>
    <ellipse id="imagebot_819" stroke-width="0.55323" stroke-miterlimit="4" cx="419.30655" cy="51.14264" rx="2.45455" ry="2.28352"/>
    <ellipse id="imagebot_820" fill="#ffffff" stroke-width="0.55323" stroke-miterlimit="4" cx="420.12653" cy="51.64838" rx="1.07818" ry="1.00306"/>
   </g>
   <g id="imagebot_821" fill="#010054" transform="matrix(0.94811773,0,0,0.99571816,-335.17376,-848.27157)">
    <path id="imagebot_822" fill="#ffe680" stroke="#000000" stroke-width="2.16409" stroke-linecap="round" stroke-linejoin="round" stroke-miterlimit="4" d="M143.68041,827.13974C146.54379,830.37471 148.4788,825.27165 147.37526,823.86978C145.02073,820.87865 138.27101,815.7188 124.30582,818.45677C113.62253,820.55129 108.21924,826.91081 103.60709,831.01106C124.30582,818.45677 139.82751,822.78674 143.68041,827.13974z"/>
    <path id="imagebot_823" fill="#ffe680" stroke="#000000" stroke-width="2.16409" stroke-linecap="round" stroke-linejoin="round" stroke-miterlimit="4" d="M171.44732,827.74C168.58394,830.97497 166.64893,825.87191 167.75247,824.47004C170.107,821.47891 176.85672,816.31906 190.82191,819.05703C201.5052,821.15155 206.90849,827.51107 211.52064,831.61132C190.82191,819.05703 175.30022,823.387 171.44732,827.74z"/>
   </g>
  </g>
 </g>
</svg>