<svg width="2083" height="1873" xmlns="http://www.w3.org/2000/svg">

 <metadata id="imagebot_937">image/svg+xml</metadata>
 <g id="imagebot_2" label="Layer 1">
  <title>Layer 1</title>
  <g id="imagebot_24" label="Layer 1" transform="translate(481.606 4.76837) matrix(2.06577 0 0 1.97593 1029.7 54.2496)">
   <g id="imagebot_939" fill="#ececec" transform="matrix(0.92504003,-0.37986963,0.37986963,0.92504003,-128.20335,162.76179)">
    <path id="imagebot_940" fill="#ececec" stroke="#000000" stroke-width="3" stroke-linecap="round" stroke-linejoin="round" stroke-miterlimit="4" d="M-211.58289,88.44924C-200.53629,89.42514 -185.49639,97.35504 -187.08359,111.61354L-192.51019,160.36184L-187.62059,191.43794C-186.42379,199.04454 -190.54969,209.66554 -196.83919,215.97324C-199.66019,218.80244 -202.91649,220.76384 -206.32289,221.19634C-211.43789,221.84584 -216.66829,217.24404 -220.91769,211.39394C-225.80789,204.66184 -229.39909,196.27654 -230.02099,192.33804C-236.63149,150.47394 -225.00139,149.97834 -232.63079,117.23064C-235.16159,106.36764 -224.97069,87.26654 -211.58289,88.44924z"/>
    <g id="imagebot_941" fill="#ececec" transform="matrix(0.93049577,-0.36630265,0.36630265,0.93049577,-452.05021,-221.58819)">
     <g id="imagebot_942" fill="#ececec" transform="matrix(0.9854067,-0.17021644,0.17021644,0.9854067,-1917.6145,-19.64105)">
      <path id="imagebot_943" fill="#ececec" stroke="#000000" stroke-width="0" stroke-linecap="round" stroke-linejoin="round" stroke-miterlimit="4" d="M1887.517,944.99461C1871.2649,943.80937 1869.8832,918.11202 1866.6131,900.1622C1864.1265,886.51276 1862.3294,881.30604 1861.0551,871.67226C1858.7749,854.43355 1856.8083,837.47422 1859.9919,828.53239C1863.1489,819.66514 1878.6204,815.12315 1888.9198,822.04062C1899.5041,829.1494 1904.5099,856.97928 1904.7628,890.8614C1904.7628,937.41445 1899.7373,945.88581 1887.517,944.99461z"/>
      <path id="imagebot_944" fill="#ececec" stroke="#000000" stroke-width="3" stroke-linecap="round" stroke-linejoin="round" stroke-miterlimit="4" d="M1879.7993,941.79012C1870.7174,934.23175 1869.3076,914.60448 1866.6583,900.06232C1864.1716,886.41289 1862.3746,881.20616 1861.1003,871.57238C1858.8201,854.33367 1856.8535,837.37434 1860.0371,828.43251M1888.965,821.94074C1899.5493,829.04952 1904.5551,856.8794 1904.808,890.76152C1904.808,920.11957 1902.8093,934.33245 1898.268,940.60306"/>
     </g>
     <g id="imagebot_945" fill="#ececec" transform="matrix(0.70790541,-0.20065593,0.26889112,0.95487396,-1045.1942,49.844089)">
      <g id="imagebot_946" fill="#ececec">
       <g id="imagebot_947" fill="#ececec" transform="matrix(-0.99813329,-0.00827915,0.00734632,-1.124875,3124.6932,716.8113)">
        <g id="imagebot_948" fill="#ececec">
         <g id="imagebot_949" fill="#ececec">
          <path id="imagebot_950" fill="#ececec" fill-rule="evenodd" stroke="#000000" stroke-width="2.83115" stroke-miterlimit="4" d="M1796.4929,-141.30191C1816.1758,-146.54051 1829.4739,-146.26375 1847.3771,-138.57901C1848.8703,-133.27129 1847.5359,-125.56309 1849.1586,-113.87374C1831.4689,-106.19823 1817.4794,-110.63665 1797.0785,-117.72357C1798.9691,-124.83205 1793.9058,-133.40765 1796.4929,-141.30191z"/>
         </g>
        </g>
       </g>
       <ellipse id="imagebot_951" opacity="0.99" fill="#ececec" stroke="#000000" stroke-width="3" stroke-linecap="round" stroke-miterlimit="4" cx="1291.1896" cy="839.94971" rx="3.34305" ry="3.08589"/>
      </g>
     </g>
    </g>
   </g>
   <g id="imagebot_952" display="inline" transform="matrix(3.7440248,0.06605203,-0.06261251,3.9496969,-1381.8649,-322.65632)">
    <path id="imagebot_953" fill="#162d50" fill-rule="nonzero" stroke="#000000" stroke-width="1.51746" stroke-linecap="round" stroke-linejoin="round" stroke-miterlimit="4" stroke-dashoffset="0" d="M292.05742,269.71344C292.76939,276.00228 290.58089,275.97157 293.31529,282.99776C297.08543,284.56376 304.39194,283.3233 307.81878,280.79483C306.77891,280.00317 301.76953,275.13072 301.64702,268.53716C298.04776,267.60859 293.972,268.57696 292.05742,269.71344z"/>
    <path id="imagebot_954" fill="#784421" stroke="#000000" stroke-width="1.51746" stroke-linecap="round" stroke-linejoin="round" stroke-miterlimit="4" stroke-dashoffset="0" d="M323.1013,289.49558C323.25659,281.67503 318.73045,283.51415 313.95747,281.62283C311.44347,280.62664 307.1985,279.46688 306.1272,275.68665C300.7284,282.07782 296.05537,278.41954 294.46639,277.03719C294.46639,277.03719 292.30129,275.39997 290.93821,276.10346C289.50969,278.97652 288.2425,283.29114 288.96409,287.28967C294.92333,288.10614 317.9021,290.19943 323.1013,289.49558z"/>
    <path id="imagebot_955" fill="#28170b" stroke="#000000" stroke-width="1.51746" stroke-linecap="round" stroke-linejoin="round" stroke-miterlimit="4" stroke-dashoffset="0" d="M299.64914,287.04433L288.65701,286.72543C287.14957,288.30746 286.98534,290.80273 289.23718,291.52209L297.95427,291.32115L299.45117,290.32339C302.51539,291.27192 322.30857,293.94519 323.51321,289.13194C322.99049,287.70233 319.05653,289.11564 313.92778,289.14314C309.06601,289.16914 302.65573,288.34891 299.64914,287.04435L299.64914,287.04433z"/>
    <path id="imagebot_956" fill="#28170b" stroke="#000000" stroke-width="1.51746" stroke-linecap="round" stroke-linejoin="round" stroke-miterlimit="4" stroke-dashoffset="0" d="M317.18384,282.50395C316.15857,282.29956 315.06466,282.06157 313.95747,281.62283C311.44347,280.62665 307.1985,279.46688 306.1272,275.68665C305.0346,276.8736 304.21699,278.4902 302.26051,278.65215C310.07007,288.02187 314.03935,287.44423 317.18384,282.50395z"/>
   </g>
   <g id="imagebot_957" display="inline" transform="matrix(2.8410963,0.15708964,0,2.9971674,1277.8706,-3853.1644)">
    <path id="imagebot_958" fill="#162d50" fill-rule="nonzero" stroke="#000000" stroke-width="2" stroke-linecap="round" stroke-linejoin="round" stroke-miterlimit="4" stroke-dashoffset="0" d="M-567.65765,1570.4234C-568.0931,1580.8222 -563.83334,1577.5901 -565.10904,1586.9096C-569.54231,1589.0564 -579.54184,1587.5827 -584.87276,1584.3262C-583.76844,1583.26 -578.6226,1578.475 -580.63298,1569.7833C-576.2141,1568.4803 -570.54509,1568.968 -567.65765,1570.4234z"/>
    <path id="imagebot_959" fill="#28170b" stroke="#000000" stroke-width="2" stroke-linecap="round" stroke-linejoin="round" stroke-miterlimit="4" stroke-dashoffset="0" d="M-577.20502,1594.6376L-563.23696,1593.9733C-561.28683,1596.0305 -561.02499,1599.324 -563.87257,1600.3243L-570.74734,1600.4262C-577.42572,1600.8858 -573.95734,1604.2063 -580.12085,1605.54C-586.6135,1605.9437 -599.44346,1607.292 -599.07625,1603.0013C-598.44209,1599.6998 -592.5682,1599.204 -586.04719,1599.127C-579.86562,1599.054 -580.9997,1596.4274 -577.20502,1594.6372L-577.20502,1594.6376z"/>
    <path id="imagebot_960" fill="#784421" stroke="#000000" stroke-width="2" stroke-linecap="round" stroke-linejoin="round" stroke-miterlimit="4" stroke-dashoffset="0" d="M-599.20727,1601.7173C-599.58427,1591.4147 -597.67458,1592.4924 -591.69685,1591.141C-585.53119,1589.747 -585.80613,1587.9762 -584.47767,1582.971C-581.54695,1581.3559 -574.92202,1580.5066 -571.70072,1582.0488C-568.07924,1585.1335 -563.16834,1583.1886 -564.10301,1581.6138C-562.15718,1585.3685 -560.39218,1591.0264 -561.25498,1596.3116C-580.94154,1596.7318 -570.94536,1600.4113 -579.06057,1601.708C-585.60843,1602.7542 -593.80022,1603.0961 -599.20727,1601.718L-599.20727,1601.7173z"/>
    <path id="imagebot_961" fill="#28170b" stroke="#000000" stroke-width="2" stroke-linecap="round" stroke-linejoin="round" stroke-miterlimit="4" stroke-dashoffset="0" d="M-592.8763,1591.6747C-586.12621,1590.6423 -585.8106,1586.2401 -584.79629,1582.9711C-579.33266,1581.5424 -574.77776,1579.2888 -572.10146,1582.7772C-572.79784,1595.6461 -579.81207,1592.1782 -592.8763,1591.6747z"/>
   </g>
   <g id="imagebot_962" transform="matrix(0.83963484,0,0,1.0015442,-508.82038,-762.51014)">
    <path id="imagebot_963" fill="#0b1728" fill-rule="nonzero" stroke="#000000" stroke-width="5.33139" stroke-linecap="round" stroke-linejoin="round" stroke-miterlimit="4" stroke-dashoffset="0" d="M286.93894,1309.6336C293.12766,1381.7206 295.5398,1463.9678 296.75326,1530.7989C282.80395,1540.1824 265.23731,1544.4699 236.08167,1532.4325C245.07518,1469.9907 247.12582,1400.2134 245.94708,1327.0246"/>
    <path id="imagebot_964" clip-rule="nonzero" fill="#0b1728" fill-rule="nonzero" stroke="#000000" stroke-width="5.33139" stroke-linecap="round" stroke-linejoin="round" stroke-miterlimit="4" stroke-dashoffset="0" d="M157.59699,1254.4641C148.16,1275.3568 153.14042,1301.6306 167.02958,1318.6848C187.6365,1344.6736 222.29932,1353.418 252.15652,1345.3154C275.4531,1339.2206 297.59041,1321.4207 304.95499,1295.6154C308.69836,1282.2102 308.40968,1266.9489 302.21166,1254.4641C254.00667,1266.5092 205.80196,1269.7338 157.59699,1254.4641z"/>
    <path id="imagebot_965" fill="#0b1728" fill-rule="nonzero" stroke="#000000" stroke-width="5.33139" stroke-linecap="round" stroke-linejoin="round" stroke-miterlimit="4" stroke-dashoffset="0" d="M163.80176,1306.554C157.61328,1378.6409 155.20108,1460.8882 153.98752,1527.7188C167.93682,1537.1025 185.50344,1541.3903 214.65924,1529.3528C205.66563,1466.9112 203.61508,1397.1339 204.79369,1323.9448"/>
   </g>
   <g id="imagebot_966" transform="translate(259.50238,209.97548)">
    <g id="imagebot_967" display="inline" fill="#ffccaa" stroke-width="1.72712" stroke-miterlimit="4" transform="matrix(1.3926951,0,0,1.1618143,992.0102,-1944.0536)">
     <path id="imagebot_968" fill="#98b8e7" fill-rule="nonzero" stroke="#000000" stroke-width="3.0554" stroke-linecap="round" stroke-linejoin="round" stroke-miterlimit="4" stroke-dashoffset="0" d="M-1140.0007,1758.3327C-1163.0123,1758.3331 -1184.7221,1778.4802 -1184.7221,1803.3327C-1184.7051,1816.4494 -1183.8661,1828.9495 -1174.698,1837.233C-1172.7592,1838.9848 -1172.5229,1843.8713 -1173.9853,1845.3576C-1182.3604,1853.8689 -1179.9836,1865.7178 -1180.0007,1878.3327C-1180.0007,1903.1861 -1161.3451,1923.3335 -1138.3327,1923.3327C-1115.3211,1923.3323 -1096.6667,1903.1852 -1096.6667,1878.3327C-1096.6847,1865.0306 -1102.2231,1852.4273 -1111.5681,1844.0767C-1113.7169,1842.1565 -1113.6075,1838.2612 -1111.9472,1836.3617C-1104.0719,1827.3522 -1101.4048,1815.9742 -1101.3881,1803.3327C-1101.3881,1778.4793 -1116.9883,1758.3319 -1140.0007,1758.3327z"/>
     <path id="imagebot_969" fill="#deaa87" fill-rule="nonzero" stroke="#000000" stroke-width="3.0554" stroke-linecap="round" stroke-linejoin="round" stroke-miterlimit="4" stroke-dashoffset="0" d="M-1145.7064,1765.0769L-1145.7064,1732.8682C-1145.7064,1730.9409 -1140.6889,1729.3892 -1134.4564,1729.3892C-1128.2239,1729.3892 -1123.2064,1730.9409 -1123.2064,1732.8682L-1123.2064,1765.0769C-1125.027,1773.4329 -1135.6943,1771.3573 -1145.7064,1765.0769z"/>
    </g>
    <g id="imagebot_970" fill="#d7e3f4" transform="matrix(1.4143135,0,0,1.2550971,-1405.7988,230.42171)">
     <g id="imagebot_971" fill="#d7e3f4" transform="matrix(-0.79988916,0,0.0442825,1.0025503,1054.7815,-1.1180639)">
      <path id="imagebot_972" fill="#ececec" fill-rule="evenodd" stroke="#000000" stroke-width="3.25121" stroke-linecap="round" stroke-linejoin="round" stroke-miterlimit="4" d="M567.93188,143.12153C559.89112,37.95784 582.57873,-6.48061 591.54072,-16.55135C556.64707,-48.46609 563.11573,-80.26548 573.71727,-103.57852L556.39673,-99.62452L556.07227,-97.29616C551.78926,-98.18357 535.59536,-90.68815 531.58336,-76.46745C524.04548,-49.09387 529.09556,-10.64418 529.64374,28.61664C530.24663,71.79616 517.93771,102.26213 530.4188,134.37467C538.56534,142.00167 557.16558,142.34418 567.93188,143.12153z"/>
      <path id="imagebot_973" fill="none" fill-rule="evenodd" stroke="#000000" stroke-width="2.91618" stroke-linecap="round" stroke-linejoin="round" stroke-miterlimit="4" d="M556.87004,-99.61022C556.0388,-79.16576 532.29339,-61.95803 555.89725,-59.6514C551.72494,-56.60936 549.04154,-54.16952 544.33423,-52.98401C560.3869,-28.00442 568.49795,-19.76861 581.80313,-7.25444"/>
     </g>
     <g id="imagebot_974" fill="#d7e3f4" transform="matrix(0.79988916,0,0,1.0025503,105.64631,-0.9126592)">
      <path id="imagebot_975" fill="#ececec" fill-rule="evenodd" stroke="#000000" stroke-width="3.25121" stroke-linecap="round" stroke-linejoin="round" stroke-miterlimit="4" d="M527.44922,135.88211C549.84607,137.01985 578.13493,146.65814 606.47684,145.13172C609.11923,137.16566 612.30444,9.77953 623.80096,3.13265C622.37554,-7.42767 623.96429,-4.33094 623.67104,-16.55135C609.14861,-41.91864 577.79606,-79.21049 571.91989,-103.57852L556.39673,-99.62452L556.07227,-97.29616C544.46118,-99.00712 527.85515,-94.07229 524.85441,-79.4406C522.64913,-68.68756 527.85146,-22.9838 534.95152,39.85261C538.85715,74.41797 528.3448,118.65163 527.44922,135.88211z"/>
      <path id="imagebot_976" fill="#ececec" fill-rule="evenodd" stroke="#000000" stroke-width="2.91639" stroke-linecap="round" stroke-linejoin="round" stroke-miterlimit="4" d="M556.87004,-99.61022C556.0388,-79.16576 561.42807,-64.97291 585.03193,-62.66627C580.85962,-59.62423 577.5771,-56.68192 572.86979,-55.4964C588.92246,-30.51681 610.4518,-26.30084 623.75698,-13.78667"/>
     </g>
     <ellipse id="imagebot_977" clip-rule="nonzero" fill="#d7e3f4" fill-rule="nonzero" stroke="#000000" stroke-width="2.91639" stroke-linecap="round" stroke-linejoin="round" stroke-miterlimit="4" stroke-dashoffset="0" cx="595.74792" cy="-11.30744" rx="3.17656" ry="3.36533"/>
     <ellipse id="imagebot_978" clip-rule="nonzero" fill="#d7e3f4" fill-rule="nonzero" stroke="#000000" stroke-width="2.91639" stroke-linecap="round" stroke-linejoin="round" stroke-miterlimit="4" stroke-dashoffset="0" cx="595.29413" cy="-0.73072" rx="3.17656" ry="3.36533"/>
    </g>
    <path id="imagebot_979" fill="#ececec" fill-rule="evenodd" stroke="#000000" stroke-width="3.5" stroke-linecap="round" stroke-linejoin="round" stroke-miterlimit="4" d="M-631.67453,287.55631C-636.79037,326.51704 -641.84959,328.03545 -606.01193,346.71562C-578.00689,335.79694 -579.55516,316.15755 -580.56726,288.40193C-597.60302,293.27112 -614.63877,291.9449 -631.67453,287.55631z"/>
    <path id="imagebot_980" fill="#ececec" fill-rule="evenodd" stroke="#000000" stroke-width="3.5" stroke-linecap="round" stroke-linejoin="round" stroke-miterlimit="4" d="M-547.03551,286.58552C-544.40707,326.5462 -547.1386,328.6204 -523.54972,343.70796C-508.79159,329.68327 -512.52317,309.97874 -517.11112,282.00597C-524.40591,288.2225 -533.57464,291.15963 -547.03551,286.58552z"/>
   </g>
   <g id="imagebot_981" transform="matrix(0.61011024,0.2623315,-0.24099121,0.56047863,292.1262,392.75166)">
    <path id="imagebot_982" clip-rule="nonzero" fill="#98b8e7" fill-rule="nonzero" stroke="#000000" stroke-width="3" stroke-linecap="round" stroke-linejoin="round" stroke-miterlimit="4" stroke-dashoffset="0" d="M-680.56291,351.698C-655.26116,351.23902 -667.45435,353.73475 -667.45435,357.82848L-667.45435,442.61477C-667.45435,453.16636 -672.66072,461.66096 -679.12783,461.66096C-685.59494,461.66096 -690.80132,453.16636 -690.80132,442.61477L-690.80132,357.82848C-690.80132,353.37598 -703.71179,352.11793 -680.56291,351.698z"/>
    <path id="imagebot_983" clip-rule="nonzero" fill="#aad400" fill-rule="nonzero" stroke="#000000" stroke-width="0.53815" stroke-linecap="round" stroke-linejoin="round" stroke-miterlimit="4" stroke-dashoffset="0" d="M-677.35324,352.41237C-682.0763,352.50957 -686.81773,352.52379 -691.52079,352.9775C-692.65289,353.32739 -692.06296,354.65499 -691.35893,355.12031C-690.31972,356.14275 -689.83919,357.54951 -690.06427,358.9925C-690.02027,387.2377 -690.16594,415.48395 -689.93261,443.72841C-689.87741,448.80249 -688.40337,454.08843 -685.00007,457.9534C-683.21379,459.97257 -680.43352,461.46085 -677.69519,460.66557C-673.57478,459.72471 -671.15192,455.74474 -669.82503,452.02496C-668.77257,449.23267 -668.23794,446.27014 -668.3415,443.28391C-668.06679,415.28436 -668.263,387.28177 -667.99019,359.28225C-667.86176,357.97766 -668.2612,356.38167 -667.15773,355.36592C-666.5678,354.71032 -665.38337,353.48814 -666.5996,352.81879C-670.04749,352.31414 -673.57361,352.48512 -677.05403,352.41175L-677.23341,352.41212L-677.35324,352.41237z"/>
   </g>
   <g id="imagebot_984">
    <g id="imagebot_985" display="inline" stroke-width="1.22405" stroke-miterlimit="4" transform="matrix(0.31327078,-2.8596478,-2.3826598,-0.26101735,-416.38691,-560.66258)">
     <path id="imagebot_986" fill="#deaa87" stroke="#000000" stroke-width="1.22405" stroke-linecap="round" stroke-linejoin="round" stroke-miterlimit="4" stroke-dashoffset="0" d="M-328.92815,-114.81347L-329.79935,-119.60644C-327.26585,-120.85161 -325.26605,-123.14422 -324.50045,-126.09082C-323.10545,-131.46053 -323.51225,-136.76304 -328.81885,-138.38183C-329.19715,-138.49724 -329.64715,-138.67364 -330.11765,-138.71386C-330.90195,-138.78086 -331.74425,-138.46967 -332.40475,-136.87597C-333.13525,-138.40346 -336.69625,-139.21885 -336.81495,-136.2705C-337.97835,-138.37207 -340.75565,-136.79806 -340.63915,-134.12793C-341.44815,-135.88867 -343.38675,-133.41911 -343.94585,-131.14355C-345.20095,-126.03485 -342.42895,-120.86149 -337.56105,-119.14941L-336.84635,-114.18457"/>
     <path id="imagebot_987" fill="#deaa87" stroke="#000000" stroke-width="1.22405" stroke-linecap="round" stroke-linejoin="round" stroke-miterlimit="4" stroke-dashoffset="0" d="M-325.11889,-130.02972C-325.88552,-131.88253 -325.2786,-136.37576 -322.1897,-133.71525C-319.3744,-131.29039 -322.53844,-122.5786 -328.07983,-121.86346"/>
    </g>
    <g id="imagebot_988" fill="#ececec" transform="matrix(0.99646433,-0.08401708,0.08401708,0.99646433,-98.486374,18.805394)">
     <path id="imagebot_989" fill="#ececec" stroke="#000000" stroke-width="3" stroke-linecap="round" stroke-linejoin="round" stroke-miterlimit="4" d="M-310.39655,270.75179C-299.34995,271.72769 -284.31005,279.65759 -285.89725,293.91608L-291.32385,342.66438L-286.43425,373.74048C-285.23745,381.34708 -289.36335,391.96808 -295.65285,398.27578C-298.47385,401.10498 -301.73015,403.06638 -305.13655,403.49888C-310.25155,404.14838 -315.48195,399.54658 -319.73135,393.69648C-324.62155,386.96438 -328.21275,378.57908 -328.83465,374.64058C-335.44515,332.77648 -323.81505,332.28088 -331.44445,299.53318C-333.97525,288.67018 -323.78435,269.56909 -310.39655,270.75179z"/>
     <g id="imagebot_990" fill="#ececec" transform="matrix(0.31679514,-0.94849399,0.94849399,0.31679514,-784.50766,302.0965)">
      <g id="imagebot_991" fill="#ececec" transform="matrix(0.9854067,-0.17021644,0.17021644,0.9854067,-1917.6145,-19.64105)">
       <path id="imagebot_992" fill="#ececec" stroke="#000000" stroke-width="0" stroke-linecap="round" stroke-linejoin="round" stroke-miterlimit="4" d="M1887.517,944.99461C1871.2649,943.80937 1869.8832,918.11202 1866.6131,900.1622C1864.1265,886.51276 1862.3294,881.30604 1861.0551,871.67226C1858.7749,854.43355 1856.8083,837.47422 1859.9919,828.53239C1863.1489,819.66514 1878.6204,815.12315 1888.9198,822.04062C1899.5041,829.1494 1904.5099,856.97928 1904.7628,890.8614C1904.7628,937.41445 1899.7373,945.88581 1887.517,944.99461z"/>
       <path id="imagebot_993" fill="#ececec" stroke="#000000" stroke-width="3" stroke-linecap="round" stroke-linejoin="round" stroke-miterlimit="4" d="M1879.7993,941.79012C1870.7174,934.23175 1869.3076,914.60448 1866.6583,900.06232C1864.1716,886.41289 1862.3746,881.20616 1861.1003,871.57238C1858.8201,854.33367 1856.8535,837.37434 1860.0371,828.43251M1888.965,821.94074C1899.5493,829.04952 1904.5551,856.8794 1904.808,890.76152C1904.808,920.11957 1902.8093,934.33245 1898.268,940.60306"/>
      </g>
      <g id="imagebot_994" fill="#ececec" transform="matrix(0.70790541,-0.20065593,0.26889112,0.95487396,-1045.1942,49.844089)">
       <g id="imagebot_995" fill="#ececec">
        <g id="imagebot_996" fill="#ececec" transform="matrix(-0.99813329,-0.00827915,0.00734632,-1.124875,3124.6932,716.8113)">
         <g id="imagebot_997" fill="#ececec">
          <g id="imagebot_998" fill="#ececec">
           <path id="imagebot_999" fill="#ececec" fill-rule="evenodd" stroke="#000000" stroke-width="2.83115" stroke-miterlimit="4" d="M1795.4561,-138.95212C1813.8089,-143.56873 1836.459,-143.62108 1846.1863,-138.14961C1847.5147,-131.7596 1845.9092,-122.35754 1846.6971,-115.86492C1824.2374,-104.51464 1802.847,-108.07993 1796.4572,-114.93506C1797.7261,-125.26534 1791.4936,-130.52767 1795.4561,-138.95212z"/>
          </g>
         </g>
        </g>
        <ellipse id="imagebot_1000" opacity="0.99" fill="#ececec" stroke="#000000" stroke-width="3" stroke-linecap="round" stroke-miterlimit="4" ry="3.08589" rx="3.34305" cy="839.94971" cx="1291.1896"/>
       </g>
      </g>
     </g>
    </g>
   </g>
   <g id="imagebot_1001">
    <g id="imagebot_1002" transform="matrix(0.99949926,0.03164223,-0.03164223,0.99949926,-684.83219,97.524496)">
     <g id="imagebot_1003" fill="#deaa87" transform="matrix(-1.0313289,0,0,1.6157004,999.75368,-764.40994)">
      <path id="imagebot_1004" fill="#deaa87" fill-rule="evenodd" stroke="#000000" stroke-width="3" stroke-linecap="round" stroke-linejoin="round" stroke-miterlimit="4" d="M549.64072,546.20048C545.33967,546.35604 546.62912,542.05393 540.99218,541.70358C534.77154,541.31695 530.76964,542.22485 526.87574,546.40555C521.44391,552.94669 523.31094,564.33504 529.747,570.19601C535.17331,574.05411 544.16757,572.45128 549.84581,569.37565"/>
      <path id="imagebot_1005" fill="#deaa87" fill-rule="evenodd" stroke="#000000" stroke-width="3" stroke-linecap="round" stroke-linejoin="round" stroke-miterlimit="4" d="M533.02844,557.68555C537.97709,549.43356 542.26871,556.19655 543.28293,560.55675"/>
     </g>
     <g id="imagebot_1006" transform="translate(835.74458,191.82091)">
      <g id="imagebot_1007" transform="translate(0,-1.1997584)">
       <g id="imagebot_1008">
        <g id="imagebot_1009">
         <path id="imagebot_1010" fill="#deaa87" stroke="#000000" stroke-width="2.97366" stroke-linecap="round" stroke-linejoin="round" stroke-miterlimit="4" d="M-453.43962,36.69097C-475.86693,36.84016 -514.2408,13.67882 -532.3567,-16.74922C-539.00451,-27.91512 -542.61785,-51.81182 -543.63573,-82.98343C-545.37437,-136.22753 -530.28442,-159.19243 -463.28276,-158.86583C-401.21258,-158.56333 -388.86618,-130.55523 -392.38816,-65.47623C-392.89806,-50.57402 -385.20211,-31.07302 -394.75702,-17.82122C-419.66636,16.72581 -430.31945,36.53718 -453.43962,36.69097z"/>
        </g>
        <path id="imagebot_1011" fill="#004455" fill-rule="evenodd" stroke="#000000" stroke-width="3.18129" stroke-linecap="round" stroke-linejoin="round" stroke-miterlimit="4" d="M-391.09271,-60.7048C-400.09238,-99.67551 -390.32909,-120.72382 -406.44446,-142.93362C-410.32129,-126.94794 -425.73667,-122.52849 -448.80671,-120.87285C-491.63684,-122.38945 -493.67093,-127.76522 -501.64922,-133.9439C-501.64922,-133.9439 -515.17703,-136.6081 -512.40148,-124.5766C-509.65954,-119.92841 -506.7585,-64.73838 -529.48376,-87.35912C-537.20781,-95.0477 -546.81469,-80.98587 -546.81469,-80.98587L-532.93321,-54.1976L-536.37957,-38.41359C-567.43151,-71.20154 -564.38798,-124.00614 -563.13567,-133.13111C-556.75526,-157.83531 -543.04383,-158.95665 -525.91256,-168.09481C-490.44868,-227.12194 -420.90918,-195.15697 -401.98404,-150.33582C-386.77273,-130.42714 -384.54488,-103.01926 -388.34343,-81.58L-391.09271,-60.7048z"/>
       </g>
      </g>
      <g id="imagebot_1012" fill="#deaa87" stroke="#000000" transform="matrix(-1.1821363,0,0,1.0017779,-497.36735,-442.35667)">
       <path id="imagebot_1013" fill="#deaa87" fill-rule="evenodd" stroke="#000000" stroke-width="3" stroke-linecap="round" stroke-linejoin="round" stroke-miterlimit="4" d="M-48.96856,365.27383C-57.65898,386.50307 -55.64372,393.05482 -52.11976,410.3891C-56.23311,406.5187 -58.42919,407.202 -59.33249,409.45102C-60.92281,413.41057 -61.88585,419.68326 -58.57036,422.87412C-55.04585,416.40354 -56.17511,426.78467 -49.60016,427.53879C-42.07162,425.41491 -46.76825,415.8227 -37.14494,422.5837C-33.82945,419.39284 -31.30746,416.31476 -32.89778,412.35521C-33.80108,410.10619 -38.5929,401.47851 -41.56261,409.22742L-38.5929,401.47851"/>
       <path id="imagebot_1014" fill="#deaa87" fill-rule="evenodd" stroke="#000000" stroke-width="3" stroke-linecap="round" stroke-miterlimit="4" d="M-38.91617,366.39209C-34.92422,375.34249 -36.49901,381.89615 -38.33533,391.07772"/>
      </g>
      <g id="imagebot_1015" transform="matrix(0.63951305,0,0,0.69005065,-1227.6133,228.71297)">
       <circle id="imagebot_1016" fill="#5aa02c" stroke="#000000" stroke-width="2.62955" stroke-miterlimit="4" r="14.97225" cy="-425.61353" cx="1174.1079"/>
       <circle id="imagebot_1017" stroke-width="0.55323" stroke-miterlimit="4" r="6.41668" cy="-425.60889" cx="1174.1079"/>
       <circle id="imagebot_1018" fill="#ffffff" stroke-width="0.55323" stroke-miterlimit="4" r="2.81859" cy="-424.18774" cx="1176.2515"/>
      </g>
      <g id="imagebot_1019" transform="matrix(0.63951305,0,0,0.69005065,-1163.6994,228.71297)">
       <circle id="imagebot_1020" fill="#5aa02c" stroke="#000000" stroke-width="2.62955" stroke-miterlimit="4" r="14.97225" cy="-425.61353" cx="1174.1079"/>
       <circle id="imagebot_1021" stroke-width="0.55323" stroke-miterlimit="4" r="6.41668" cy="-425.60889" cx="1174.1079"/>
       <circle id="imagebot_1022" fill="#ffffff" stroke-width="0.55323" stroke-miterlimit="4" r="2.81859" cy="-424.18774" cx="1176.2515"/>
      </g>
     </g>
     <g id="imagebot_1023" fill="#deaa87" transform="matrix(1.4751364,0,0,1.5922173,-499.92053,-754.95999)">
      <path id="imagebot_1024" fill="#deaa87" fill-rule="evenodd" stroke="#000000" stroke-width="3" stroke-linecap="round" stroke-linejoin="round" stroke-miterlimit="4" d="M549.64072,546.20048C545.33967,546.35604 546.62912,542.05393 540.99218,541.70358C534.77154,541.31695 530.76964,542.22485 526.87574,546.40555C521.44391,552.94669 523.31094,564.33504 529.747,570.19601C535.17331,574.05411 544.16757,572.45128 549.84581,569.37565"/>
      <path id="imagebot_1025" fill="#deaa87" fill-rule="evenodd" stroke="#000000" stroke-width="3" stroke-linecap="round" stroke-linejoin="round" stroke-miterlimit="4" d="M533.02844,557.68555C537.97709,549.43356 542.26871,556.19655 543.28293,560.55675"/>
     </g>
     <path id="imagebot_1026" fill="none" fill-rule="evenodd" stroke="#000000" stroke-width="0.85823px" d="M374.15327,197.00126L407.75956,197.00126"/>
    </g>
    <g id="imagebot_1027" transform="translate(-33.177243,315.1838)">
     <g id="imagebot_1028" transform="translate(-619.13227,79.752603)">
      <path id="imagebot_1029" fill="#ffffff" stroke="#000000" stroke-width="2.88063" stroke-linecap="round" stroke-linejoin="round" stroke-miterlimit="4" d="M383.27301,-141.54843C374.34806,-141.54043 368.91568,-150.84396 368.90146,-160.28633C368.88736,-169.72867 377.22673,-186.71231 386.15167,-186.73492C395.07663,-186.75742 401.21125,-169.8106 401.23982,-160.34096C401.23982,-150.87128 392.19801,-141.55595 383.27301,-141.54843z"/>
      <path id="imagebot_1030" fill="#ffffff" stroke="#000000" stroke-width="3.28116" stroke-linecap="round" stroke-linejoin="round" stroke-miterlimit="4" d="M321.86284,-140.58289C333.48316,-140.57489 340.55616,-149.84575 340.57467,-159.2549C340.59317,-168.66403 329.73513,-185.58791 318.11481,-185.61046C306.49449,-185.63296 298.50711,-168.74567 298.46992,-159.30934C298.46992,-149.87297 310.24243,-140.59041 321.86284,-140.58289z"/>
     </g>
     <g id="imagebot_1031" transform="matrix(1.0976152,0,0,1.2110776,373.66939,-1195.7112)">
      <g id="imagebot_1032">
       <g id="imagebot_1033" transform="matrix(1.0354939,0,0,0.99748208,145.96182,-273.99081)">
        <path id="imagebot_1034" fill="none" stroke="#000000" stroke-width="4.59805" stroke-linecap="round" stroke-linejoin="round" stroke-miterlimit="4" d="M-688.98608,1180.4112L-660.38344,1180.4112C-656.38355,1180.4112 -652.71648,1183.4573 -653.16342,1187.1883L-655.06179,1203.0358C-655.50873,1206.7668 -658.28191,1209.813 -662.28181,1209.813L-685.18935,1209.813C-689.18925,1209.813 -691.5318,1206.6988 -692.40939,1203.0358L-696.20611,1187.1883C-697.0837,1183.5253 -692.98599,1180.4112 -688.98608,1180.4112z"/>
        <path id="imagebot_1035" fill="none" stroke="#000000" stroke-width="4.6399" stroke-linecap="round" stroke-linejoin="round" stroke-miterlimit="4" d="M-716.71897,1180.4322L-751.35748,1180.4322C-755.4363,1180.4322 -759.17574,1183.474 -758.71997,1187.1996L-756.78414,1203.0246C-756.3284,1206.7502 -753.50048,1209.7921 -749.42165,1209.7921L-720.59063,1209.7921C-716.5118,1209.7921 -714.12303,1206.6824 -713.22811,1203.0246L-709.35647,1187.1996C-708.46157,1183.5418 -712.64014,1180.4322 -716.71897,1180.4322z"/>
        <path id="imagebot_1036" fill="none" fill-rule="evenodd" stroke="#000000" stroke-width="5" stroke-miterlimit="4" d="M-711,1192.3622L-695.70773,1192.6275"/>
       </g>
       <path id="imagebot_1037" fill="none" fill-rule="evenodd" stroke="#000000" stroke-width="5" stroke-miterlimit="4" d="M-640,912.36215L-654.52351,903.36864"/>
      </g>
     </g>
     <g id="imagebot_1038" transform="translate(-743.95245,174.94138)">
      <path id="imagebot_1039" fill="#004455" stroke="#000000" stroke-width="2.73194" stroke-linecap="round" stroke-linejoin="round" stroke-miterlimit="4" d="M433.61929,-299.33394C423.08583,-290.67124 420.87265,-296.30491 420.37385,-300.18671C419.68386,-305.55601 431.12341,-314.34419 443.8781,-315.54404C456.6329,-316.74351 465.35826,-302.85187 465.76404,-298.94492C466.52735,-292.57092 449.30503,-312.23386 433.61929,-299.33394z"/>
      <path id="imagebot_1040" fill="#004455" stroke="#000000" stroke-width="2.55448" stroke-linecap="round" stroke-linejoin="round" stroke-miterlimit="4" d="M517.29348,-299.24469C526.49664,-290.57606 528.43031,-296.21359 528.86612,-300.09804C529.46897,-305.47102 519.47415,-314.26522 508.3303,-315.46589C497.18634,-316.66618 489.56292,-302.76503 489.20838,-298.8554C488.54147,-292.47704 503.58875,-312.15344 517.29348,-299.24469z"/>
     </g>
    </g>
    <g id="imagebot_1041" transform="translate(-696.64675,115.06138)">
     <g id="imagebot_1042" transform="translate(-74.244954,-409.75351)">
      <ellipse id="imagebot_1043" fill="#5aa02c" stroke="#000000" stroke-width="1.74681" stroke-miterlimit="4" ry="10.33161" rx="9.57495" cx="508.5795" cy="532.7052"/>
      <ellipse id="imagebot_1044" stroke-width="0.55323" stroke-miterlimit="4" ry="4.42783" rx="4.10355" cx="508.5795" cy="532.70837"/>
      <ellipse id="imagebot_1045" fill="#ffffff" stroke-width="0.55323" stroke-miterlimit="4" ry="1.94497" rx="1.80252" cx="509.95032" cy="533.68903"/>
     </g>
     <g id="imagebot_1046" transform="translate(-137.03557,-409.75351)">
      <ellipse id="imagebot_1047" fill="#5aa02c" stroke="#000000" stroke-width="1.74681" stroke-miterlimit="4" ry="10.33161" rx="9.57495" cx="508.5795" cy="532.7052"/>
      <ellipse id="imagebot_1048" stroke-width="0.55323" stroke-miterlimit="4" ry="4.42783" rx="4.10355" cx="508.5795" cy="532.70837"/>
      <ellipse id="imagebot_1049" fill="#ffffff" stroke-width="0.55323" stroke-miterlimit="4" ry="1.94497" rx="1.80252" cx="509.95032" cy="533.68903"/>
     </g>
    </g>
    <g id="imagebot_1050" display="inline" fill="#deaa87" transform="matrix(2.5039516,0,-0.35742526,1.8682753,-172.07889,400.8018)">
     <path id="imagebot_1051" fill="#ffffff" stroke="#000000" stroke-width="1.38704" stroke-linecap="round" stroke-linejoin="round" stroke-miterlimit="4" stroke-dashoffset="0" d="M-52.17729,-49.68072C-53.01459,-52.75102 -52.71349,-55.97132 -55.04599,-58.94652C-56.80979,-57.13722 -58.67109,-56.01392 -60.99579,-58.14942C-62.47319,-54.39442 -64.19299,-54.91192 -65.45819,-50.87632C-66.73489,-40.21622 -47.68229,-42.87482 -52.17729,-49.68072z"/>
     <path id="imagebot_1052" fill="#800000" stroke-width="2.13905" stroke-linecap="round" stroke-linejoin="round" stroke-miterlimit="4" stroke-dashoffset="0" d="M-58.98139,-50.99352C-60.63739,-54.17462 -64.17409,-52.95782 -64.52829,-49.06442C-60.02809,-46.24902 -55.91039,-45.41732 -52.98149,-49.46202C-52.73749,-52.29702 -57.25099,-54.86482 -58.98139,-50.99352z"/>
     <path id="imagebot_1053" fill="#000000" stroke-width="2.13905" stroke-linecap="round" stroke-linejoin="round" stroke-miterlimit="4" stroke-dashoffset="0" d="M-54.30839,-56.06672C-54.83569,-53.81722 -60.75259,-53.98732 -61.54749,-55.63682C-63.82899,-53.34192 -64.55549,-52.37082 -64.51219,-48.75182C-63.72099,-53.41032 -60.28739,-52.13442 -58.88059,-50.72402C-57.34819,-52.40562 -54.53329,-53.91752 -52.91899,-49.55572C-53.09939,-53.12992 -53.81349,-54.94242 -54.30839,-56.06672z"/>
    </g>
   </g>
   <g id="imagebot_1054" transform="matrix(-0.12735338,1.6456249,-1.4914005,-0.10828772,720.5018,189.71887)">
    <path id="imagebot_1055" fill="#deaa87" d="M205.063,540.857C204.827,542.824 204.722,541.494 204.285,543.464C203.536,546.841 202.107,550.571 204.938,552.935C207.268,554.878 212.17,556.066 215.895,555.3C221.374,557.417 226.072,558.048 230.089,554.552C233.185,551.859 235.941,549.572 237.31,546.585C240.423,545.339 252.589,546.167 253.123,543.597C254.493,536.997 247.645,537.37 238.182,538.242C242.166,531.644 254.151,533.203 253.123,525.793C252.852,523.838 251.318,522.555 248.143,523.924C252.251,520.44 251.77,515.889 246.773,515.582C242.425,515.316 238.693,517.6 235.069,519.691C232.766,521.021 229.817,522.584 227.598,524.048C227.598,523.425 230.693,519.601 233.201,517.45C234.944,515.956 239.053,512.22 234.571,509.606C231.822,508.002 227.474,511.643 225.482,512.967C222.659,514.842 220.878,516.199 218.759,518.819C216.318,521.833 214.63,527.151 211.662,529.651C209.296,531.644 206.183,536.5 205.063,540.857z"/>
    <g id="imagebot_1056">
     <g id="imagebot_1057">
      <g id="imagebot_1058">
       <path id="imagebot_1059" fill="none" d="M205.063,540.857C204.827,542.824 204.722,541.494 204.285,543.464C203.536,546.841 202.107,550.571 204.938,552.935C207.268,554.878 212.17,556.066 215.895,555.3C221.374,557.417 226.072,558.048 230.089,554.552C233.185,551.859 235.941,549.572 237.31,546.585C240.423,545.339 252.589,546.167 253.123,543.597C254.493,536.997 247.645,537.37 238.182,538.242C242.166,531.644 254.151,533.203 253.123,525.793C252.723,522.914 250.135,522.805 247.769,523.551C251.753,521.061 252.878,515.957 246.773,515.582C242.425,515.316 238.693,517.6 235.069,519.691C232.766,521.021 229.817,522.584 227.598,524.048C227.972,523.8 229.279,521.059 234.322,516.827C236.081,515.35 239.053,512.22 234.571,509.606C231.822,508.002 227.474,511.643 225.482,512.967C222.659,514.842 220.878,516.199 218.759,518.819C216.318,521.833 214.63,527.151 211.662,529.651C209.296,531.644 206.183,536.5 205.063,540.857z"/>
       <path id="imagebot_1060" stroke="#000000" stroke-width="0.63653" stroke-miterlimit="4" d="M204.552,541.096C203.755,546.243 200.415,551.522 206.526,554.613C208.901,555.814 212.212,556.337 214.841,555.91C216.707,555.607 219.442,557.083 221.343,557.384C222.548,557.574 223.903,557.61 225.101,557.351C227.932,556.74 229.81,555.23 231.954,553.359C233.258,552.221 234.495,551.031 235.649,549.742C236.321,548.991 237.042,547.051 237.872,546.83C242.441,545.617 247.437,546.7 251.935,545.046C254.714,544.024 254.201,539.978 252.165,538.483C250.66,537.379 248.374,537.343 246.601,537.291C244.874,537.238 243.138,537.379 241.417,537.506C241.372,537.51 238.806,537.907 239.296,537.283C239.906,536.507 240.746,535.934 241.562,535.401C244.917,533.205 250.293,532.878 252.708,529.378C253.821,527.764 253.998,525.831 253.145,524.046C252.243,522.158 249.5,522.658 247.944,523.086C247.914,523.357 247.885,523.627 247.856,523.897C250.854,521.855 253.755,517.004 248.783,515.364C245.503,514.282 241.702,515.798 238.795,517.22C234.937,519.108 231.127,521.384 227.513,523.707C227.615,523.902 227.716,524.097 227.817,524.292C228.998,523.201 229.849,521.649 230.938,520.451C232.885,518.309 235.554,516.753 236.994,514.188C238.188,512.062 236.784,510.357 235.037,509.191C233.214,507.973 230.545,509.265 228.946,510.243C223.713,513.44 219.078,516.977 216.073,522.417C215.193,524.01 214.363,525.618 213.381,527.152C212.396,528.693 210.928,529.809 209.734,531.174C207.313,533.94 205.589,537.476 204.583,540.984C204.385,541.673 205.434,541.132 205.548,540.734C206.447,537.596 207.919,534.734 209.851,532.106C211.17,530.312 212.938,528.981 214.226,527.147C215.605,525.182 216.593,522.938 217.792,520.863C219.481,517.94 222.014,515.76 224.753,513.863C226.592,512.59 228.402,511.238 230.422,510.261C232.42,509.296 234.032,509.758 235.598,511.172C237.413,512.811 235.829,514.993 234.498,516.247C232.894,517.759 231.231,519.15 229.745,520.786C228.912,521.703 228.285,522.974 227.382,523.808C226.959,524.199 227.079,524.783 227.686,524.393C231.758,521.776 236.174,519.127 240.604,517.172C243.246,516.007 247.056,515.29 249.601,517.054C252.135,518.809 249.304,522.103 247.684,523.207C247.461,523.358 246.952,524.194 247.596,524.018C249.05,523.618 250.469,523.377 251.774,524.317C253.11,525.278 252.792,527.758 252.146,528.975C251.151,530.851 248.214,531.657 246.371,532.383C243.021,533.701 239.81,535.153 237.762,538.245C237.662,538.395 237.602,538.752 237.893,538.725C241.305,538.414 244.755,538.05 248.178,538.389C249.565,538.526 250.931,538.939 251.953,539.915C253.279,541.181 253.15,543.895 251.289,544.444C248.657,545.218 245.687,545.162 242.968,545.344C241.366,545.451 238.645,545.288 237.226,546.24C236.344,546.832 235.634,548.694 234.986,549.496C233.526,551.303 231.62,552.793 229.874,554.309C227.355,556.496 224.335,556.795 221.198,556.299C219.772,556.074 217.401,554.616 216.072,554.831C212.17,555.465 205.886,554.725 204.045,550.592C202.67,547.505 205.108,543.638 205.576,540.615C205.66,540.06 204.614,540.696 204.552,541.096z"/>
      </g>
     </g>
     <g id="imagebot_1061">
      <g id="imagebot_1062">
       <path id="imagebot_1063" fill="none" d="M218.385,533.884C220.353,533.497 224.268,537.894 225.046,539.611C225.721,541.103 227.099,546.634 225.358,547.955"/>
       <path id="imagebot_1064" d="M218.093,534.368C220.54,534.253 222.913,537.475 224.152,539.274C225.316,540.963 226.746,546.084 225.139,547.713C224.617,548.241 225.04,548.736 225.574,548.195C227.686,546.054 226.564,542.072 225.685,539.596C224.838,537.21 221.447,533.271 218.676,533.4C218.271,533.42 217.529,534.394 218.093,534.368L218.093,534.368z"/>
      </g>
     </g>
     <g id="imagebot_1065">
      <g id="imagebot_1066">
       <path id="imagebot_1067" fill="none" d="M217.14,529.777C221.994,529.789 227.062,530.007 231.124,533.095C233.218,534.687 236.138,537.181 237.186,539.613"/>
       <path id="imagebot_1068" d="M216.848,530.26C224.618,530.307 232.862,532.37 236.68,539.951C236.914,540.416 237.876,539.64 237.692,539.273C233.756,531.459 225.448,529.341 217.432,529.293C217.023,529.292 216.272,530.256 216.848,530.26L216.848,530.26z"/>
      </g>
     </g>
     <g id="imagebot_1069">
      <g id="imagebot_1070">
       <path id="imagebot_1071" fill="none" d="M247.52,523.8C247.52,523.8 242.634,525.724 240.298,526.911C237.815,528.173 234.693,530.462 232.454,532.141"/>
       <path id="imagebot_1072" stroke-width="0.63653" stroke-miterlimit="4" d="M247.566,523.38C241.996,525.581 237.181,528.2 232.367,531.798C231.895,532.151 231.864,532.99 232.54,532.486C237.248,528.967 242.024,526.373 247.472,524.22C247.918,524.044 248.328,523.08 247.566,523.38L247.566,523.38z"/>
      </g>
     </g>
     <g id="imagebot_1073">
      <g id="imagebot_1074">
       <path id="imagebot_1075" fill="none" d="M224.237,528.904C224.929,526.947 226.453,525.746 227.598,524.049"/>
       <path id="imagebot_1076" stroke-width="1.27307" stroke-miterlimit="4" d="M224.719,528.779C225.417,526.951 226.922,525.627 228.021,524.046C228.486,523.378 227.438,523.674 227.176,524.052C226.012,525.727 224.497,527.085 223.755,529.03C223.502,529.691 224.574,529.159 224.719,528.779L224.719,528.779z"/>
      </g>
     </g>
    </g>
    <g id="imagebot_1077">
     <g id="imagebot_1078">
      <path id="imagebot_1079" fill="#deaa87" d="M209.295,540.856C207.232,539.809 205.956,538.627 203.443,538.641C201.005,538.655 197.831,539.282 195.972,540.856C192.826,543.52 191.001,549.727 196.221,550.317C198.081,550.528 202.053,549.975 203.692,549.297C205.764,548.44 206.666,546.981 208.298,545.586"/>
     </g>
     <g id="imagebot_1080">
      <g id="imagebot_1081">
       <path id="imagebot_1082" fill="none" d="M209.295,540.856C207.232,539.809 205.956,538.627 203.443,538.641C201.005,538.655 197.831,539.282 195.972,540.856C192.826,543.52 191.001,549.727 196.221,550.317C198.081,550.528 202.053,549.975 203.692,549.297C205.764,548.44 206.666,546.981 208.298,545.586"/>
       <path id="imagebot_1083" stroke="#000000" stroke-width="0.63653" stroke-miterlimit="4" d="M209.686,540.388C207.706,539.328 206.027,538.283 203.736,538.158C201.551,538.04 199.232,538.684 197.277,539.603C194.587,540.868 192.72,543.971 192.431,546.857C192.075,550.407 195.625,550.96 198.331,550.78C200.041,550.667 202.087,550.466 203.647,549.717C205.608,548.776 206.924,547.265 208.517,545.827C209.076,545.323 208.641,544.841 208.082,545.345C207.034,546.289 206.095,547.349 204.971,548.207C203.526,549.311 201.353,549.53 199.617,549.745C197.236,550.041 194.149,550.128 193.493,547.254C192.672,543.651 196.373,540.515 199.316,539.629C203.045,538.508 205.693,539.605 208.905,541.323C209.277,541.523 210.134,540.628 209.686,540.388L209.686,540.388z"/>
      </g>
     </g>
    </g>
   </g>
   <g id="imagebot_1084" transform="matrix(0.61011024,0.2623315,-0.24099121,0.56047863,333.89163,365.3058)">
    <path id="imagebot_1085" clip-rule="nonzero" fill="#98b8e7" fill-rule="nonzero" stroke="#000000" stroke-width="3" stroke-linecap="round" stroke-linejoin="round" stroke-miterlimit="4" stroke-dashoffset="0" d="M-722.05988,351.27584C-696.75813,350.81686 -708.96979,353.31263 -708.95132,357.40632L-708.77194,397.16699C-708.72434,407.71848 -714.33707,411.72856 -720.80418,411.72856C-727.27129,411.72856 -732.0713,407.71848 -732.11891,397.16699L-732.29829,357.40632C-732.31839,352.95387 -745.20876,351.69577 -722.05988,351.27584z"/>
    <path id="imagebot_1086" clip-rule="nonzero" fill="#aad400" fill-rule="nonzero" stroke="#000000" stroke-width="0.53815" stroke-linecap="round" stroke-linejoin="round" stroke-miterlimit="4" stroke-dashoffset="0" d="M-731.25122,367.72092C-731.03933,381.25201 -731.55909,386.89746 -731.15262,400.42447C-730.74584,404.18548 -729.14775,408.32459 -725.49254,410.00264C-721.77915,411.65921 -717.08905,411.21848 -713.85634,408.71296C-711.42746,406.7309 -710.15244,403.62376 -709.68787,400.607C-709.67887,385.94999 -709.3106,379.18592 -709.3009,364.52891C-719.61667,362.12514 -723.98395,369.14299 -731.25124,367.72092L-731.25122,367.72092z"/>
   </g>
   <path id="imagebot_1087" fill="#aad400" fill-rule="evenodd" stroke="#000000" stroke-width="0.79825px" d="M-191.58625,370.17334L-191.58625,357.1924L-191.58625,313.38172C-177.77719,400.05782 -166.52239,267.07768 -161.39029,238.7413C-166.45133,367.46947 -104.32077,208.3472 -80.99289,170.15156C-94.71859,267.40757 -209.75434,355.79438 -87.57795,290.66507C-129.62011,316.19679 -164.16475,338.37613 -98.76164,318.24958C-123.69927,341.34772 -166.3008,344.37194 -189.34951,374.22988L-191.58625,370.17334z"/>
  </g>
 </g>
</svg>