<svg width="1048" height="1562" xmlns="http://www.w3.org/2000/svg">

 <metadata id="imagebot_656">image/svg+xml</metadata>
 <g id="imagebot_2" label="Layer 1">
  <title>Layer 1</title>
  <g id="imagebot_3" label="Layer 1" transform="translate(974.762 187.646) matrix(2.26573 0.345999 -0.334668 2.34245 160.08 -161.446)">
   <g id="imagebot_662" display="inline" transform="matrix(2.1253741,-1.1721827,1.2104523,2.1895129,-1104.2046,292.54714)">
    <path id="imagebot_663" fill="#2ca02c" fill-rule="nonzero" stroke="#000000" stroke-width="1.51746" stroke-linecap="round" stroke-linejoin="round" stroke-miterlimit="4" stroke-dashoffset="0" d="M292.05742,269.71344C292.76939,276.00228 290.58089,275.97157 293.31529,282.99776C297.08543,284.56376 304.39194,283.3233 307.81878,280.79483C306.77891,280.00317 301.76953,275.13072 301.64702,268.53716C298.04776,267.60859 293.972,268.57696 292.05742,269.71344z"/>
    <path id="imagebot_664" fill="#782121" stroke="#000000" stroke-width="1.51746" stroke-linecap="round" stroke-linejoin="round" stroke-miterlimit="4" stroke-dashoffset="0" d="M323.1013,289.49558C323.25659,281.67503 318.73045,283.51415 313.95747,281.62283C311.44347,280.62664 307.1985,279.46688 306.1272,275.68665C300.7284,282.07782 296.05537,278.41954 294.46639,277.03719C294.46639,277.03719 292.30129,275.39997 290.93821,276.10346C289.50969,278.97652 288.2425,283.29114 288.96409,287.28967C294.92333,288.10614 317.9021,290.19943 323.1013,289.49558z"/>
    <path id="imagebot_665" fill="#c36e6e" stroke="#000000" stroke-width="1.51746" stroke-linecap="round" stroke-linejoin="round" stroke-miterlimit="4" stroke-dashoffset="0" d="M299.64914,287.04433L288.65701,286.72543C287.14957,288.30746 286.98534,290.80273 289.23718,291.52209L297.95427,291.32115L299.45117,290.32339C302.51539,291.27192 322.30857,293.94519 323.51321,289.13194C322.99049,287.70233 319.05653,289.11564 313.92778,289.14314C309.06601,289.16914 302.65573,288.34891 299.64914,287.04435L299.64914,287.04433z"/>
    <path id="imagebot_666" fill="#c36e6e" stroke="#000000" stroke-width="1.51746" stroke-linecap="round" stroke-linejoin="round" stroke-miterlimit="4" stroke-dashoffset="0" d="M317.18384,282.50395C316.15857,282.29956 315.06466,282.06157 313.95747,281.62283C311.44347,280.62665 307.1985,279.46688 306.1272,275.68665C305.0346,276.8736 304.21699,278.4902 302.26051,278.65215C310.07007,288.02187 314.03935,287.44423 317.18384,282.50395z"/>
    <path id="imagebot_667" fill="none" fill-rule="nonzero" stroke="#000000" stroke-width="1.51746" stroke-linecap="round" stroke-linejoin="round" stroke-miterlimit="4" stroke-dashoffset="0" d="M306.66909,279.83627L309.9957,277.41691L312.01183,283.06208L314.7336,279.73547"/>
   </g>
   <path id="imagebot_668" fill="#782121" fill-rule="nonzero" stroke="#000000" stroke-width="2.76753" stroke-linecap="round" stroke-linejoin="round" stroke-miterlimit="4" stroke-dashoffset="0" d="M-172.34691,456.79133C-144.05974,474.49853 -138.71942,475.33506 -124.74556,527.10026C-125.35685,538.44715 -145.3643,547.10841 -158.66737,550.08705C-161.2569,498.1577 -155.99956,510.48494 -208.26949,477.63634"/>
   <path id="imagebot_669" fill="#782121" fill-rule="nonzero" stroke="#000000" stroke-width="3.28067px" stroke-linecap="round" stroke-linejoin="round" stroke-miterlimit="4" d="M-256.84153,431.30639C-262.23599,444.70603 -259.42622,461.52126 -251.33445,472.42479C-239.53399,488.97716 -219.41724,494.62601 -202.22286,489.37128C-188.73661,485.5617 -175.92471,474.13254 -171.65428,457.71156C-169.51874,449.04117 -169.74387,439.31989 -173.22746,431.30639C-201.09884,439.05718 -228.97015,441.15906 -256.84153,431.30639z"/>
   <g id="imagebot_670" display="inline" transform="matrix(0.2315286,1.7148174,-1.8549807,0.25045288,2125.3494,1805.156)">
    <path id="imagebot_671" fill="#2ca02c" fill-rule="nonzero" stroke="#000000" stroke-width="2" stroke-linecap="round" stroke-linejoin="round" stroke-miterlimit="4" stroke-dashoffset="0" d="M-921.21411,1178.8735C-924.30627,1186.6208 -926.82878,1185.2213 -928.03162,1195.0853C-924.62901,1199.2534 -915.37045,1202.3659 -909.81498,1201.565C-910.5293,1199.9975 -913.31069,1191.2172 -909.34405,1183.4833C-912.94545,1180.1619 -918.28235,1178.7467 -921.21411,1178.8735z"/>
    <path id="imagebot_672" fill="#782121" stroke="#000000" stroke-width="2" stroke-linecap="round" stroke-linejoin="round" stroke-miterlimit="4" stroke-dashoffset="0" d="M-893.9131,1218.5846C-890.06646,1205.6706 -902.7696,1209.7107 -908.41575,1206.6616C-911.55181,1204.9681 -908.82337,1198.793 -908.37675,1193.6337C-918.01708,1198.9865 -922.06598,1192.2941 -923.37803,1189.8479C-923.37803,1189.8479 -925.28093,1186.8183 -927.28954,1187.0482C-930.39278,1189.9211 -933.97102,1194.6459 -934.95065,1199.9107C-929.82084,1206.7561 -905.43794,1225.003 -893.91315,1218.5846L-893.9131,1218.5846z"/>
    <path id="imagebot_673" fill="#c36e6e" stroke="#000000" stroke-width="2" stroke-linecap="round" stroke-linejoin="round" stroke-miterlimit="4" stroke-dashoffset="0" d="M-921.39065,1205.9989L-934.41819,1199.6468C-937.08762,1200.7281 -938.63987,1203.6355 -936.32622,1205.7223L-925.74841,1210.2144L-923.40891,1209.829C-920.24413,1212.6321 -916.4306,1225.177 -893.43871,1218.7978C-893.29016,1215.0687 -899.69082,1217.341 -907.87396,1216.8955C-915.88998,1216.4591 -918.48829,1209.198 -921.39057,1205.9987L-921.39065,1205.9989z"/>
    <path id="imagebot_674" fill="#c36e6e" stroke="#000000" stroke-width="2" stroke-linecap="round" stroke-linejoin="round" stroke-miterlimit="4" stroke-dashoffset="0" d="M-900.50294,1208.6171C-901.68131,1208.3252 -903.2687,1208.3877 -904.0251,1207.3849C-907.17576,1203.2079 -909.86494,1198.5611 -908.30866,1193.5558C-910.66227,1195.0959 -912.12856,1196.128 -914.80855,1196.2983C-913.45146,1206.3331 -908.46789,1215.0582 -900.50294,1208.6171z"/>
    <path id="imagebot_675" fill="none" fill-rule="nonzero" stroke="#000000" stroke-width="1.87297" stroke-linecap="round" stroke-linejoin="round" stroke-miterlimit="4" stroke-dashoffset="0" d="M-910.557,1199.4422L-904.43747,1199.9107L-909.54295,1205.4092L-902.86645,1204.8047"/>
   </g>
   <path id="imagebot_676" fill="#782121" fill-rule="nonzero" stroke="#000000" stroke-width="2.64206" stroke-linecap="round" stroke-linejoin="round" stroke-miterlimit="4" stroke-dashoffset="0" d="M-252.99377,463.69161C-252.27515,504.28563 -241.91442,508.50216 -284.67573,510.47305C-287.78833,519.30443 -295.05896,529.94034 -287.6975,547.90402C-239.19035,550.56853 -214.24904,533.86295 -215.41285,471.2794"/>
   <g id="imagebot_677" display="inline" fill="#ff754f" stroke-width="1.4032" stroke-miterlimit="4" transform="matrix(1.870502,1.4993243,1.1925466,-1.4877774,415.77877,670.74244)">
    <path id="imagebot_678" fill="#ffd5d5" stroke="#000000" stroke-width="1.4032" stroke-linecap="round" stroke-linejoin="round" stroke-miterlimit="4" stroke-dashoffset="0" d="M-297.33326,-114.31482L-298.15556,-119.28943C-295.46306,-120.13697 -293.13926,-122.10029 -291.93676,-124.89685C-289.74516,-129.99359 -289.34646,-135.29441 -294.34696,-137.69763C-295.29766,-138.15454 -296.68786,-139.11488 -298.11846,-136.75427C-298.39456,-137.66574 -299.58946,-138.4888 -300.68286,-138.5199C-301.53326,-138.5441 -302.32106,-138.08982 -302.56766,-136.82263C-303.39966,-139.07607 -306.38416,-137.94057 -306.67306,-135.28357C-307.20626,-137.14646 -309.49676,-134.99716 -310.39376,-132.8324C-312.40766,-127.97243 -310.45076,-122.43913 -305.89766,-120.01013L-307.31566,-115.20544"/>
    <path id="imagebot_679" fill="#ffd5d5" fill-rule="nonzero" stroke="#000000" stroke-width="1.4032" stroke-linecap="round" stroke-linejoin="round" stroke-miterlimit="4" stroke-dashoffset="0" d="M-301.51302,-127.86767C-299.04342,-124.36127 -294.74698,-129.20267 -297.92343,-136.80612"/>
    <path id="imagebot_680" fill="#ffd5d5" stroke="#000000" stroke-width="1.4032" stroke-linecap="round" stroke-linejoin="round" stroke-miterlimit="4" stroke-dashoffset="0" d="M-293.59572,-126.88149C-300.37988,-122.99492 -303.50678,-126.59613 -301.03141,-129.80418C-298.94454,-132.50874 -290.16839,-134.21108 -288.49886,-132.08263C-286.20566,-129.15909 -290.52897,-121.12702 -296.11476,-121.25874"/>
    <path id="imagebot_681" fill="#ffd5d5" fill-rule="nonzero" stroke="#000000" stroke-width="1.4032" stroke-linecap="round" stroke-linejoin="round" stroke-miterlimit="4" stroke-dashoffset="0" d="M-310.35855,-126.51312C-307.88895,-123.00672 -303.59251,-127.84812 -306.76895,-135.45158"/>
    <path id="imagebot_682" fill="#ffd5d5" fill-rule="nonzero" stroke="#000000" stroke-width="1.4032" stroke-linecap="round" stroke-linejoin="round" stroke-miterlimit="4" stroke-dashoffset="0" d="M-306.20528,-127.04878C-303.89908,-123.43283 -299.38513,-128.07211 -302.20957,-135.81323"/>
   </g>
   <g id="imagebot_683" transform="matrix(-0.16658166,0.98602766,-0.98602766,-0.16658166,763.03754,28.836435)">
    <g id="imagebot_684">
     <path id="imagebot_685" fill="#536c67" fill-rule="evenodd" stroke="#000000" stroke-width="3" stroke-miterlimit="4" d="M476.56655,893.41457C471.942,893.50517 467.04869,895.5818 462.46694,899.84621C451.59059,908.02823 453.01956,960.72208 457.50446,969.73873C458.47702,971.69403 459.28328,973.74276 461.01968,974.46343C485.99373,984.82867 506.82701,986.07927 526.1271,985.01616C537.4662,981.34392 538.1329,968.33406 530.2853,963.39312C518.74265,958.66274 508.25005,953.25601 493.52554,947.73101C496.03482,934.72645 498.23482,916.23216 491.83413,902.49663"/>
     <g id="imagebot_686" display="inline" fill="#d6d675" stroke-width="4.2569" stroke-miterlimit="4" transform="matrix(-0.18127907,0.61318648,-0.68161914,-0.13609813,759.28525,-161.37437)">
      <g id="imagebot_687" fill="#d6d675" stroke-width="4.2569" stroke-miterlimit="4">
       <g id="imagebot_688" fill="#d6d675" stroke-width="4.2569" stroke-miterlimit="4">
        <path id="imagebot_689" fill="#536c67" fill-rule="evenodd" stroke="#000000" stroke-width="4.2569" stroke-linecap="round" stroke-linejoin="round" stroke-miterlimit="4" d="M1793.709,-148.85096C1795.5455,-159.59973 1837.2788,-165.40117 1847.7519,-149.07807C1847.9558,-141.03248 1845.0587,-129.68271 1846.6971,-115.86492C1815.736,-125.76432 1805.9941,-119.9359 1794.1016,-116.53081C1794.5488,-129.98855 1792.3772,-139.84606 1793.709,-148.85096z"/>
       </g>
      </g>
     </g>
    </g>
   </g>
   <g id="imagebot_690" transform="matrix(0.98625318,0.16524122,-0.16524122,0.98625318,-874.89811,74.240453)">
    <g id="imagebot_691" transform="matrix(0.9201026,0,0,1.0006719,169.8849,26.502644)">
     <g id="imagebot_692" fill="#ffccaa" transform="matrix(1.501873,0,0,0.85340026,2813.3321,-1621.6412)">
      <path id="imagebot_693" fill="#2ca02c" fill-rule="nonzero" stroke="#000000" stroke-width="2.64989" stroke-linecap="round" stroke-linejoin="round" stroke-miterlimit="4" stroke-dashoffset="0" d="M-1455.6945,2173.6612C-1466.8276,2187.3697 -1492.9382,2188.0475 -1504.8995,2174.8397C-1521.2373,2148.861 -1505.7878,2131.9813 -1509.7376,2093.755C-1511.6407,2075.3363 -1517.4889,2047.2208 -1504.3102,2035.39C-1491.1314,2023.5591 -1467.6193,2033.0416 -1459.5128,2051.7717C-1449.4474,2075.0282 -1435.1185,2148.2434 -1455.6945,2173.6612z"/>
      <path id="imagebot_694" fill="#ffd5d5" fill-rule="nonzero" stroke="#000000" stroke-width="2.64989" stroke-linecap="round" stroke-linejoin="round" stroke-miterlimit="4" stroke-dashoffset="0" d="M-1492.9161,2033.2534L-1492.9161,2001.0447C-1492.9161,1999.1173 -1489.014,1997.5657 -1484.1667,1997.5657C-1479.3196,1997.5657 -1472.5228,1999.1173 -1472.5228,2001.0447L-1472.5228,2033.2534C-1471.6526,2045.6461 -1483.3456,2041.059 -1492.9161,2033.2534z"/>
     </g>
     <g id="imagebot_695" transform="matrix(0.95988051,0,0,1.0004227,186.3181,213.20826)">
      <path id="imagebot_696" fill="#536c67" fill-rule="evenodd" stroke="#000000" stroke-width="2.91639" stroke-linecap="round" stroke-linejoin="round" stroke-miterlimit="4" d="M359.83885,26.59051C386.61556,27.72664 380.32833,35.99781 432.06764,29.47507C458.93912,24.82345 468.65217,18.39853 473.9217,3.99474C475.38087,-2.03306 477.19342,-7.70748 476.19067,-16.19721C460.23117,-38.00412 467.31454,-64.86585 432.72247,-91.90703C428.61276,-96.78123 417.52473,-87.25004 400.53761,-105.70062L388.80436,-102.75477L391.60716,-95.54451C386.67547,-104.09769 371.46323,-98.20361 368.46095,-87.28794C360.62196,-70.34325 382.89147,-36.11701 359.83885,26.5905L359.83885,26.59051z"/>
      <path id="imagebot_697" fill="none" fill-rule="evenodd" stroke="#000000" stroke-width="2.91639" stroke-linecap="round" stroke-linejoin="round" stroke-miterlimit="4" d="M389.73773,-101.85512C397.10205,-81.41066 404.71244,-71.03855 440.39976,-66.19633C434.67676,-63.73942 425.63119,-59.54418 417.6512,-61.86948C441.90035,-35.18904 457.41515,-27.74986 475.73688,-15.23568"/>
      <ellipse id="imagebot_698" clip-rule="nonzero" fill="#536c67" fill-rule="nonzero" stroke="#000000" stroke-width="2.91639" stroke-linecap="round" stroke-linejoin="round" stroke-miterlimit="4" stroke-dashoffset="0" ry="3.36533" rx="3.17656" cy="-11.87035" cx="468.02237"/>
      <ellipse id="imagebot_699" clip-rule="nonzero" fill="#536c67" fill-rule="nonzero" stroke="#000000" stroke-width="2.91639" stroke-linecap="round" stroke-linejoin="round" stroke-miterlimit="4" stroke-dashoffset="0" ry="3.36533" rx="3.17656" cy="-1.29363" cx="467.56857"/>
     </g>
    </g>
   </g>
   <g id="imagebot_700" transform="matrix(0.98992908,-0.14156416,0.14156416,0.98992908,-34.144651,-26.002057)">
    <g id="imagebot_701" transform="translate(-2.6607897,199.74303)">
     <path id="imagebot_702" fill="#ffd5d5" stroke="#000000" stroke-width="4.32718" stroke-linecap="round" stroke-linejoin="round" stroke-miterlimit="4" d="M-184.0128,113.94651C-231.63953,112.19273 -235.51237,115.27944 -258.52342,64.33197C-258.52342,64.33197 -281.16685,55.08914 -281.19534,39.17682C-281.26914,-2.15999 -283.94715,-35.06707 -197.1391,-35.83182C-135.44988,-36.37537 -121.08778,-14.56429 -122.04128,38.93766C-123.65877,120.17429 -152.01014,115.1248 -184.0128,113.94651z"/>
     <path id="imagebot_703" fill="#ffd5d5" fill-rule="evenodd" stroke="#000000" stroke-width="4.32718" stroke-linecap="round" stroke-linejoin="round" stroke-miterlimit="4" d="M-129.50607,14.60383C-102.89479,30.54588 -96.46594,64.41428 -106.22453,72.96668C-115.4035,81.38308 -130.21418,78.32144 -131.28034,68.09046"/>
     <path id="imagebot_704" fill="#524541" stroke="#000000" stroke-width="4.327" stroke-linecap="round" stroke-linejoin="round" stroke-miterlimit="4" d="M-169.14755,-3.85143C-167.45621,-0.68263 -160.08273,13.66005 -163.97688,22.77442C-167.93812,21.56884 -169.23807,17.86115 -172.98621,15.88462C-176.40414,14.07603 -175.98067,25.02317 -179.62057,28.76015C-182.83109,32.05696 -192.70529,29.88852 -189.62306,39.16285C-198.05412,37.9972 -180.29238,54.78032 -196.60225,58.3387C-196.76261,56.06066 -208.4191,52.33988 -209.54962,52.87855C-212.89454,54.47637 -218.00087,37.08559 -220.86092,39.24604C-225.41507,42.6844 -222.41217,62.87059 -225.4503,59.65631C-227.01927,57.9946 -227.95989,53.31073 -230.54228,57.46657C-232.48492,60.58723 -228.13502,74.11901 -228.85663,80.18195C-229.70378,87.24791 -231.3485,93.86549 -233.00207,92.67322C-235.56695,90.83002 -234.27565,95.47662 -235.49099,97.5947C-237.50663,101.11026 -244.26949,104.56459 -245.85576,98.73083C-246.6854,95.67673 -247.7254,118.09083 -250.00121,115.38593C-254.14665,110.46202 -260.36619,108.19485 -265.33811,83.21209C-265.51957,83.24981 -265.70609,99.64045 -274.45843,82.83071C-276.47703,78.94953 -277.3592,62.39315 -283.57874,69.58446C-283.18144,61.1929 -281.89309,43.47599 -282.58854,39.02152C-284.7561,39.02152 -290.1517,41.09146 -292.40409,41.38209C-292.68155,35.80991 -282.81051,17.06091 -283.28947,8.64007C-284.37336,8.80868 -288.54496,12.40367 -289.48263,13.08388C-289.84787,8.40002 -277.6105,-17.64966 -289.86538,-11.60536C-289.82108,-16.91354 -279.46832,-25.23854 -276.62304,-29.74625C-270.59635,-39.28215 -263.83666,-41.33877 -253.14758,-46.3481C-243.884,-50.68787 -242.55768,-51.15732 -232.52881,-53.6621C-227.29673,-54.9664 -222.4415,-58.44203 -217.51325,-59.45303C-217.11869,-53.06197 -214.74076,-49.93045 -209.38589,-55.33713C-204.46946,-60.29854 -199.24013,-64.753 -183.55839,-65.71076C-183.73985,-61.55226 -189.10021,-57.07627 -184.16606,-57.55903C-180.70424,-57.90047 -177.65155,-59.77295 -174.43512,-61.01869C-169.9831,-62.74186 -165.11604,-63.72868 -160.72542,-65.53194C-161.64853,-63.64881 -161.46159,-61.42691 -161.742,-59.42375C-162.11884,-56.66295 -163.88636,-54.12889 -164.15496,-51.54424C-154.54977,-52.93396 -145.53748,-54.92913 -135.35079,-52.36844C-131.15281,-51.31218 -125.06767,-48.78876 -121.53876,-46.33479C-125.38311,-47.09776 -130.98633,-46.23274 -134.72265,-44.93709C-128.97638,-39.26351 -115.61124,-35.79321 -108.8104,-3.638C-109.43854,-5.30504 -114.0045,-10.81866 -116.02627,-10.3492C-125.27803,-11.90687 -117.89295,-6.75333 -117.97461,-3.23777C-128.68415,-9.6823 -118.37487,0.28046 -118.16239,5.22833C-117.99782,9.05871 -130.09023,-0.99989 -129.1437,1.32607C-127.99271,4.15876 -125.71416,8.72282 -124.10152,14.60694C-123.50841,16.76229 -156.2945,-11.79749 -169.1484,-3.85143L-169.14755,-3.85143z"/>
     <path id="imagebot_705" fill="#ffd5d5" fill-rule="evenodd" stroke="#000000" stroke-width="4.32718" stroke-linecap="round" stroke-linejoin="round" stroke-miterlimit="4" d="M-218.74769,41.81715C-223.7032,33.67978 -236.43448,20.5194 -242.00548,33.15215C-253.25469,73.15489 -239.3211,82.62914 -218.50014,65.47153"/>
     <path id="imagebot_706" fill="#ffccaa" fill-rule="evenodd" stroke="#000000" stroke-width="3.32983" stroke-linecap="round" stroke-linejoin="round" stroke-miterlimit="4" d="M-237.71868,43.88429C-231.74557,35.46166 -227.64583,52.01992 -226.42165,56.47028"/>
     <path id="imagebot_707" fill="#ffd5d5" fill-rule="nonzero" stroke="#000000" stroke-width="3.73994" stroke-linecap="round" stroke-linejoin="round" stroke-miterlimit="4" stroke-dashoffset="0" d="M-158.01313,112.22401C-156.71147,118.1931 -154.97126,122.62361 -146.27004,119.3867C-134.81745,115.12547 -136.93069,106.11404 -139.17276,100.63948"/>
     <g id="imagebot_708" display="inline" transform="matrix(0.59382235,0,0,0.63970533,-801.31163,307.07125)">
      <g id="imagebot_709">
       <circle id="imagebot_710" fill="#339783" stroke="#000000" stroke-width="2.62955" stroke-miterlimit="4" r="14.97225" cy="-429.5611" cx="1104.5081"/>
       <circle id="imagebot_711" stroke-width="0.55323" stroke-miterlimit="4" r="6.41668" cy="-429.55646" cx="1104.5081"/>
       <circle id="imagebot_712" fill="#ffffff" stroke-width="0.55323" stroke-miterlimit="4" r="2.81859" cy="-428.13522" cx="1106.6516"/>
      </g>
     </g>
    </g>
    <path id="imagebot_713" fill="#ffffff" stroke="#000000" stroke-width="2" stroke-linecap="round" stroke-linejoin="round" stroke-miterlimit="4" d="M-154.93987,247.77661C-168.82235,247.78821 -173.22496,239.97746 -173.24766,231.72606C-173.26936,223.47349 -163.6694,217.46006 -149.78583,217.44141C-135.90335,217.41811 -122.71931,231.10012 -122.53984,238.29897C-122.53984,243.64916 -141.05739,247.76961 -154.93987,247.77661z"/>
    <g id="imagebot_714" transform="matrix(0.74278268,0,0,1.0116307,-459.90083,279.4014)">
     <ellipse id="imagebot_715" fill="#339783" stroke="#000000" stroke-width="1.63968" stroke-miterlimit="4" cy="-46.77622" cx="426.63525" rx="9.28646" ry="9.38595"/>
     <ellipse id="imagebot_716" stroke-width="0.55323" stroke-miterlimit="4" cy="-46.77331" cx="426.63525" rx="3.97991" ry="4.02255"/>
     <ellipse id="imagebot_717" fill="#ffffff" stroke-width="0.55323" stroke-miterlimit="4" cy="-45.88241" cx="427.96478" rx="1.74821" ry="1.76694"/>
    </g>
    <path id="imagebot_718" fill="#ffd5d5" fill-rule="evenodd" stroke="#000000" stroke-width="2" stroke-linecap="round" stroke-linejoin="round" stroke-miterlimit="4" d="M-130.69951,214.10809C-141.24041,213.088 -154.9496,215.66543 -163.95051,217.21442C-171.26204,220.93128 -174.70139,226.25186 -178.72341,233.35605C-178.12055,234.62917 -177.47364,235.88028 -176.80895,237.11275C-173.48989,233.98742 -169.60313,231.42974 -163.93534,229.47798C-151.99726,228.33416 -133.8749,226.39165 -119.78693,227.75967C-121.71462,223.35723 -123.874,219.06863 -126.39897,214.77889C-127.75245,214.47275 -129.19368,214.25382 -130.69951,214.10809z"/>
    <path id="imagebot_719" fill="#524541" stroke="#000000" stroke-width="2" stroke-miterlimit="4" d="M-166.06739,217.94843C-166.04439,216.64395 -166.13009,215.39355 -166.23256,214.04132C-166.49683,210.64461 -168.45839,206.1274 -167.0927,205.87358C-162.95801,205.10546 -158.76791,204.67063 -154.61606,205.38497C-148.96326,206.3628 -144.57015,206.6958 -138.99993,208.36862C-134.83932,209.61599 -131.8399,209.96198 -128.00084,210.03512C-127.2398,210.03512 -123.70495,209.30839 -123.01395,209.8931C-122.16823,210.60714 -123.05785,212.70875 -123.01395,213.91774C-122.9115,216.89536 -122.66918,221.08531 -123.01395,223.9076C-123.18539,225.3266 -131.92416,221.57753 -132.76987,221.39683C-135.48431,220.80941 -139.77582,220.19691 -142.51117,219.74576C-148.17484,218.81566 -150.367,218.49868 -156.92447,218.35908C-158.31567,218.32588 -161.02781,218.48602 -162.37865,219.19067C-163.59423,219.82553 -166.50101,224.59655 -166.12864,219.4475C-166.09104,218.93351 -166.07644,218.43825 -166.06804,217.94602L-166.06739,217.94843z"/>
    <g id="imagebot_720" stroke-width="3.47948" stroke-miterlimit="4" transform="matrix(0.56527422,0.07974727,-0.12780903,0.55588051,-528.31038,-9.2716579)">
     <path id="imagebot_721" fill="#ffd5d5" stroke="#000000" stroke-width="3.47948" stroke-linecap="round" stroke-linejoin="round" stroke-miterlimit="4" d="M778.30321,433.76075C787.7385,430.58876 782.63602,426.12351 779.00085,426.12351"/>
     <path id="imagebot_722" fill="#550000" fill-rule="nonzero" stroke-width="3.47948" stroke-miterlimit="4" d="M799.0893,415.69482C799.54334,420.31137 799.31686,421.57043 785.45786,423.03935C743.42682,432.27236 733.65746,435.83964 738.42858,416.95388L799.0893,415.69482z"/>
     <path id="imagebot_723" fill="none" stroke="#000000" stroke-width="3.47948" stroke-linecap="round" stroke-linejoin="round" stroke-miterlimit="4" d="M799.0893,415.69482C799.54334,420.31137 799.31686,421.57043 785.45786,423.03935C743.42682,432.27236 733.65746,435.83964 738.42858,416.95388"/>
     <path id="imagebot_724" fill="#ffffff" fill-rule="nonzero" stroke-width="3.47948" stroke-miterlimit="4" d="M797.04454,414.64595C802.27012,431.64284 756.37689,428.70509 751.15141,416.7441L797.04454,414.64595z"/>
     <path id="imagebot_725" fill="none" stroke="#000000" stroke-width="3.47948" stroke-linecap="round" stroke-linejoin="round" stroke-miterlimit="4" d="M797.04454,414.64595C802.27012,431.64284 756.37689,428.70509 751.15141,416.7441"/>
     <path id="imagebot_726" fill="#ffd5d5" stroke="#000000" stroke-width="3.47948" stroke-linecap="round" stroke-linejoin="round" stroke-miterlimit="4" d="M782.7315,408.35069C788.41144,397.22901 801.3613,401.63569 803.17883,412.12784C785.0035,419.68186 767.73656,420.52126 736.61094,414.01642"/>
    </g>
   </g>
   <g id="imagebot_727" transform="matrix(0.33751442,-0.94132036,-0.96728235,-0.26510698,-71.891272,1763.1978)">
    <path id="imagebot_728" fill="#ffd5d5" stroke="#000000" stroke-width="2.74625" stroke-linecap="round" stroke-linejoin="round" stroke-miterlimit="4" stroke-dashoffset="0" d="M1287.8286,520.62221L1287.0253,510.3106C1294.7414,507.91398 1300.5615,500.35881 1296.0472,492.35606C1285.4196,473.51558 1297.1339,470.00007 1280.4621,470.24317C1269.6961,470.40013 1261.3018,468.54347 1262.0458,490.55198C1262.3167,498.56327 1265.6562,504.39082 1271.5559,507.91517L1267.8562,516.46763"/>
    <path id="imagebot_729" fill="#ffd5d5" stroke="#000000" stroke-width="3" stroke-linecap="round" stroke-linejoin="round" stroke-miterlimit="4" stroke-dashoffset="0" d="M1268.7046,474.79616C1267.4084,467.13291 1255.4774,460.34639 1252.0339,466.66383C1249.8716,470.63074 1263.6825,474.9489 1262.3303,483.81649"/>
    <path id="imagebot_730" fill="#ffd5d5" stroke="#000000" stroke-width="3" stroke-linecap="round" stroke-linejoin="round" stroke-miterlimit="4" stroke-dashoffset="0" d="M1277.0666,481.81695C1279.3351,471.58091 1266.3956,453.35163 1258.457,457.31535C1249.4778,461.79868 1270.2803,470.56106 1266.2561,482.50699"/>
    <path id="imagebot_731" fill="#ffd5d5" stroke="#000000" stroke-width="3" stroke-linecap="round" stroke-linejoin="round" stroke-miterlimit="4" stroke-dashoffset="0" d="M1283.1018,480.69389C1285.5545,471.76829 1278.8086,445.30692 1267.1047,449.05071C1254.4027,453.11375 1276.5812,468.59298 1273.6314,484.85362"/>
    <path id="imagebot_732" fill="#ffd5d5" stroke="#000000" stroke-width="3" stroke-linecap="round" stroke-linejoin="round" stroke-miterlimit="4" stroke-dashoffset="0" d="M1292.1738,482.90961C1289.6559,473.26688 1289.1953,451.82929 1277.4392,450.18588C1266.3428,448.63472 1279.6898,469.17122 1281.0975,482.23476"/>
    <path id="imagebot_733" fill="#ffd5d5" stroke="#000000" stroke-width="3" stroke-linecap="round" stroke-linejoin="round" stroke-miterlimit="4" stroke-dashoffset="0" d="M1296.1201,503.1383C1302.7151,494.21557 1313.289,492.56526 1311.1041,486.22316C1307.7914,476.60757 1297.6045,482.82998 1290.5802,493.8529"/>
   </g>
   <g id="imagebot_734" display="inline" fill="#d6d675" stroke-width="4.2569" stroke-miterlimit="4" transform="matrix(-0.2016875,0.65034429,-0.63927034,-0.13330307,134.15446,-780.38633)">
    <g id="imagebot_735" fill="#d6d675" stroke-width="4.2569" stroke-miterlimit="4">
     <g id="imagebot_736" fill="#d6d675" stroke-width="4.2569" stroke-miterlimit="4">
      <g id="imagebot_737">
       <path id="imagebot_738" fill="#536c67" fill-rule="evenodd" stroke="#000000" stroke-width="3" stroke-linecap="round" stroke-miterlimit="4" d="M203.52449,876.3331C198.89994,876.4237 194.00662,878.50228 189.42488,882.76669C178.54853,890.94871 179.46287,943.55836 183.46394,952.79989C190.94106,970.37238 220.01402,993.11538 235.46394,1001.878C247.00643,1004.8498 254.53864,994.22036 250.55769,985.84482C241.18151,972.61827 233.90307,959.37088 218.29207,940.93466C220.76504,929.72863 227.21385,903.4836 218.79402,885.41513" transform="matrix(-1.0027245,-1.0239486,1.0821733,-1.1479987,989.2762,1244.0335)"/>
       <path id="imagebot_739" fill="#536c67" fill-rule="evenodd" stroke="#000000" stroke-width="4.2569" stroke-linecap="round" stroke-linejoin="round" stroke-miterlimit="4" d="M1793.709,-148.85096C1795.5455,-159.59973 1837.2093,-163.50116 1844.7513,-154.11318C1849.6447,-146.34661 1847.5101,-129.82857 1846.6971,-115.86492C1815.736,-125.76432 1805.9941,-119.9359 1794.1016,-116.53081C1794.5488,-129.98855 1792.3772,-139.84606 1793.709,-148.85096z"/>
      </g>
     </g>
    </g>
   </g>
  </g>
 </g>
</svg>