<svg width="1297" height="1218" xmlns="http://www.w3.org/2000/svg">

 <metadata id="imagebot_857">image/svg+xml</metadata>
 <g id="imagebot_2" label="Layer 1">
  <title>Layer 1</title>
  <g id="imagebot_3" label="Layer 1" transform="translate(-88.501 100.708) matrix(2.10663 0 0 2.10663 1098.53 -468.373)">
   <g id="imagebot_884" transform="matrix(0.88942833,-0.45707466,0.45707466,0.88942833,-213.3043,-12.816567)">
    <g id="imagebot_885" display="inline" fill="#90a0fe" stroke-width="1.55561" stroke-miterlimit="4" transform="matrix(0.83426016,-1.3129307,-1.278356,-0.64224781,282.8058,79.599128)">
     <path id="imagebot_886" fill="#a05a2c" stroke="#000000" stroke-width="1.55561" stroke-linecap="round" stroke-linejoin="round" stroke-miterlimit="4" stroke-dashoffset="0" d="M-342.21314,62.36055L-342.10574,56.97969C-338.12744,55.72867 -334.84224,51.7862 -336.70534,47.61055C-341.09184,37.77911 -335.05954,35.94463 -343.41234,36.07149C-348.80664,36.15339 -352.91254,35.18454 -353.62724,46.66914C-353.88734,50.84971 -352.50454,53.89061 -349.72684,55.72969L-351.30504,60.19258"/>
     <path id="imagebot_887" fill="#a05a2c" stroke="#000000" stroke-width="1.55561" stroke-linecap="round" stroke-linejoin="round" stroke-miterlimit="4" stroke-dashoffset="0" d="M-350.42499,41.83336C-350.96566,37.81432 -355.94264,34.25509 -357.3791,37.56831C-358.28109,39.64878 -352.51993,41.91346 -353.08398,46.56413"/>
     <path id="imagebot_888" fill="#a05a2c" stroke="#000000" stroke-width="1.55561" stroke-linecap="round" stroke-linejoin="round" stroke-miterlimit="4" stroke-dashoffset="0" d="M-346.02253,41.53273C-345.68597,36.05042 -352.0992,27.53908 -355.14539,30.18261C-358.59088,33.17267 -349.48546,36.18856 -350.44685,42.68818"/>
     <path id="imagebot_889" fill="#a05a2c" stroke="#000000" stroke-width="1.55561" stroke-linecap="round" stroke-linejoin="round" stroke-miterlimit="4" stroke-dashoffset="0" d="M-342.36689,41.31414C-341.34378,36.63305 -344.15781,22.75523 -349.04006,24.71868C-354.33863,26.84957 -345.08696,34.96775 -346.31745,43.49573"/>
     <path id="imagebot_890" fill="#a05a2c" stroke="#000000" stroke-width="1.55561" stroke-linecap="round" stroke-linejoin="round" stroke-miterlimit="4" stroke-dashoffset="0" d="M-338.50721,42.6482C-338.23274,37.59102 -335.47948,26.34794 -340.15775,25.48605C-344.57343,24.67253 -341.82735,35.44302 -343.03496,42.29427"/>
     <path id="imagebot_891" fill="#a05a2c" stroke="#000000" stroke-width="1.55561" stroke-linecap="round" stroke-linejoin="round" stroke-miterlimit="4" stroke-dashoffset="0" d="M-338.81272,53.3533C-334.19398,53.72913 -331.22788,57.92387 -329.49652,55.16017C-326.8715,50.96997 -331.35398,48.24362 -336.80637,48.27457"/>
     <path id="imagebot_892" fill="#a05a2c" fill-rule="nonzero" stroke="#000000" stroke-width="1.55561" stroke-linecap="round" stroke-linejoin="round" stroke-miterlimit="4" stroke-dashoffset="0" d="M-348.12883,50.9608C-346.69309,49.10337 -344.57938,47.52379 -341.48396,46.34658L-348.89075,47.52535"/>
    </g>
    <g id="imagebot_893" transform="translate(-455.16726,-499.74034)">
     <g id="imagebot_894" fill="#ffdd55" stroke-width="10.03982" stroke-miterlimit="4" transform="matrix(-0.08469345,0.2206714,-0.29901392,-0.06586672,485.88125,582.73373)">
      <path id="imagebot_895" fill="#d4aa00" fill-rule="evenodd" stroke="#000000" stroke-width="10.03982" stroke-miterlimit="4" d="M1799.6768,-149.70928C1826.1966,-159.14098 1857.2614,-145.20834 1857.2614,-145.20834C1857.2614,-145.20834 1847.2871,-124.44664 1848.9098,-112.75729C1835.2883,-104.18073 1812.4958,-106.22575 1795.0265,-115.54225C1798.0062,-130.61505 1795.0675,-133.4998 1799.6768,-149.70928z"/>
     </g>
     <path id="imagebot_896" fill="#5d6c53" stroke="#000000" stroke-width="3.22207" stroke-linecap="round" stroke-linejoin="round" stroke-miterlimit="4" d="M317.66819,903.59982C327.2128,903.92637 329.19174,915.02283 329.04191,923.62379C328.76696,939.41073 326.12646,948.80617 327.81599,965.99392C328.70203,975.00739 321.36268,985.45721 313.15045,977.10105C310.78362,973.07632 308.87123,968.07838 308.7448,965.70865C307.65059,945.21532 308.22681,936.67421 307.48167,920.8065C307.17176,914.20935 311.1413,903.37651 317.66819,903.59982z"/>
     <g id="imagebot_897" fill="#916f8a" transform="matrix(0.4588736,-0.16691127,0.32113838,0.41761485,-289.20257,964.56501)">
      <path id="imagebot_898" fill="#5d6c53" stroke="#000000" stroke-width="0" stroke-linecap="round" stroke-linejoin="round" stroke-miterlimit="4" d="M1081.4618,510.83024C1066.144,518.27591 1054.7182,498.78834 1044.6312,486.36421C1036.9608,476.9166 1033.2596,473.75012 1028.285,466.83419C1019.3837,454.45879 1010.8794,442.14135 1010.2517,433.47145C1009.629,424.87389 1021.9685,413.32861 1034.1147,413.45723C1046.5967,413.58938 1062.1772,432.88518 1075.8089,459.3884C1094.2208,495.98216 1092.9796,505.23166 1081.4618,510.83024z"/>
      <path id="imagebot_899" fill="#5d6c53" stroke="#000000" stroke-width="6.50645" stroke-linecap="round" stroke-linejoin="round" stroke-miterlimit="4" d="M1034.1164,413.35542C1046.5985,413.48757 1062.179,432.78337 1075.8106,459.28659C1087.4218,482.36394 1097.9819,486.10955 1096.3127,493.37954C1090.8702,502.75316 1076.5895,512.3285 1069.2576,514.17882C1069.2576,514.17882 1052.805,496.32787 1044.633,486.2624C1036.9625,476.81486 1033.2613,473.64831 1028.2869,466.73238C1019.3855,454.35698 1010.8812,442.03954 1010.2535,433.36964"/>
     </g>
    </g>
   </g>
   <g id="imagebot_900">
    <g id="imagebot_901" transform="matrix(1.0002431,0,0,0.84223363,-588.93623,207.89874)">
     <g id="imagebot_902" display="inline" fill="#ffccaa" transform="matrix(1.0193073,0,0,1.0193072,2121.9051,-1827.922)">
      <path id="imagebot_903" fill="#d4aa00" fill-rule="nonzero" stroke="#000000" stroke-width="3.0554" stroke-linecap="round" stroke-linejoin="round" stroke-miterlimit="4" stroke-dashoffset="0" d="M-1644.3654,2168.3579C-1655.4985,2182.0664 -1679.8413,2181.5657 -1691.8026,2168.3579C-1703.7639,2155.1501 -1696.8912,2138.4116 -1691.8026,2122.4639C-1686.4662,2105.7396 -1686.8711,2093.1385 -1691.8026,2076.5699C-1696.61,2060.418 -1713.9084,2037.7875 -1697.689,2030.6759C-1680.9256,2023.3257 -1658.9444,2022.8956 -1642.4033,2030.6759C-1626.2523,2038.2727 -1638.6517,2060.7793 -1644.3654,2076.5699C-1650.7756,2094.2853 -1648.5693,2107.333 -1644.3654,2122.4639C-1638.8837,2142.1939 -1635.1593,2157.0222 -1644.3654,2168.3579z"/>
      <path id="imagebot_904" fill="#a05a2c" fill-rule="nonzero" stroke="#000000" stroke-width="3.0554" stroke-linecap="round" stroke-linejoin="round" stroke-miterlimit="4" stroke-dashoffset="0" d="M-1670.2774,2028.2534L-1670.2774,1996.0447C-1670.2774,1994.1173 -1666.3753,1992.5657 -1661.528,1992.5657C-1656.6809,1992.5657 -1652.7787,1994.1173 -1652.7787,1996.0447L-1652.7787,2028.2534C-1653.0635,2033.8015 -1660.315,2032.3829 -1670.2774,2028.2534z"/>
     </g>
     <g id="imagebot_905" stroke-width="1.9307" stroke-miterlimit="4" transform="matrix(1.0026747,0,0.00698314,0.9998267,496.02704,-288.72635)">
      <path id="imagebot_906" fill="#44aa00" fill-rule="evenodd" stroke="#000000" stroke-width="1.9307" stroke-miterlimit="4" d="M-65.84058,546.30353C-58.68206,572.50617 -70.87103,613.57392 -70.87103,613.57392C-68.62594,623.3269 -63.93335,629.46922 -58.63747,635.53811C-57.53441,631.77228 -58.57196,629.15034 -56.49066,620.57036C-65.40232,582.75633 -45.73139,571.62372 -60.9424,545.87443L-65.84058,546.30353z"/>
      <path id="imagebot_907" clip-rule="nonzero" fill="#44aa00" fill-rule="nonzero" stroke="#000000" stroke-width="1.9307" stroke-linecap="round" stroke-linejoin="round" stroke-miterlimit="4" stroke-dashoffset="0" d="M-65.54507,534.3989L-61.88272,533.87892C-60.44564,533.67489 -56.81149,536.61279 -57.13985,539.24374L-57.82939,544.76873C-58.19668,547.71166 -59.26035,549.62679 -61.88272,549.44024L-64.31922,549.26692C-66.9416,549.08037 -69.36856,547.04754 -69.36856,544.07543L-69.36856,539.24374C-69.36856,536.27163 -68.15217,534.76904 -65.54507,534.3989z"/>
     </g>
     <path id="imagebot_908" fill="#d4aa00" stroke="#000000" stroke-width="2.07789" stroke-linecap="round" stroke-linejoin="round" stroke-miterlimit="4" d="M417.42534,234.05326C406.40895,239.57938 409.58216,251.09278 414.51844,264.28647C416.33283,250.10353 436.9872,251.64581 436.79879,243.33048C442.36801,249.76065 445.38462,247.51737 445.81397,262.83012C448.38626,251.79111 449.92126,238.72785 437.13537,235.34515C439.83593,240.66725 436.97134,241.33437 435.3568,241.69775C431.79852,241.33456 418.09287,239.11728 417.42534,234.05326z"/>
    </g>
    <g id="imagebot_909" transform="matrix(0.9957288,0.09232637,-0.09232637,0.9957288,-539.41399,225.26758)">
     <g id="imagebot_910">
      <g id="imagebot_911" stroke-width="2" stroke-miterlimit="4" transform="translate(75.268755,-0.00883887)">
       <path id="imagebot_912" fill="#a05a2c" stroke="#000000" stroke-width="2" stroke-linecap="round" stroke-linejoin="round" stroke-miterlimit="4" d="M326.47118,139.66811C300.11511,139.17659 295.31625,140.17469 282.5899,109.46847C282.5899,109.46847 270.0677,103.89751 270.0519,94.30727C270.014,69.39335 268.52993,49.56159 316.53801,49.09993C349.09626,48.78684 355.34949,62.10603 355.61939,91.22591C355.63229,92.61936 359.28203,100.41613 359.25793,101.88871C360.14629,141.04516 348.62666,140.08129 326.47118,139.66811z"/>
       <path id="imagebot_913" fill="#a05a2c" fill-rule="evenodd" stroke="#000000" stroke-width="2" stroke-linecap="round" stroke-linejoin="round" stroke-miterlimit="4" d="M350.67134,100.90458C345.60723,99.53621 344.0175,105.33447 344.82707,109.72108C345.97664,114.01774 349.98693,113.04522 353.22338,113.96324C350.30666,106.99937 356.59331,113.86344 360.38226,113.96624C365.87531,114.04424 367.08286,110.87699 366.71064,106.48259C366.21411,97.906 361.33606,107.19941 355.885,92.52272"/>
      </g>
      <path id="imagebot_914" fill="#1a1a1a" stroke="#000000" stroke-width="0.99835" d="M432.0322,44.2008C432.0322,38.08161 426.53077,35.76668 422.69853,38.41392C422.45864,38.57963 422.11787,38.43782 421.83251,38.46962C420.91945,33.48679 417.1892,29.75165 412.71921,29.75165C412.16394,29.75165 411.61983,29.81527 411.09241,29.93057C409.38638,27.72067 406.94247,26.32665 404.21751,26.32665C401.92959,26.32665 399.83667,27.30794 398.21234,28.93019C396.54406,27.07017 394.30505,25.92268 391.83514,25.92268C390.27148,25.92268 388.80005,26.3847 387.50691,27.19184C386.0782,26.13818 384.40065,25.5203 382.59495,25.5203C378.83126,25.5203 375.59748,28.16837 374.12111,31.97508C372.40888,29.62839 369.88883,28.13894 367.06977,28.13894C363.21945,28.13894 359.91756,30.9071 358.49071,34.85934C357.63706,34.55397 356.73329,34.38617 355.79671,34.38617C351.37128,34.38617 347.67261,38.04974 346.71312,42.95703C341.61482,43.03654 337.49954,47.95974 337.49954,54.03282C337.49954,56.59103 338.2368,58.93931 339.46185,60.81363C337.20241,63.03945 335.83683,65.90859 335.83683,69.04413C335.83683,72.30293 337.3194,75.26751 339.73855,77.52672C338.28323,78.86507 335.58913,94.31972 342.73304,93.75509C340.39642,103.948 347.31403,110.10426 353.94829,109.5692C355.74284,111.09842 364.05389,112.9485 365.71164,112.05387C368.40873,110.59624 363.20582,111.40537 365.59465,101.33712C365.68505,100.96099 365.64425,100.49578 365.50925,99.98923C370.0919,99.12802 363.60312,95.66466 365.41805,91.93748C367.99877,92.72712 368.19465,90.31986 371.50149,94.65379C374.48395,98.56466 377.96968,94.32589 377.96968,88.20351C377.96968,84.30694 374.06844,79.80961 371.27601,78.01481C378.36785,80.98556 378.2356,75.63211 378.2356,73.07547C384.86621,74.94263 385.98457,70.20874 389.14236,67.35034C391.35166,68.5861 393.96148,69.31293 396.76691,69.31293C402.34619,69.31293 407.1684,66.47957 409.53307,62.3516C414.96692,64.58304 419.48142,64.87105 419.68556,59.45731C422.95671,66.21388 433.83193,64.30005 430.74265,58.39169C436.52016,55.18094 437.57043,46.53675 432.0322,44.2008z"/>
      <g id="imagebot_915" display="inline" fill="#a05a2c" stroke-width="3.3787" stroke-miterlimit="4" transform="matrix(0.69358654,0,0,0.5051961,285.75029,-84.285837)">
       <path id="imagebot_916" fill="#a05a2c" fill-rule="evenodd" stroke="#000000" stroke-width="3.3787" stroke-linecap="round" stroke-linejoin="round" stroke-miterlimit="4" d="M121.0355,351.18221C116.82096,351.40143 117.61719,346.03954 112.09363,345.5458C105.99811,345.00094 96.8198,345.92995 96.04154,351.58803C94.45721,362.44171 94.88485,377.08908 99.55597,385.23192C107.9274,388.12379 115.93564,387.95721 121.23646,383.84217"/>
       <path id="imagebot_917" fill="#a05a2c" fill-rule="evenodd" stroke="#000000" stroke-width="3.3787" stroke-linecap="round" stroke-linejoin="round" stroke-miterlimit="4" d="M100.31819,361.4099C106.59419,350.22025 112.7379,356.55268 115.03922,371.414"/>
       <path id="imagebot_918" fill="#a05a2c" fill-rule="evenodd" stroke="#000000" stroke-width="3.3787" stroke-linecap="round" stroke-miterlimit="4" d="M105.60533,370.60031C104.6318,365.06559 108.31938,363.51207 111.91361,362.42291"/>
      </g>
     </g>
     <path id="imagebot_919" fill="none" fill-rule="evenodd" stroke="#000000" stroke-width="1.55335" stroke-linecap="round" stroke-linejoin="round" stroke-miterlimit="4" d="M420.70008,100.49428C408.10663,108.19188 404.20615,117.6613 404.76691,128.03974"/>
    </g>
    <g id="imagebot_920" transform="matrix(0.96306008,-0.26928661,0.26928661,0.96306008,-707.90215,143.5517)">
     <path id="imagebot_921" fill="#1c241c" fill-rule="nonzero" stroke="#000000" stroke-width="2.73744" stroke-linecap="round" stroke-linejoin="round" stroke-miterlimit="4" stroke-dashoffset="0" d="M438.58354,621.61555C439.60522,633.79028 435.92128,633.66022 440.32739,647.32506C446.63114,650.47282 458.96814,648.31202 464.80916,643.53707C463.08061,641.97377 454.78343,632.39702 454.76282,619.65254C448.72884,617.74199 441.83915,619.48144 438.58354,621.61555z"/>
     <path id="imagebot_922" fill="#28170b" stroke="#000000" stroke-width="2.73744" stroke-linecap="round" stroke-linejoin="round" stroke-miterlimit="4" stroke-dashoffset="0" d="M490.29558,660.84309C490.77725,645.73671 483.10473,649.14413 475.12165,645.33536C470.91684,643.32921 463.80218,640.95108 462.10485,633.61204C452.83486,645.78704 445.06981,638.56726 442.43335,635.84484C442.43335,635.84484 438.83403,632.61133 436.51919,633.92662C434.03307,639.43197 431.778,647.72803 432.88036,655.47757C442.89103,657.24778 481.52179,662.03511 490.29558,660.84309z"/>
     <path id="imagebot_923" fill="#1a1a1a" stroke="#000000" stroke-width="2.73744" stroke-linecap="round" stroke-linejoin="round" stroke-miterlimit="4" stroke-dashoffset="0" d="M450.87785,655.34879L432.37921,654.37739C429.79657,657.38558 429.44979,662.2018 433.22099,663.66456L447.90374,663.55798L450.45219,661.67841C455.58476,663.61024 488.83556,669.41531 490.99936,660.15375C490.1595,657.37447 483.49604,659.97824 474.85991,659.86565C466.67334,659.75878 455.90335,657.96674 450.87785,655.34883L450.87785,655.34879z"/>
    </g>
    <path id="imagebot_924" fill="#3d5b27" fill-rule="nonzero" stroke="#000000" stroke-width="2.67465" stroke-linecap="round" stroke-linejoin="round" stroke-miterlimit="4" stroke-dashoffset="0" d="M-158.51855,519.41104C-115.92005,553.74991 -107.06503,561.59593 -98.82009,616.0497C-100.32859,627.63362 -109.98221,636.54039 -122.23821,638.32127C-120.19592,584.79069 -124.64841,580.75476 -169.04734,542.03861"/>
    <path id="imagebot_925" clip-rule="nonzero" fill="#3d5b27" fill-rule="nonzero" stroke="#000000" stroke-width="2.55134" stroke-linecap="round" stroke-linejoin="round" stroke-miterlimit="4" stroke-dashoffset="0" d="M-197.45946,506.99449C-201.49422,518.18542 -199.36496,532.25868 -193.42678,541.39383C-184.61643,555.3145 -169.79656,559.99824 -157.0314,555.65852C-147.07116,552.39353 -137.60656,542.85922 -134.45785,529.03667C-132.8574,521.85626 -132.98084,513.68179 -135.63076,506.99449C-156.24037,513.44607 -176.84996,515.17329 -197.45946,506.99449z"/>
    <g id="imagebot_926" transform="matrix(0.67604591,0.54344589,-0.62916912,0.69982827,-227.58895,-17.750818)">
     <path id="imagebot_927" fill="#1c241c" fill-rule="nonzero" stroke="#000000" stroke-width="3.11439" stroke-linecap="round" stroke-linejoin="round" stroke-miterlimit="4" stroke-dashoffset="0" d="M484.11373,513.93242C479.29863,525.99648 471.3342,521.29437 469.46114,536.65455C474.75967,543.1451 489.17706,547.99187 497.82802,546.74471C496.71568,544.30381 491.87997,531.13569 498.0568,519.0925C494.07332,514.71569 489.52757,512.58778 484.11373,513.93242z"/>
     <path id="imagebot_928" fill="#28170b" stroke="#000000" stroke-width="3.11439" stroke-linecap="round" stroke-linejoin="round" stroke-miterlimit="4" stroke-dashoffset="0" d="M522.59035,573.24756C528.58032,553.13793 508.79905,559.42916 500.00689,554.68111C495.12343,552.044 499.37215,542.42817 500.06759,534.39413C485.05571,542.72948 478.75078,532.30811 476.70766,528.4989C476.70766,528.4989 473.74448,523.78122 470.61668,524.13922C465.78433,528.61288 460.21231,535.97032 458.68683,544.16864C466.67495,554.82827 504.64389,583.24226 522.59025,573.24756L522.59035,573.24756z"/>
     <path id="imagebot_929" fill="#1a1a1a" stroke="#000000" stroke-width="3.11439" stroke-linecap="round" stroke-linejoin="round" stroke-miterlimit="4" stroke-dashoffset="0" d="M479.80243,553.64916L459.51601,543.7577C455.35918,545.44149 452.94202,549.96888 456.54483,553.21844L473.01655,560.21352L476.65961,559.61337C481.58779,563.97835 487.5262,583.51321 523.32907,573.57955C523.56039,567.77261 513.59331,571.31103 500.85056,570.6173C488.36805,569.93774 484.32198,558.63078 479.80256,553.64885L479.80243,553.64916z"/>
    </g>
    <path id="imagebot_930" fill="#3d5b27" fill-rule="nonzero" stroke="#000000" stroke-width="2.53449" stroke-linecap="round" stroke-linejoin="round" stroke-miterlimit="4" stroke-dashoffset="0" d="M-190.83596,542.06542C-191.75876,592.3333 -182.2545,597.64686 -225.80007,598.8973C-228.57906,607.9997 -231.59848,611.27308 -225.02596,629.78829C-177.30982,621.89458 -168.26545,614.39083 -169.30449,549.8862"/>
    <g id="imagebot_931" transform="matrix(1.0002431,0,0,0.84223363,-708.46223,196.64833)">
     <g id="imagebot_932">
      <g id="imagebot_933" fill="#916f8a" stroke-width="3.68801" stroke-miterlimit="4" transform="matrix(-0.49397406,0,0.02943735,0.84130058,847.03644,335.77832)">
       <path id="imagebot_934" fill="#5d6c53" fill-rule="evenodd" stroke="#000000" stroke-width="4.65365" stroke-linecap="round" stroke-linejoin="round" stroke-miterlimit="4" d="M576.7079,86.82552C571.50877,65.70156 572.9626,44.17486 580.02975,25.64659C586.8484,7.76984 575.59377,-17.79987 580.59327,-23.41789C550.23143,-52.9693 569.46209,-77.87939 579.58634,-102.06999L561.18656,-100.05422L560.56514,-95.99561C553.82315,-95.16423 528.95286,-94.65855 536.70237,-77.34976C540.20547,-69.57111 538.99034,-57.90368 543.73832,-52.37977C548.98049,-46.28091 566.35001,-12.60528 559.96581,23.35163C555.12948,50.59068 556.4149,59.62314 550.01265,73.59837C558.15919,81.22537 565.9416,86.04817 576.7079,86.82552z"/>
       <path id="imagebot_935" fill="none" fill-rule="evenodd" stroke="#000000" stroke-width="4.65365" stroke-linecap="round" stroke-linejoin="round" stroke-miterlimit="4" d="M560.42743,-95.83176C557.65233,-85.94741 543.85755,-81.27015 558.99363,-54.35754C556.19535,-52.81944 548.58608,-52.64267 544.52098,-52.96109C550.17697,-36.33192 565.04849,-16.53702 574.19659,-1.81708"/>
      </g>
      <g id="imagebot_936" transform="translate(-102.96222,-0.43443977)">
       <path id="imagebot_937" fill="#5d6c53" fill-rule="evenodd" stroke="#000000" stroke-width="3" stroke-linecap="round" stroke-linejoin="round" stroke-miterlimit="4" d="M607.3373,410.00014C623.51454,415.58089 650.10054,415.2694 663.40841,410.78C661.21447,382.24078 659.92694,364.03282 667.23325,353.99244C667.42413,348.01015 667.94326,341.47051 664.74162,333.4732C661.42968,284.73757 651.87009,272.31491 640.16668,247.61704L632.20205,246.7083L632.23285,250.64626C619.63495,249.87558 605.73833,251.14541 605.20221,263.82899C603.42582,316.51708 630.85886,302.68839 603.25479,407.40214L607.3373,410.00014z"/>
       <path id="imagebot_938" fill="none" fill-rule="evenodd" stroke="#000000" stroke-width="3" stroke-linecap="round" stroke-linejoin="round" stroke-miterlimit="4" d="M633.57255,247.94128C631.84857,263.07242 629.84318,281.10928 653.86279,292.79965C650.01088,295.15325 646.88482,297.44332 646.88482,297.44332C652.81385,315.20795 653.40794,323.8362 665.73951,335.82421"/>
      </g>
     </g>
     <ellipse id="imagebot_939" clip-rule="nonzero" fill="#5d6c53" fill-rule="nonzero" stroke="#000000" stroke-width="2.35624" stroke-linecap="round" stroke-linejoin="round" stroke-miterlimit="4" stroke-dashoffset="0" cx="575.15875" cy="351.50705" rx="1.73934" ry="3.12837" transform="matrix(1,0,-0.04740759,0.99887563,0,0)"/>
     <ellipse id="imagebot_940" clip-rule="nonzero" fill="#5d6c53" fill-rule="nonzero" stroke="#000000" stroke-width="2.35624" stroke-linecap="round" stroke-linejoin="round" stroke-miterlimit="4" stroke-dashoffset="0" cx="574.43274" cy="340.05377" rx="1.73934" ry="3.12837" transform="matrix(1,0,-0.04740759,0.99887563,0,0)"/>
    </g>
    <path id="imagebot_941" fill="#ffffff" stroke="#000000" stroke-width="1.83741" stroke-linecap="round" stroke-linejoin="round" stroke-miterlimit="4" d="M-135.21048,364.17611C-141.35726,364.18211 -145.09894,361.59668 -145.109,357.60666C-145.119,353.61664 -139.31456,350.63539 -133.16777,350.62581C-127.02099,350.61981 -122.85611,353.58225 -122.83648,357.58355C-122.83648,361.58484 -129.06369,364.17272 -135.21048,364.17611z"/>
    <path id="imagebot_942" fill="#1a1a1a" stroke="#000000" stroke-width="1.30706" stroke-linecap="round" stroke-linejoin="round" stroke-miterlimit="4" d="M-128.74501,344.69402C-121.40658,345.46541 -122.31496,343.91591 -122.23708,341.79099C-122.12816,338.85049 -129.1404,337.93405 -136.49846,337.92828C-143.85706,337.92828 -148.10546,342.62098 -148.12942,344.75454C-148.22582,348.2426 -140.33841,343.47402 -128.74501,344.69684L-128.74501,344.69402z"/>
    <g id="imagebot_943" display="inline" transform="matrix(0.27354627,0,0,0.35233664,-443.40383,509.8797)">
     <g id="imagebot_944" transform="translate(-19.864682,-8.6616843)">
      <circle id="imagebot_945" fill="#ac9393" stroke="#000000" stroke-width="2.62955" stroke-miterlimit="4" cx="1174.1079" cy="-425.61353" r="14.97225"/>
      <circle id="imagebot_946" stroke-width="0.55323" stroke-miterlimit="4" cx="1174.1079" cy="-425.60889" r="6.41668"/>
      <circle id="imagebot_947" fill="#ffffff" stroke-width="0.55323" stroke-miterlimit="4" cx="1176.2515" cy="-424.18774" r="2.81859"/>
     </g>
    </g>
    <path id="imagebot_948" fill="#a05a2c" stroke="#000000" stroke-width="1.01698" stroke-linecap="round" stroke-linejoin="round" stroke-miterlimit="4" d="M-133.90403,346.51803C-140.67528,346.94815 -146.94204,350.29005 -146.76051,354.23221C-146.71011,355.33575 -146.32912,356.3053 -145.6765,357.12756C-143.76985,354.40329 -138.87364,352.3467 -133.66566,352.01631C-128.76643,351.70836 -124.9553,353.01311 -123.14277,355.25144C-122.528,354.46084 -122.18453,353.60267 -122.22415,352.68867C-122.41722,348.73608 -127.13258,346.09238 -133.90403,346.51803z"/>
    <g id="imagebot_949" display="inline" stroke-width="1.94401" stroke-miterlimit="4" transform="matrix(1.145494,-0.05212418,0.07728578,0.71305222,31.327209,438.47816)">
     <path id="imagebot_950" fill="#a05a2c" stroke="#000000" stroke-width="1.94401" stroke-linecap="round" stroke-linejoin="round" stroke-miterlimit="4" stroke-dashoffset="0" d="M-133.06782,-68.28482C-127.78387,-65.5668 -125.03839,-70.35439 -128.06681,-74.7991"/>
     <path id="imagebot_951" fill="#550000" stroke="#000000" stroke-width="1.94401" stroke-linecap="square" stroke-linejoin="round" stroke-miterlimit="4" stroke-dashoffset="0" d="M-129.45398,-81.98692C-135.74948,-78.66802 -140.05238,-82.13442 -144.52548,-85.44272C-147.28038,-88.07942 -147.44378,-79.89242 -145.39838,-77.15242C-139.83888,-73.88362 -129.59638,-72.13502 -128.46628,-75.03792L-130.23998,-82.53072"/>
     <path id="imagebot_952" fill="#ffffff" stroke="#000000" stroke-width="1.29601" stroke-linecap="round" stroke-linejoin="round" stroke-miterlimit="4" stroke-dashoffset="0" d="M-128.19267,-83.44318L-128.27177,-77.97577C-133.21077,-76.60307 -138.60114,-78.93502 -145.44534,-82.73882C-147.24054,-83.73662 -146.78844,-86.31982 -145.41934,-86.32022C-140.00649,-81.82181 -134.05206,-81.80129 -128.19263,-83.44318L-128.19267,-83.44318z"/>
     <path id="imagebot_953" fill="none" stroke="#000000" stroke-width="1.94401" stroke-linecap="round" stroke-linejoin="round" stroke-miterlimit="4" stroke-dashoffset="0" d="M-125.60058,-85.69562C-127.27858,-81.82152 -141.04498,-80.88512 -146.23248,-86.64732"/>
    </g>
   </g>
   <g id="imagebot_954" transform="matrix(0.46223249,0.31141305,-0.26868333,0.39880848,-238.29779,338.15503)">
    <rect id="imagebot_955" fill="#b26629" stroke="#000000" stroke-width="2" stroke-miterlimit="4" ry="9.7193" height="159" width="231" y="382.35999" x="1"/>
    <path id="imagebot_956" fill="url(#imagebot_39)" stroke="#000000" stroke-width="3.86324" stroke-miterlimit="4" d="M10.7188,380.38C5.3343,380.38 1,384.7143 1,390.0988L1,425.2398L41,480.3808L192,480.3808L232,425.2398L232,390.0988C232,384.7143 227.6657,380.38 222.2812,380.38L10.7212,380.38L10.7188,380.38z"/>
    <rect id="imagebot_957" fill="none" stroke="#000000" stroke-width="3.86324" stroke-miterlimit="4" ry="9.5978" height="157.00999" width="228.11" y="382.35999" x="1.994"/>
    <path id="imagebot_958" fill="url(#imagebot_36)" stroke="#000000" stroke-width="0.87054" d="M93.961,343.87C77.758,343.87 64.716,356.911 64.716,373.115L64.716,380.433L81.12,380.433L81.12,373.4959C81.12,366.166 87.0114,360.2479 94.341,360.2479L131.72,360.2479C139.0499,360.2479 144.941,366.1665 144.941,373.4959L144.941,380.433L161.345,380.433L161.345,373.115C161.345,356.912 148.304,343.87 132.1,343.87L93.96,343.87L93.961,343.87z"/>
    <path id="imagebot_959" fill="url(#imagebot_34)" stroke="#000000" d="M93.781,344.43C78.06,344.43 65.407,357.083 65.407,372.804L65.407,379.9041L68.3632,379.9041L68.3632,376.1825C68.3632,360.4615 81.0162,347.8085 96.7372,347.8085L133.7422,347.8085C141.4528,347.8085 148.4342,350.8495 153.5382,355.8061C148.3734,348.891 140.1202,344.4301 130.7862,344.4301L93.7812,344.4301L93.781,344.43z"/>
    <path id="imagebot_960" opacity="0.62406" fill="#2e3436" d="M145.47,376.56C145.47,372.0595 145.16855,370.2342 144.066,368.0583C143.7569,367.44833 143.59538,366.9493 143.70705,366.9493C144.15245,366.9493 146.33685,369.6723 147.07535,371.1482C148.20795,373.4114 148.51685,374.877 148.51685,377.9856L148.51685,380.6603L146.99345,380.6603L145.47005,380.6603L145.47005,376.5601L145.47,376.56z"/>
    <g id="imagebot_961" transform="translate(16,18)">
     <path id="imagebot_962" fill="url(#imagebot_31)" stroke="#000000" d="M84.853,434.67L106.773,434.67L106.773,495.159L95.813,507.159L84.853,495.159L84.853,434.67z"/>
     <rect id="imagebot_963" fill="#431905" height="1.4142" width="4.2426" y="437.89001" x="86.621"/>
     <rect id="imagebot_964" fill="#431905" height="1.4142" width="4.2426" y="437.89001" x="93.737"/>
     <rect id="imagebot_965" fill="#431905" height="1.4142" width="4.2426" y="437.70999" x="100.32"/>
    </g>
    <path id="imagebot_966" fill="url(#imagebot_24)" stroke="url(#imagebot_25)" d="M102.806,468.42C98.2471,468.42 94.5808,472.0862 94.5808,476.6452L94.5808,498.7392C94.5808,503.2982 98.247,506.9644 102.806,506.9644L121.006,506.9644C125.5649,506.9644 129.2312,503.2982 129.2312,498.7392L129.2312,476.6452C129.2312,472.0862 125.565,468.42 121.006,468.42L102.806,468.42zM105.6717,474.4795L118.1407,474.4795C121.2668,474.4795 123.7846,476.9972 123.7846,480.1234L123.7846,495.2614C123.7846,498.3875 121.2668,500.9053 118.1407,500.9053L105.6717,500.9053C102.5456,500.9053 100.0278,498.3875 100.0278,495.2614L100.0278,480.1234C100.0278,476.9973 102.5455,474.4795 105.6717,474.4795z"/>
    <circle id="imagebot_967" fill="#704c2e" stroke="url(#imagebot_22)" stroke-width="0.86364" cx="112.00094" cy="486.61432" r="4.3182"/>
    <path id="imagebot_968" opacity="0.64286" fill="url(#imagebot_20)" d="M101.031,486.47L101.031,498.314L121.875,498.314L121.875,486.47L116.2812,486.47C116.2832,486.5233 116.3124,486.57249 116.3124,486.62625C116.3124,489.01115 114.3848,490.93875 111.9999,490.93875C109.615,490.93875 107.6874,489.01115 107.6874,486.62625C107.6874,486.57245 107.7167,486.52328 107.7186,486.47L101.0311,486.47L101.031,486.47z"/>
    <path id="imagebot_969" fill="url(#imagebot_17)" stroke="url(#imagebot_18)" stroke-width="1.0482" d="M111.625,482.38C110.74745,482.38 109.9473,482.68964 109.2812,483.22375L109.2812,499.62975C109.2812,501.00145 110.3783,502.09855 111.75,502.09855C113.1217,502.09855 114.2188,501.00145 114.2188,499.62975L114.2188,483.44175C113.5118,482.78175 112.6108,482.38175 111.6248,482.38175L111.625,482.38z"/>
   </g>
   <g id="imagebot_970">
    <g id="imagebot_971" display="inline" fill="#90a0fe" stroke-width="1.55561" stroke-miterlimit="4" transform="matrix(1.7072083,0.62826033,0.55547998,-1.4473345,360.0969,532.41039)">
     <path id="imagebot_972" fill="#a05a2c" stroke="#000000" stroke-width="1.55561" stroke-linecap="round" stroke-linejoin="round" stroke-miterlimit="4" stroke-dashoffset="0" d="M-328.92815,-114.81347L-329.79935,-119.60644C-327.26585,-120.85161 -325.26605,-123.14422 -324.50045,-126.09082C-323.10545,-131.46053 -323.51225,-136.76304 -328.81885,-138.38183C-329.19715,-138.49724 -329.64715,-138.67364 -330.11765,-138.71386C-330.90195,-138.78086 -331.74425,-138.46967 -332.40475,-136.87597C-333.13525,-138.40346 -336.69625,-139.21885 -336.81495,-136.2705C-337.97835,-138.37207 -340.75565,-136.79806 -340.63915,-134.12793C-341.44815,-135.88867 -343.38675,-133.41911 -343.94585,-131.14355C-345.20095,-126.03485 -342.42895,-120.86149 -337.56105,-119.14941L-336.84635,-114.18457"/>
     <path id="imagebot_973" fill="#a05a2c" stroke="#000000" stroke-width="1.55561" stroke-linecap="round" stroke-linejoin="round" stroke-miterlimit="4" stroke-dashoffset="0" d="M-325.11889,-130.02972C-325.88552,-131.88253 -325.2786,-136.37576 -322.1897,-133.71525C-319.3744,-131.29039 -322.53844,-122.5786 -328.07983,-121.86346"/>
    </g>
    <g id="imagebot_974" transform="matrix(0.32152291,0.9469018,-0.9469018,0.32152291,584.80632,-105.60667)">
     <g id="imagebot_975" fill="#ffdd55" stroke-width="10.03982" stroke-miterlimit="4" transform="matrix(-0.11140205,0.17811362,-0.28331427,-0.08140404,454.41181,669.40838)">
      <path id="imagebot_976" fill="#d4aa00" fill-rule="evenodd" stroke="#000000" stroke-width="10.03982" stroke-miterlimit="4" d="M1799.6768,-149.70928C1826.1966,-159.14098 1857.2614,-145.20834 1857.2614,-145.20834C1857.2614,-145.20834 1847.2871,-124.44664 1848.9098,-112.75729C1835.2883,-104.18073 1812.4958,-106.22575 1795.0265,-115.54225C1798.0062,-130.61505 1795.0675,-133.4998 1799.6768,-149.70928z"/>
     </g>
     <path id="imagebot_977" fill="#5d6c53" stroke="#000000" stroke-width="3.22207" stroke-linecap="round" stroke-linejoin="round" stroke-miterlimit="4" d="M242.23765,898.81859C251.78226,899.14515 253.7612,910.2416 253.61138,918.84256C253.33643,934.62951 250.69592,944.02495 252.38545,961.21269C253.27149,970.22617 245.93214,980.67598 237.71992,972.31982C235.35308,968.2951 233.44069,963.29716 233.31427,960.92742C232.22005,940.43409 232.79628,931.89299 232.05113,916.02528C231.74122,909.42813 235.71077,898.59528 242.23765,898.81859z"/>
     <g id="imagebot_978" fill="#916f8a" transform="matrix(0.48617184,-0.04540157,0.2050495,0.48526973,-343.2632,806.24257)">
      <path id="imagebot_979" fill="#5d6c53" stroke="#000000" stroke-width="0" stroke-linecap="round" stroke-linejoin="round" stroke-miterlimit="4" d="M1081.4618,510.83024C1066.144,518.27591 1054.7182,498.78834 1044.6312,486.36421C1036.9608,476.9166 1033.2596,473.75012 1028.285,466.83419C1019.3837,454.45879 1010.8794,442.14135 1010.2517,433.47145C1009.629,424.87389 1021.9685,413.32861 1034.1147,413.45723C1046.5967,413.58938 1062.1772,432.88518 1075.8089,459.3884C1094.2208,495.98216 1092.9796,505.23166 1081.4618,510.83024z"/>
      <path id="imagebot_980" fill="#5d6c53" stroke="#000000" stroke-width="6.50645" stroke-linecap="round" stroke-linejoin="round" stroke-miterlimit="4" d="M1034.1164,413.35542C1046.5985,413.48757 1062.179,432.78337 1075.8106,459.28659C1087.4218,482.36394 1095.7094,493.38598 1094.0402,500.65597C1084.1485,513.65555 1072.4738,518.00089 1066.583,516.4781C1066.583,516.4781 1052.805,496.32787 1044.633,486.2624C1036.9625,476.81486 1033.2613,473.64831 1028.2869,466.73238C1019.3855,454.35698 1010.8812,442.03954 1010.2535,433.36964"/>
     </g>
    </g>
   </g>
  </g>
 </g>
</svg>