<?xml version="1.0" encoding="UTF-8" standalone="no"?>
<!-- Created with Inkscape (http://www.inkscape.org/) -->

<svg
   xmlns:dc="http://purl.org/dc/elements/1.1/"
   xmlns:cc="http://creativecommons.org/ns#"
   xmlns:rdf="http://www.w3.org/1999/02/22-rdf-syntax-ns#"
   xmlns:svg="http://www.w3.org/2000/svg"
   xmlns="http://www.w3.org/2000/svg"
   xmlns:sodipodi="http://sodipodi.sourceforge.net/DTD/sodipodi-0.dtd"
   xmlns:inkscape="http://www.inkscape.org/namespaces/inkscape"
   id="svg6346"
   sodipodi:docname="asian-girl-falling-colour.svg"
   viewBox="0 0 58.933 66.461"
   version="1.1"
   inkscape:version="0.91 r13725">
  <defs
     id="defs6348">
    <clipPath
       id="clipPath2558"
       clipPathUnits="userSpaceOnUse">
      <path
         id="path2560"
         d="m486 227.11s1.509-4.928 7.278-6.492c0 0-0.571-9.63-6.388-13.787-1.609-1.15-10.934 5.264-12.879 11.911 7.062 1.244 11.989 8.368 11.989 8.368" />
    </clipPath>
    <clipPath
       id="clipPath2534"
       clipPathUnits="userSpaceOnUse">
      <path
         id="path2536"
         clip-rule="evenodd"
         d="m253.45 344.5h286.05v-251.05h-286.05v251.05z" />
    </clipPath>
    <clipPath
       id="clipPath2540"
       clipPathUnits="userSpaceOnUse">
      <path
         id="path2542"
         d="m0 792h612v-792h-612v792z" />
    </clipPath>
    <clipPath
       id="clipPath2546"
       clipPathUnits="userSpaceOnUse">
      <path
         id="path2548"
         d="m0.06 792h612v-792h-612v792z" />
    </clipPath>
    <clipPath
       id="clipPath2508"
       clipPathUnits="userSpaceOnUse">
      <path
         id="path2510"
         d="m495.96 219.41s-7.13 1.101-6.5-2.296c0.63-3.398 6.404-4.089 6.404-4.089s1.605 3.68 0.096 6.385" />
    </clipPath>
    <clipPath
       id="clipPath2482"
       clipPathUnits="userSpaceOnUse">
      <path
         id="path2484"
         clip-rule="evenodd"
         d="m253.45 344.5h286.05v-251.05h-286.05v251.05z" />
    </clipPath>
    <clipPath
       id="clipPath2488"
       clipPathUnits="userSpaceOnUse">
      <path
         id="path2490"
         d="m0 792h612v-792h-612v792z" />
    </clipPath>
    <clipPath
       id="clipPath2494"
       clipPathUnits="userSpaceOnUse">
      <path
         id="path2496"
         d="m0.06 792h612v-792h-612v792z" />
    </clipPath>
    <clipPath
       id="clipPath2456"
       clipPathUnits="userSpaceOnUse">
      <path
         id="path2458"
         d="m485.82 229.01s1.102-7.13-2.295-6.499c-3.398 0.63-4.09 6.404-4.09 6.404s3.681 1.605 6.385 0.095" />
    </clipPath>
    <clipPath
       id="clipPath422"
       clipPathUnits="userSpaceOnUse">
      <path
         id="path424"
         d="m491.4 232.1c0.22 0.471 0.112 0.986-0.241 1.15-0.353 0.165-0.817-0.084-1.036-0.555-0.22-0.471-0.112-0.986 0.241-1.15 0.352-0.165 0.817 0.084 1.036 0.555" />
    </clipPath>
    <clipPath
       id="clipPath400"
       clipPathUnits="userSpaceOnUse">
      <path
         id="path402"
         clip-rule="evenodd"
         d="m253.45 344.5h286.05v-251.05h-286.05v251.05z" />
    </clipPath>
    <clipPath
       id="clipPath406"
       clipPathUnits="userSpaceOnUse">
      <path
         id="path408"
         d="m0 792h612v-792h-612v792z" />
    </clipPath>
    <clipPath
       id="clipPath412"
       clipPathUnits="userSpaceOnUse">
      <path
         id="path414"
         d="m0.06 792h612v-792h-612v792z" />
    </clipPath>
    <clipPath
       id="clipPath276"
       clipPathUnits="userSpaceOnUse">
      <path
         id="path278"
         d="m490.36 231.55 1.621-0.757c0.353-0.164 0.823 0.082 1.043 0.553 0.219 0.471 0.111 0.986-0.242 1.151l-1.638 0.764-0.784-1.711" />
    </clipPath>
  </defs>
  <sodipodi:namedview
     id="base"
     bordercolor="#666666"
     inkscape:pageshadow="2"
     inkscape:window-y="1"
     pagecolor="#ffffff"
     inkscape:window-height="1035"
     inkscape:window-maximized="1"
     inkscape:zoom="4.8755817"
     inkscape:window-x="4"
     showgrid="false"
     borderopacity="1.0"
     inkscape:current-layer="layer1"
     inkscape:cx="17.232753"
     inkscape:cy="48.063527"
     inkscape:window-width="1916"
     inkscape:pageopacity="0.0"
     inkscape:document-units="px" />
  <g
     id="layer1"
     inkscape:label="Layer 1"
     inkscape:groupmode="layer"
     transform="translate(-346.94 -505.09)">
    <g
       id="g9012">
      <path
         d="m374.24 541.08-3.3348 18.243s-0.80852 2.5044-3.6824 3.807c-0.98911 0.44733-1.6783 0.70162-1.6668 1.9326 0.007 0.7888 3.1676 0.71199 5.0016 0.0467 1.0161-0.36845 2.3726-1.4323 2.3726-1.4323l6.5107-21.946-5.2009-0.65076z"
         style="stroke:#736d69;stroke-miterlimit:3.864;stroke-width:0.56046;fill:#ecdcc4;fill-opacity:1;stroke-opacity:1"
         id="path254" />
      <path
         d="m369.06 540.09s-6.1879 1.9408-9.9928 13.064c-0.70058 0.5532-1.0711 1.3576-4.1236-0.52517-1.2465-0.76908-2.4235-1.1344-2.7255 0.57292-0.137 0.77738 4.5086 3.8226 4.5086 3.8226l2.3353 0.93099s0.73483-0.31033 1.7115-1.9637c2.3498-3.9793 6.6436-12.137 7.697-9.2922 1.2797-3.1718 5.7676-5.8817 5.7676-5.8817l-5.178-0.72756z"
         style="stroke:#736d69;stroke-miterlimit:3.864;stroke-width:0.56046;fill:#ecdcc4;fill-opacity:1;stroke-opacity:1"
         id="path258" />
      <path
         d="m369.73 539.33s-6.4028-0.33732-10.21 6.4682c0 0 2.4401 5.3202 7.6171 5.176 0 0 1.7053-3.945 3.5973-4.7463 0 0-2.4401 3.7426-1.7229 7.1864 0 0 3.6575 3.9502 8.547 2.0851 0 0-0.78672-4.6591 1.3659-7.2528l-9.1947-8.9165z"
         style="stroke:#231f20;stroke-miterlimit:3.864;stroke-width:0.56046;fill:#8ca2c7;fill-opacity:1"
         id="path260" />
      <path
         d="m382.65 518.59s-3.615-0.74002-2.9009-3.3316c0 0-2.4951 1.1064-2.5584 3.6306 0 0 0.57603 0.88636 1.9917 1.3005 0 0-0.91438 0.27192-2.5989-0.26674 0 0-1.4582 4.0208 1.8184 5.9201 0 0 2.384-0.86664 4.2481-7.2528"
         style="fill:#231f20"
         id="path262" />
      <path
         d="m378.79 532.78 4.5512 2.7847c1.6544-4.1225 5.314-4.4225 6.8854-4.3467 0.37157 0.62585 1.3825 0.84589 2.3778 0.48366 1.0836-0.3944 1.7374-1.3285 1.4624-2.0862-0.12455-0.34043-0.41516-0.58745-0.79503-0.7203l2.5408-4.7754-9.6462-7.0265c-6.0841 1.1925-7.9534 8.4516-6.4059 10.557 1.5465 2.1059-0.97043 5.1293-0.97043 5.1293z"
         style="stroke:#736d69;stroke-miterlimit:3.864;stroke-width:0.56046;fill:#ecdcc4;fill-opacity:1;stroke-opacity:1"
         id="path264" />
      <path
         d="m381.14 524.83c-0.63208 1.3565 0.29787 3.1292 2.0706 3.9554 1.7738 0.8272 3.724 0.39751 4.3571-0.95901"
         style="stroke:#231f20;stroke-miterlimit:3.86400008;stroke-width:0.503;fill:none;stroke-dasharray:none"
         id="path266" />
      <path
         d="m392.54 529.48-1.0182 0.76492s0.95175-0.79606 1.7603 0.0353c0.80956 0.83239-0.74209-0.80021-0.74209-0.80021"
         style="fill-rule:evenodd;fill:#a7a5a6"
         id="path500" />
      <path
         d="m385.08 521.85s0.31136-0.77634-1.2351-1.4759c0.59783 0.51791 0.11936 0.89985 0.52414 1.2258 0.20239 0.16191 0.37157-0.0477 0.54697 0.0758 0.0758 0.054 0.16399 0.17436 0.16399 0.17436z"
         style="stroke-linejoin:bevel;stroke:#231f20;stroke-linecap:square;stroke-miterlimit:3.864;stroke-width:.16814;fill:#231f20"
         id="path502" />
      <path
         d="m386.42 520.39s-0.31241-2.2699-2.3996-1.4966"
         style="stroke-linejoin:round;stroke:#231f20;stroke-linecap:round;stroke-miterlimit:3.864;stroke-width:.50338;fill:none"
         id="path504" />
      <path
         d="m387.51 523.28s0.62273-0.55735 1.809 0.65698c-0.6902-0.38505-0.88636 0.19513-1.3306-0.0737-0.22107-0.13492-0.082-0.36534-0.25947-0.48781-0.0758-0.053-0.21899-0.0955-0.21899-0.0955z"
         style="stroke-linejoin:bevel;stroke:#231f20;stroke-linecap:square;stroke-miterlimit:3.864;stroke-width:.16814;fill:#231f20"
         id="path506" />
      <path
         d="m390.67 523.02s-0.3124-2.2688-2.3996-1.4956"
         style="stroke-linejoin:round;stroke:#231f20;stroke-linecap:round;stroke-miterlimit:3.864;stroke-width:.50338;fill:none"
         id="path508" />
      <path
         d="m393.85 524.04c-0.72029-0.10483-1.5029-0.56461-1.5029-0.56461l0.51271-2.3415-1.4302 1.7779c-1.862-0.79191-3.6191-2.3259-3.6191-2.3259l1.5672-2.5376-2.1401 2.1163c-5.6825-3.1946-5.1853-6.382-5.1853-6.382 6.3747-3.5859 8.3582 2.4121 8.3582 2.4121s12.13-3.506 7.2102 15.403c0 0-2.7701 2.2418-7.286 0.27089-0.81059-3.4707 3.5153-7.8288 3.5153-7.8288z"
         style="stroke-linejoin:round;fill-rule:evenodd;stroke:#231f20;stroke-linecap:round;stroke-miterlimit:3.864;stroke-width:.26778;fill:#231f20"
         id="path510" />
      <path
         d="m376.56 529.44s-2.7141-5.944-1.1645-11.361c0 0 2.8366-0.73068 3.0213-3.2341 0.0965-1.3067-0.85211-1.617-1.2476-0.89881-0.62896 1.1396-1.067 0.62792-1.067 0.62792s1.0348-2.382 0.17852-3.2839c-0.36118-0.38091-1.5703-0.33835-2.4847-0.0674 0 0-1.2102 0.69642-1.177 2.0841-0.96421-1.7872-1.3358-0.0426-1.3451 0.40789-0.0321 1.5714 1.5247 3.149 2.382 4.0634-2.0166 5.2611 0.32175 12.976 0.32175 12.976l2.5823-1.314z"
         style="stroke:#736d69;stroke-miterlimit:3.864;stroke-width:0.56046;fill:#ecdcc4;fill-opacity:1;stroke-opacity:1"
         id="path2448" />
      <path
         d="m377.63 526.84s1.1438 7.4002-2.382 6.7453c-3.5268-0.65387-4.245-6.6467-4.245-6.6467s3.8205-1.6658 6.627-0.0986"
         style="fill:#231f20"
         id="path2450" />
      <g
         transform="matrix(1.0379 0 0 -1.0379 -126.59 764.54)"
         id="g2452">
        <g
           style="fill:#c75151;fill-opacity:1"
           clip-path="url(#clipPath2456)"
           id="g2454">
          <path
             d="m484.78 221-0.682 9.548 3.626-0.643-1.022-9.232-1.922 0.327"
             style="fill:#c75151;fill-opacity:1"
             id="path2460" />
          <path
             d="m486.3 220.78-1.922 0.242-1.085 9.448 3.626-0.484-0.619-9.206"
             style="fill:#c75151;fill-opacity:1"
             id="path2462" />
          <path
             d="m485.89 220.88-1.921 0.157-1.488 9.347 3.626-0.324-0.217-9.18"
             style="fill:#c75151;fill-opacity:1"
             id="path2464" />
          <path
             d="m485.48 220.99-1.92 0.073-1.892 9.245 3.627-0.164 0.185-9.154"
             style="fill:#c75151;fill-opacity:1"
             id="path2466" />
          <path
             d="m485.08 221.1-1.92-0.012-2.294 9.144 3.626-0.004 0.588-9.128"
             style="fill:#c75151;fill-opacity:1"
             id="path2468" />
          <path
             d="m484.67 221.2-1.92-0.097-2.697 9.044 3.627 0.156 0.99-9.103"
             style="fill:#c75151;fill-opacity:1"
             id="path2470" />
          <path
             d="m484.26 221.31-1.918-0.181-3.101 8.942 3.627 0.316 1.392-9.077"
             style="fill:#c75151;fill-opacity:1"
             id="path2472" />
          <path
             d="m483.85 221.42-1.918-0.266-3.504 8.841 3.628 0.476 1.794-9.051"
             style="fill:#c75151;fill-opacity:1"
             id="path2474" />
          <path
             d="m481.53 221.17-3.906 8.74 3.627 0.636 2.197-9.025-1.918-0.351"
             style="fill:#c75151;fill-opacity:1"
             id="path2476" />
        </g>
      </g>
      <g
         transform="matrix(1.0379 0 0 -1.0379 -126.59 764.54)"
         id="g2478">
        <g
           clip-path="url(#clipPath2482)"
           id="g2480">
          <g
             id="g2492"
             clip-path="url(#clipPath2494)">
            <path
               id="path2498"
               style="fill:none;stroke:#231f20;stroke-width:0.54000002;stroke-miterlimit:3.86400008"
               d="m 485.82,229.01 c 0,0 1.102,-7.13 -2.295,-6.499 -3.398,0.63 -4.09,6.404 -4.09,6.404 0,0 3.681,1.605 6.385,0.095 z"
               inkscape:connector-curvature="0" />
            <path
               id="path2500"
               style="fill:#ecdcc4;stroke:#736d69;stroke-width:0.54000002;stroke-miterlimit:3.86400008;fill-opacity:1;stroke-opacity:1"
               d="m 505.31,220.49 c -0.768,0.461 0.179,1.713 0.871,2.458 0.665,0.717 1.631,0.897 1.536,1.261 -0.615,2.355 -4.615,1.527 -4.686,1.492 -2.311,-1.13 0.088,-5.065 0.088,-5.065 -2.674,-9.525 -8.066,-2.999 -8.066,-2.999 l -1.504,-1.929 c 0,0 7.321,-7.483 10.42,3.211 0,0 2.635,-1.705 3.696,1.008 0.922,2.355 -0.819,2.407 -1.177,0.973 -0.103,-0.41 -0.761,-0.66 -1.178,-0.41 z"
               inkscape:connector-curvature="0" />
            <path
               id="path2502"
               style="fill:#231f20"
               d="m 495.96,219.41 c 0,0 -7.13,1.101 -6.5,-2.296 0.63,-3.398 6.404,-4.089 6.404,-4.089 0,0 1.605,3.68 0.096,6.385"
               inkscape:connector-curvature="0" />
          </g>
        </g>
      </g>
      <g
         transform="matrix(1.0379 0 0 -1.0379 -126.59 764.54)"
         id="g2504">
        <g
           clip-path="url(#clipPath2508)"
           id="g2506">
          <path
             d="m487.95 218.38 9.549-0.682-0.643 3.626-9.232-1.022 0.326-1.922"
             style="fill:#918f90"
             id="path2512" />
          <path
             d="m487.73 219.9 0.242-1.922 9.447-1.085-0.483 3.626-9.206-0.619"
             style="fill:#999798"
             id="path2514" />
          <path
             d="m487.83 219.49 0.157-1.921 9.347-1.489-0.324 3.627-9.18-0.217"
             style="fill:#a2a0a0"
             id="path2516" />
          <path
             d="m487.94 219.08 0.072-1.92 9.246-1.892-0.164 3.627-9.154 0.185"
             style="fill:#aaa8a9"
             id="path2518" />
          <path
             d="m488.04 218.67-0.012-1.92 9.144-2.294-0.004 3.626-9.128 0.588"
             style="fill:#b2b1b1"
             id="path2520" />
          <path
             d="m488.15 218.27-0.097-1.919 9.043-2.698 0.156 3.627-9.102 0.99"
             style="fill:#bab9b9"
             id="path2522" />
          <path
             d="m488.26 217.86-0.182-1.919 8.942-3.101 0.317 3.627-9.077 1.393"
             style="fill:#c3c1c2"
             id="path2524" />
          <path
             d="m488.36 217.45-0.266-1.919 8.841-3.504 0.476 3.628-9.051 1.795"
             style="fill:#cbcaca"
             id="path2526" />
          <path
             d="m488.12 215.13 8.74-3.907 0.636 3.627-9.025 2.198-0.351-1.918"
             style="fill:#d3d2d2"
             id="path2528" />
        </g>
      </g>
      <g
         style="fill:#c75151;fill-opacity:1"
         transform="matrix(1.0379 0 0 -1.0379 -126.59 764.54)"
         id="g2530">
        <g
           style="fill:#c75151;fill-opacity:1"
           clip-path="url(#clipPath2534)"
           id="g2532">
          <g
             style="fill:#c75151;fill-opacity:1"
             clip-path="url(#clipPath2540)"
             id="g2538">
            <g
               style="fill:#c75151;fill-opacity:1"
               clip-path="url(#clipPath2546)"
               id="g2544">
              <path
                 d="m495.96 219.41s-7.13 1.101-6.5-2.296c0.63-3.398 6.404-4.089 6.404-4.089s1.605 3.68 0.096 6.385z"
                 style="stroke:#231f20;stroke-miterlimit:3.864;stroke-width:0.54;fill:#c75151;fill-opacity:1"
                 id="path2550" />
              <path
                 d="m486 227.11s1.509-4.928 7.278-6.492c0 0-0.571-9.63-6.388-13.787-1.609-1.15-10.934 5.264-12.879 11.911 7.062 1.244 11.989 8.368 11.989 8.368"
                 style="fill:#c75151;fill-opacity:1"
                 id="path2552" />
            </g>
          </g>
        </g>
      </g>
      <g
         style="fill:#c75151;fill-opacity:1"
         transform="matrix(1.0379 0 0 -1.0379 -126.59 764.54)"
         id="g2554">
        <g
           style="fill:#c75151;fill-opacity:1"
           clip-path="url(#clipPath2558)"
           id="g2556">
          <path
             d="m485.19 229.11-12.615-10.658 2.385-4.499 12.5 12.858-2.27 2.299"
             style="fill:#c75151;fill-opacity:1"
             id="path2562" />
          <path
             d="m472.65 218.33 2.382-4.456 12.468 12.892-2.25 2.286-12.6-10.722"
             style="fill:#c75151;fill-opacity:1"
             id="path2564" />
          <path
             d="m472.74 218.2 2.38-4.412 12.436 12.925-2.23 2.275-12.586-10.788"
             style="fill:#c75151;fill-opacity:1"
             id="path2566" />
          <path
             d="m472.82 218.07 2.377-4.368 12.404 12.959-2.21 2.262-12.571-10.853"
             style="fill:#c75151;fill-opacity:1"
             id="path2568" />
          <path
             d="m472.9 217.95 2.375-4.325 12.372 12.992-2.19 2.25-12.557-10.917"
             style="fill:#c75151;fill-opacity:1"
             id="path2570" />
          <path
             d="m472.98 217.82 2.372-4.281 12.34 13.026-2.17 2.238-12.542-10.983"
             style="fill:#c75151;fill-opacity:1"
             id="path2572" />
          <path
             d="m473.07 217.69 2.37-4.238 12.308 13.059-2.15 2.226-12.528-11.047"
             style="fill:#c75151;fill-opacity:1"
             id="path2574" />
          <path
             d="m473.15 217.57 2.368-4.195 12.276 13.094-2.13 2.214-12.514-11.113"
             style="fill:#c75151;fill-opacity:1"
             id="path2576" />
          <path
             d="m473.23 217.44 2.365-4.151 12.244 13.127-2.11 2.202-12.499-11.178"
             style="fill:#c75151;fill-opacity:1"
             id="path2578" />
          <path
             d="m473.31 217.31 2.363-4.108 12.212 13.16-2.09 2.19-12.485-11.242"
             style="fill:#c75151;fill-opacity:1"
             id="path2580" />
          <path
             d="m473.4 217.19 2.361-4.064 12.18 13.194-2.07 2.178-12.471-11.308"
             style="fill:#c75151;fill-opacity:1"
             id="path2582" />
          <path
             d="m473.48 217.06 2.357-4.02 12.149 13.227-2.05 2.166-12.456-11.373"
             style="fill:#c75151;fill-opacity:1"
             id="path2584" />
          <path
             d="m473.56 216.93 2.356-3.977 12.116 13.261-2.03 2.154-12.442-11.438"
             style="fill:#c75151;fill-opacity:1"
             id="path2586" />
          <path
             d="m473.64 216.81 2.352-3.933 12.085 13.294-2.01 2.142-12.427-11.503"
             style="fill:#c75151;fill-opacity:1"
             id="path2588" />
          <path
             d="m473.72 216.68 2.35-3.889 12.053 13.328-1.991 2.129-12.412-11.568"
             style="fill:#c75151;fill-opacity:1"
             id="path2590" />
          <path
             d="m473.81 216.55 2.348-3.846 12.021 13.361-1.971 2.118-12.398-11.633"
             style="fill:#c75151;fill-opacity:1"
             id="path2592" />
          <path
             d="m473.89 216.43 2.345-3.802 11.989 13.395-1.951 2.105-12.383-11.698"
             style="fill:#c75151;fill-opacity:1"
             id="path2594" />
          <path
             d="m473.97 216.3 2.343-3.758 11.958 13.428-1.932 2.094-12.369-11.764"
             style="fill:#c75151;fill-opacity:1"
             id="path2596" />
          <path
             d="m474.06 216.17 2.34-3.715 11.926 13.462-1.912 2.081-12.354-11.828"
             style="fill:#c75151;fill-opacity:1"
             id="path2598" />
          <path
             d="m474.14 216.05 2.338-3.671 11.894 13.495-1.892 2.069-12.34-11.893"
             style="fill:#c75151;fill-opacity:1"
             id="path2600" />
          <path
             d="m474.22 215.92 2.336-3.628 11.862 13.528-1.872 2.058-12.326-11.958"
             style="fill:#c75151;fill-opacity:1"
             id="path2602" />
          <path
             d="m474.3 215.79 2.333-3.584 11.83 13.562-1.852 2.045-12.311-12.023"
             style="fill:#c75151;fill-opacity:1"
             id="path2604" />
          <path
             d="m474.38 215.67 2.331-3.54 11.798 13.595-1.832 2.034-12.297-12.089"
             style="fill:#c75151;fill-opacity:1"
             id="path2606" />
          <path
             d="m474.47 215.54 2.328-3.497 11.766 13.629-1.812 2.021-12.282-12.153"
             style="fill:#c75151;fill-opacity:1"
             id="path2608" />
          <path
             d="m474.55 215.41 2.326-3.453 11.734 13.662-1.792 2.009-12.268-12.218"
             style="fill:#c75151;fill-opacity:1"
             id="path2610" />
          <path
             d="m474.63 215.29 2.324-3.409 11.702 13.696-1.773 1.997-12.253-12.284"
             style="fill:#c75151;fill-opacity:1"
             id="path2612" />
          <path
             d="m474.71 215.16 2.32-3.366 11.671 13.729-1.753 1.985-12.238-12.348"
             style="fill:#c75151;fill-opacity:1"
             id="path2614" />
          <path
             d="m474.8 215.03 2.318-3.322 11.639 13.762-1.733 1.974-12.224-12.414"
             style="fill:#c75151;fill-opacity:1"
             id="path2616" />
          <path
             d="m474.88 214.91 2.315-3.279 11.607 13.796-1.713 1.961-12.209-12.478"
             style="fill:#c75151;fill-opacity:1"
             id="path2618" />
          <path
             d="m474.96 214.78 2.313-3.235 11.575 13.83-1.693 1.948-12.195-12.543"
             style="fill:#c75151;fill-opacity:1"
             id="path2620" />
          <path
             d="m475.04 214.65 2.311-3.191 11.543 13.863-1.673 1.937-12.181-12.609"
             style="fill:#c75151;fill-opacity:1"
             id="path2622" />
          <path
             d="m475.13 214.53 2.308-3.148 11.511 13.896-1.653 1.925-12.166-12.673"
             style="fill:#c75151;fill-opacity:1"
             id="path2624" />
          <path
             d="m475.21 214.4 2.306-3.105 11.479 13.931-1.633 1.912-12.152-12.738"
             style="fill:#c75151;fill-opacity:1"
             id="path2626" />
          <path
             d="m475.29 214.27 2.304-3.061 11.447 13.964-1.613 1.901-12.138-12.804"
             style="fill:#c75151;fill-opacity:1"
             id="path2628" />
          <path
             d="m475.37 214.15 2.301-3.018 11.415 13.998-1.593 1.888-12.123-12.868"
             style="fill:#c75151;fill-opacity:1"
             id="path2630" />
          <path
             d="m475.46 214.02 2.299-2.974 11.383 14.031-1.573 1.877-12.109-12.934"
             style="fill:#c75151;fill-opacity:1"
             id="path2632" />
          <path
             d="m475.54 213.89 2.296-2.93 11.351 14.065-1.554 1.864-12.093-12.999"
             style="fill:#c75151;fill-opacity:1"
             id="path2634" />
          <path
             d="m475.62 213.77 2.294-2.887 11.319 14.098-1.533 1.852-12.08-13.063"
             style="fill:#c75151;fill-opacity:1"
             id="path2636" />
          <path
             d="m475.7 213.64 2.291-2.843 11.288 14.132-1.514 1.84-12.065-13.129"
             style="fill:#c75151;fill-opacity:1"
             id="path2638" />
          <path
             d="m475.78 213.51 2.289-2.8 11.256 14.165-1.495 1.828-12.05-13.193"
             style="fill:#c75151;fill-opacity:1"
             id="path2640" />
          <path
             d="m475.87 213.39 2.286-2.756 11.225 14.199-1.475 1.816-12.036-13.259"
             style="fill:#c75151;fill-opacity:1"
             id="path2642" />
          <path
             d="m475.95 213.26 2.284-2.712 11.193 14.232-1.455 1.804-12.022-13.324"
             style="fill:#c75151;fill-opacity:1"
             id="path2644" />
          <path
             d="m476.03 213.13 2.281-2.669 11.161 14.265-1.435 1.792-12.007-13.388"
             style="fill:#c75151;fill-opacity:1"
             id="path2646" />
          <path
             d="m476.11 213.01 2.279-2.625 11.129 14.299-1.415 1.78-11.993-13.454"
             style="fill:#c75151;fill-opacity:1"
             id="path2648" />
          <path
             d="m476.2 212.88 2.276-2.581 11.097 14.332-1.395 1.768-11.978-13.519"
             style="fill:#c75151;fill-opacity:1"
             id="path2650" />
          <path
             d="m476.28 212.75 2.274-2.538 11.065 14.366-1.375 1.756-11.964-13.584"
             style="fill:#c75151;fill-opacity:1"
             id="path2652" />
          <path
             d="m476.36 212.63 2.272-2.494 11.033 14.399-1.355 1.744-11.95-13.649"
             style="fill:#c75151;fill-opacity:1"
             id="path2654" />
          <path
             d="m476.44 212.5 2.269-2.451 11.001 14.433-1.335 1.731-11.935-13.713"
             style="fill:#c75151;fill-opacity:1"
             id="path2656" />
          <path
             d="m476.53 212.37 2.267-2.407 10.969 14.466-1.315 1.72-11.921-13.779"
             style="fill:#c75151;fill-opacity:1"
             id="path2658" />
          <path
             d="m476.61 212.25 2.264-2.363 10.937 14.499-1.295 1.708-11.906-13.844"
             style="fill:#c75151;fill-opacity:1"
             id="path2660" />
          <path
             d="m476.69 212.12 2.262-2.32 10.905 14.533-1.276 1.696-11.891-13.909"
             style="fill:#c75151;fill-opacity:1"
             id="path2662" />
          <path
             d="m476.77 211.99 2.26-2.276 10.873 14.566-1.256 1.684-11.877-13.974"
             style="fill:#c75151;fill-opacity:1"
             id="path2664" />
          <path
             d="m476.86 211.87 2.256-2.232 10.842 14.6-1.236 1.671-11.862-14.039"
             style="fill:#c75151;fill-opacity:1"
             id="path2666" />
          <path
             d="m476.94 211.74 2.254-2.189 10.81 14.633-1.216 1.66-11.848-14.104"
             style="fill:#c75151;fill-opacity:1"
             id="path2668" />
          <path
             d="m477.02 211.61 2.251-2.145 10.778 14.667-1.196 1.647-11.833-14.169"
             style="fill:#c75151;fill-opacity:1"
             id="path2670" />
          <path
             d="m477.1 211.49 2.249-2.101 10.746 14.7-1.176 1.636-11.819-14.235"
             style="fill:#c75151;fill-opacity:1"
             id="path2672" />
          <path
             d="m477.18 211.36 2.247-2.058 10.714 14.734-1.156 1.623-11.805-14.299"
             style="fill:#c75151;fill-opacity:1"
             id="path2674" />
          <path
             d="m489.06 225.6-11.79-14.364 2.244-2.015 10.682 14.768-1.136 1.611"
             style="fill:#c75151;fill-opacity:1"
             id="path2676" />
        </g>
      </g>
      <path
         d="m377.82 528.82s1.5662 5.1147 7.5538 6.738c0 0-0.59263 9.9949-6.6301 14.309-1.67 1.1936-11.348-5.4635-13.367-12.362 7.3296-1.2911 12.443-8.6851 12.443-8.6851z"
         style="stroke:#231f20;stroke-miterlimit:3.864;stroke-width:.56046;fill:none"
         id="path2698" />
      <path
         inkscape:connector-curvature="0"
         id="path9010"
         style="fill:none;stroke:#231f20;stroke-width:0.41;stroke-linecap:butt;stroke-linejoin:round;stroke-miterlimit:3.86400008;stroke-dasharray:none"
         d="m 384.30861,524.29693 c 0,0 0.17283,1.2893 1.32746,0.85007" />
    </g>
  </g>
  <metadata
     id="metadata8434">
    <rdf:RDF>
      <cc:Work>
        <dc:format>image/svg+xml</dc:format>
        <dc:type
           rdf:resource="http://purl.org/dc/dcmitype/StillImage" />
        <cc:license
           rdf:resource="http://creativecommons.org/licenses/publicdomain/" />
        <dc:publisher>
          <cc:Agent
             rdf:about="http://openclipart.org/">
            <dc:title>Openclipart</dc:title>
          </cc:Agent>
        </dc:publisher>
        <dc:title>58294main_The.Brain.in.Space-page-21-asian-girl-falling</dc:title>
        <dc:date>2010-04-06T07:38:19</dc:date>
        <dc:description>This is clipart converted and broken apart that has been released into the public domain because the document says so, and its from NASA, a USA government agency. The publication is called &quot;The Brain in Space:&quot;\n\nhttp://www.nasa.gov/audience/foreducators/topnav/materials/listbytype/The.Brain.in.Space.html</dc:description>
        <dc:source>https://openclipart.org/detail/38107/-by-rejon-38107</dc:source>
        <dc:creator>
          <cc:Agent>
            <dc:title>rejon</dc:title>
          </cc:Agent>
        </dc:creator>
        <dc:subject>
          <rdf:Bag>
            <rdf:li>astronomy</rdf:li>
            <rdf:li>brain</rdf:li>
            <rdf:li>converted</rdf:li>
            <rdf:li>government</rdf:li>
            <rdf:li>nasa</rdf:li>
            <rdf:li>science</rdf:li>
            <rdf:li>space</rdf:li>
            <rdf:li>usa</rdf:li>
          </rdf:Bag>
        </dc:subject>
      </cc:Work>
      <cc:License
         rdf:about="http://creativecommons.org/licenses/publicdomain/">
        <cc:permits
           rdf:resource="http://creativecommons.org/ns#Reproduction" />
        <cc:permits
           rdf:resource="http://creativecommons.org/ns#Distribution" />
        <cc:permits
           rdf:resource="http://creativecommons.org/ns#DerivativeWorks" />
      </cc:License>
    </rdf:RDF>
  </metadata>
</svg>
