<?xml version="1.0" encoding="UTF-8" standalone="no"?>
<!-- Created with Inkscape (http://www.inkscape.org/) -->

<svg
   xmlns:dc="http://purl.org/dc/elements/1.1/"
   xmlns:cc="http://creativecommons.org/ns#"
   xmlns:rdf="http://www.w3.org/1999/02/22-rdf-syntax-ns#"
   xmlns:svg="http://www.w3.org/2000/svg"
   xmlns="http://www.w3.org/2000/svg"
   xmlns:sodipodi="http://sodipodi.sourceforge.net/DTD/sodipodi-0.dtd"
   xmlns:inkscape="http://www.inkscape.org/namespaces/inkscape"
   width="150mm"
   height="210mm"
   viewBox="0 0 150 210"
   version="1.1"
   id="svg10875"
   inkscape:version="0.92.1 r15371"
   sodipodi:docname="leprechaunbeer.svg">
  <defs
     id="defs10869" />
  <sodipodi:namedview
     id="base"
     pagecolor="#ffffff"
     bordercolor="#666666"
     borderopacity="1.0"
     inkscape:pageopacity="0.0"
     inkscape:pageshadow="2"
     inkscape:zoom="0.17430741"
     inkscape:cx="376.49064"
     inkscape:cy="417.56475"
     inkscape:document-units="mm"
     inkscape:current-layer="g11491"
     showgrid="false"
     inkscape:snap-global="false"
     inkscape:window-width="1366"
     inkscape:window-height="706"
     inkscape:window-x="-8"
     inkscape:window-y="-8"
     inkscape:window-maximized="1"
     fit-margin-top="0"
     fit-margin-left="0"
     fit-margin-right="0"
     fit-margin-bottom="0" />
  <metadata
     id="metadata10872">
    <rdf:RDF>
      <cc:Work
         rdf:about="">
        <dc:format>image/svg+xml</dc:format>
        <dc:type
           rdf:resource="http://purl.org/dc/dcmitype/StillImage" />
        <dc:title></dc:title>
      </cc:Work>
    </rdf:RDF>
  </metadata>
  <g
     inkscape:label="Layer 1"
     inkscape:groupmode="layer"
     id="layer1"
     transform="translate(-0.14542907,-43.581658)">
    <g
       id="g11491"
       transform="translate(3.7041668,-3.1750001)">
      <g
         id="g11543">
        <path
           style="fill:#e8beac;fill-opacity:1;stroke:none;stroke-width:0.26458332px;stroke-linecap:butt;stroke-linejoin:miter;stroke-opacity:1"
           d="m 94.873597,72.723972 -31.301832,14.682819 3.226993,4.033742 -0.806749,6.453987 2.097545,9.03558 5.16319,2.09755 2.904295,-0.32271 4.356441,-3.22699 2.258893,4.67914 3.388344,11.93988 15.166863,-5.80859 -0.96809,-5.16319 0.80675,-5.64724 0.80674,-3.22699 3.5497,-3.549694 -0.16135,-1.774846 -3.71104,-2.904292 -6.292643,-3.388344 -0.161348,-11.778525 z"
           id="path11464"
           inkscape:connector-curvature="0" />
        <path
           inkscape:connector-curvature="0"
           style="fill:#bf8b34;fill-opacity:1;stroke:none;stroke-width:0.26458332px;stroke-linecap:butt;stroke-linejoin:miter;stroke-opacity:1"
           d="m 119.56014,90.794974 -3.54965,2.259293 -1.12965,4.840015 1.93632,3.550168 4.51755,3.22668 1.74046,0.30747 0.75913,0.80926 -2.17661,0.17415 -0.64544,1.77508 v 1.12913 l 5.00176,1.61334 -1.4521,2.74298 -3.71089,1.45211 -0.16123,7.74527 -0.80719,7.26054 2.42053,1.61333 7.58351,0.80667 9.68107,-1.12913 -0.96842,-3.7114 -0.48421,-7.583 -3.71088,-0.48421 -0.9679,-1.4521 1.61334,-2.25878 -0.9679,-1.93632 1.61333,-3.06596 -0.96789,-3.54965 0.64543,-1.45211 4.1951,-1.12913 1.29036,-12.747027 z m -0.9679,3.7114 2.42001,0.161232 0.80667,2.742986 -0.10387,0.779795 -0.21859,-0.134358 -0.56896,2.030881 -2.17403,-1.70842 -0.80667,-1.613339 z m 6.76703,10.672736 0.33228,0.46044 -0.36845,0.0294 z"
           id="path11470" />
        <path
           style="fill:#e8beac;fill-opacity:1;stroke:none;stroke-width:0.26458332px;stroke-linecap:butt;stroke-linejoin:miter;stroke-opacity:1"
           d="m 125.73651,110.15709 -7.58344,-1.93619 -2.90429,3.06564 -3.5497,2.09755 -2.74294,7.58343 2.25889,9.51963 4.1951,4.84049 3.22699,-3.54969 0.6454,-2.09755 2.25889,-3.06564 -0.6454,-11.61718 4.35645,-2.25889 z"
           id="path11466"
           inkscape:connector-curvature="0" />
        <path
           style="fill:#4aac4f;fill-opacity:1;stroke:none;stroke-width:0.26458332px;stroke-linecap:butt;stroke-linejoin:miter;stroke-opacity:1"
           d="m 4.839939,197.29725 19.359756,6.13059 26.13567,-3.54929 15.165143,-13.55183 13.874491,-3.54928 2.581301,-10.32521 -0.967988,-17.74644 6.453251,3.87195 8.389228,-1.61331 6.130589,-6.13059 1.61331,-3.87195 7.74391,-6.77592 3.22662,-5.1626 -3.87195,-4.51727 -2.25864,-5.80793 -0.64532,-5.48526 -15.326475,3.54953 -15.326475,-0.64557 -28.394308,-17.10112 -14.358355,10.00254 -3.549329,2.58138 -1.452072,4.5172 -7.743902,7.09857 -7.42124,8.38923 -0.322662,4.19462 -4.5172766,1.61331 -2.5813009,6.13059 3.2266265,11.93851 -5.4852646,5.48527 -2.9039634,10.64786 1.2906504,6.77592 1.2906505,3.54929 z"
           id="path11444"
           inkscape:connector-curvature="0"
           sodipodi:nodetypes="ccccccccccccccccccccccccccccccccc" />
        <path
           style="fill:#df6334;fill-opacity:1;stroke:none;stroke-width:0.26458332px;stroke-linecap:butt;stroke-linejoin:miter;stroke-opacity:1"
           d="m 55.98833,90.795135 -12.262572,15.973615 -0.48405,5.32454 4.51779,-0.16135 1.290799,1.45215 2.097545,-0.48405 0.322699,0.16135 v 3.87239 l 1.290796,0.16135 3.549692,-4.03374 2.258896,-0.3227 -1.452147,4.35644 -0.484047,5.80859 1.613495,3.22699 1.452147,0.9681 3.711044,-0.6454 3.065642,-3.22699 2.097545,1.29079 -0.322699,6.77669 8.067482,4.35644 7.906133,-1.45215 4.679141,3.22699 7.744785,-0.48405 2.097545,2.09755 h 3.226989 l 3.71104,-5.96994 -1.93619,-11.77852 -3.38834,-5.48589 -3.065646,1.2908 -2.581595,-1.9362 -2.097545,0.80675 -1.452147,0.48405 -1.129448,-0.80675 -2.581595,-3.22699 -1.452147,0.16135 -0.968098,3.22699 -1.290796,0.16135 -0.806749,-6.45399 -2.581595,-4.19509 -4.356441,3.38834 -5.324539,0.32271 -3.872391,-5.80859 -1.129448,-13.392025 z"
           id="path11450"
           inkscape:connector-curvature="0" />
        <path
           style="fill:#2c6b2f;fill-opacity:1;stroke:none;stroke-width:0.26458332px;stroke-linecap:butt;stroke-linejoin:miter;stroke-opacity:1"
           d="m 8.3892275,202.45985 36.1382105,-0.96798 -1.290651,10.00254 -13.229167,2.25864 -6.775913,3.54928 -1.613313,3.22663 1.935976,8.71189 -8.711891,0.96799 -5.8079264,-9.03455 -3.5492885,-5.48527 -0.6453251,-8.06656 1.9359755,-6.13059 z"
           id="path11446"
           inkscape:connector-curvature="0" />
        <path
           style="fill:#75c979;fill-opacity:1;stroke:none;stroke-width:0.26499999;stroke-linecap:butt;stroke-linejoin:miter;stroke-miterlimit:4;stroke-dasharray:none;stroke-opacity:1"
           d="m 68.404472,56.616361 -9.034555,-4.517276 -8.71189,3.549287 17.101118,11.293192 z"
           id="path11448"
           inkscape:connector-curvature="0" />
        <path
           style="fill:#668667;fill-opacity:1;stroke:none;stroke-width:0.26458332px;stroke-linecap:butt;stroke-linejoin:miter;stroke-opacity:1"
           d="m 13.876071,141.29758 -5.1631895,3.87239 -0.968098,9.19693 4.3564405,10.48773 5.808588,0.80674 11.778525,-1.77484 1.290796,-16.29632 -0.968097,-2.74294 -10.487727,-3.38834 z"
           id="path11452"
           inkscape:connector-curvature="0" />
        <path
           style="fill:#668667;fill-opacity:1;stroke:none;stroke-width:0.26458332px;stroke-linecap:butt;stroke-linejoin:miter;stroke-opacity:1"
           d="m 42.641427,111.77059 -8.71288,4.19509 -4.517792,3.71104 0.322699,1.9362 10.971779,3.87239 15.005518,9.19693 7.583432,4.84049 5.001839,-8.22883 0.806749,-5.32454 -0.806749,-2.74294 -2.904294,1.45214 -1.936194,2.42025 -4.51779,-0.3227 -1.936197,-5.48589 0.806749,-4.84049 1.613495,-3.38834 -1.774846,-0.80675 -3.065642,3.54969 -1.290799,1.9362 -1.290796,-1.6135 0.161351,-3.54969 -1.452147,0.6454 h -1.613498 l -1.290797,-1.6135 -3.711043,1.2908 z"
           id="path11454"
           inkscape:connector-curvature="0" />
        <path
           style="fill:#6d3b34;fill-opacity:1;stroke:none;stroke-width:0.26458332px;stroke-linecap:butt;stroke-linejoin:miter;stroke-opacity:1"
           d="m 34.367478,222.61781 -6.453987,9.51962 -5.808588,-1.77484 -10.165028,0.96809 -0.484049,10.64908 1.936196,4.67914 14.682817,0.48405 6.776686,5.00184 14.84417,-1.77484 4.033742,-5.96994 -11.455826,-2.09755 -1.774846,-4.67914 9.035579,0.16135 12.262575,-0.80675 5.647237,-4.35644 -2.581595,-2.25889 -12.90797,0.48405 -6.292639,-4.51779 -0.484047,-3.5497 -6.292638,0.3227 -1.613495,1.45215 -2.258896,-0.9681 z"
           id="path11456"
           inkscape:connector-curvature="0" />
        <path
           style="fill:#e8beac;fill-opacity:1;stroke:none;stroke-width:0.26458332px;stroke-linecap:butt;stroke-linejoin:miter;stroke-opacity:1"
           d="m 14.521469,165.98407 -0.322699,7.58344 -1.936196,11.13313 1.452147,4.35644 0.968098,3.38834 1.613496,2.09754 1.936196,0.6454 1.452147,-0.3227 -1.613496,-3.54969 0.645398,-1.12945 2.742944,1.2908 2.097546,2.42025 1.936196,0.32269 2.420245,1.77485 1.452147,-1.2908 -0.322699,-6.45398 1.613495,-9.03558 1.613498,1.77484 3.549693,0.16135 0.806749,-1.12945 v -1.29079 l -6.776689,-13.71472 h -4.356439 l -5.647238,0.64539 z"
           id="path11458"
           inkscape:connector-curvature="0" />
        <path
           style="fill:#e8beac;fill-opacity:1;stroke:none;stroke-width:0.26458332px;stroke-linecap:butt;stroke-linejoin:miter;stroke-opacity:1"
           d="m 143.2785,104.67121 h -6.45399 l -2.2589,1.45214 0.6454,3.38834 h 1.9362 l -2.42025,1.9362 -0.80674,2.42025 0.96809,1.61349 -1.12944,2.90429 1.29079,0.64541 h 3.227 v 2.42024 l 1.61349,0.3227 3.38835,-1.12945 v -2.09754 l -1.77485,-6.61534 1.2908,-3.71104 z"
           id="path11468"
           inkscape:connector-curvature="0" />
        <path
           style="fill:#957339;fill-opacity:1;stroke:none;stroke-width:0.26458332px;stroke-linecap:butt;stroke-linejoin:miter;stroke-opacity:1"
           d="m 59.215324,155.9804 -4.679141,1.93619 -1.613495,5.16319 5.163187,3.87239 h 10.326381 l 1.129445,-7.42208 -2.258893,-2.2589 z"
           id="path11475"
           inkscape:connector-curvature="0" />
        <path
           inkscape:connector-curvature="0"
           id="path11511"
           d="m 108.07599,119.60984 -4.48395,2.01005 1.39157,6.49399 0.7731,6.6486 -3.09238,4.48394 3.86547,3.55623 4.02009,0.15462 2.93775,-5.10242 -0.15462,-3.86546 -3.09237,-4.48395 -1.70081,-7.57632 z"
           style="fill:#668667;stroke:none;stroke-width:0.26458332px;stroke-linecap:butt;stroke-linejoin:miter;stroke-opacity:1;fill-opacity:1" />
        <path
           id="path11442"
           transform="matrix(0.26458333,0,0,0.26458333,-3.5587377,46.756658)"
           d="M 243.56055 19.431641 C 233.50247 19.447023 220.57822 21.895125 214.68359 24.902344 C 211.76773 26.38989 209.03855 27.263176 208.61914 26.84375 C 207.39227 25.61687 202.97461 30.28387 202.97461 32.806641 C 202.97461 34.075311 201.47396 36.097581 199.64062 37.298828 C 197.80729 38.500075 196.30664 40.567102 196.30664 41.892578 C 196.30664 43.218055 194.81357 47.252047 192.98828 50.857422 C 191.13295 54.522173 190.01344 58.49614 190.44922 59.869141 C 190.95208 61.453594 190.27533 62.992299 188.54102 64.207031 C 186.52468 65.61935 185.62004 68.268738 184.91992 74.806641 C 184.30541 80.544655 182.92166 85.088596 180.87305 88.107422 C 178.5136 91.584266 177.59093 95.199041 177.05469 103.05664 C 176.6657 108.75656 176.02087 115.52122 175.62109 118.08789 C 175.22132 120.65456 174.65652 129.91915 174.36523 138.67578 C 173.91558 152.19341 173.45813 154.91074 171.3418 156.67578 C 169.97083 157.81916 167.13595 161.31992 165.04102 164.45508 C 162.80208 167.80582 157.33137 172.73525 151.76953 176.41602 C 146.56542 179.86 141.10729 183.78336 139.64062 185.13477 C 138.17396 186.48621 133.67396 189.48393 129.64062 191.79492 C 122.35261 195.97073 119.88648 197.87325 108.51367 208.08789 C 97.028134 218.40377 89.640625 225.85886 89.640625 227.13672 C 89.640625 229.61654 93.502843 237.64712 95.488281 239.29492 C 102.11111 244.79138 124.05274 246.24529 148.30664 242.79492 C 164.19946 240.53405 166.18721 240.43532 162.01758 242.11328 C 158.43323 243.55574 131.20029 261.72547 128.22461 264.66016 C 122.05885 270.74096 118.89881 276.54036 119.5957 280.49609 C 120.20967 283.98104 119.70174 284.91147 115.89258 287.26562 C 110.9595 290.31446 91.39535 309.72872 86.525391 316.4082 C 84.792602 318.78481 79.438438 324.48421 74.628906 329.07422 C 66.335716 336.98897 60.145468 346.52385 58.28125 354.25 C 57.817336 356.17268 55.833805 358.54421 53.873047 359.52148 C 49.455865 361.72306 44.306641 366.14985 44.306641 367.74609 C 44.306641 368.40279 42.536381 371.51497 40.371094 374.66211 C 36.93627 379.65445 36.503265 381.29979 36.982422 387.56836 C 37.700237 396.9592 41.942939 414.84316 44.960938 421.20312 C 46.998855 425.49769 47.091607 426.70995 45.601562 429.49414 C 44.641785 431.28749 43.089153 432.75391 42.150391 432.75391 C 41.211632 432.75391 38.808942 435.00392 36.810547 437.75391 C 34.812148 440.50389 31.358533 445.12059 29.136719 448.01367 C 24.495924 454.05661 19.535899 467.75313 18.197266 478.22461 C 17.691368 482.18204 16.403182 487.15016 15.333984 489.26367 C 13.364628 493.15662 13.496789 495.86244 16.255859 508.08789 C 17.08336 511.75456 18.033795 516.0569 18.367188 517.65039 C 18.700591 519.24388 20.504583 522.36855 22.376953 524.59375 C 25.477133 528.27811 25.650539 529.09206 24.304688 533.69727 C 23.432826 536.68056 22.99411 546.40778 23.234375 557.41992 L 23.640625 576.08789 L 28.306641 577.62891 C 32.466041 579.00224 32.935172 579.62927 32.621094 583.39844 C 32.427283 585.72436 31.247633 589.53078 30 591.85742 C 28.156683 595.29494 27.740934 599.70971 27.773438 615.41992 C 27.808478 632.27677 28.212446 635.8634 30.935547 643.41992 C 32.653282 648.18659 35.465318 653.18676 37.183594 654.53125 C 38.901869 655.87574 40.310987 657.67572 40.314453 658.53125 C 40.317957 659.38675 42.342174 662.28709 44.8125 664.97656 C 51.140196 671.86562 52.567323 676.60203 49.949219 682.00781 C 48.043006 685.9437 48.05511 686.63433 50.085938 690.07227 C 53.497308 695.84723 52.901255 701.27365 48.300781 706.31055 C 46.097022 708.72332 43.957246 711.75946 43.544922 713.05859 C 43.132598 714.35769 42.234698 715.41992 41.550781 715.41992 C 39.81032 715.41992 39.997003 727.42729 41.822266 732.88867 C 42.655379 735.38142 44.832981 739.0346 46.662109 741.00781 C 49.509556 744.07959 50.011808 745.94808 50.148438 753.99609 L 50.306641 763.39453 L 56.306641 765.46289 C 65.800118 768.73517 86.519652 769.56477 92.802734 766.92383 C 95.64229 765.73025 101.04229 764.75649 104.80273 764.75781 C 111.33791 764.76125 111.75776 764.98211 114.30664 769.75781 C 115.92952 772.79852 118.11787 774.91669 119.89648 775.16992 C 121.50388 775.39866 125.70454 777.06273 129.23047 778.86719 C 135.25502 781.95034 136.48409 782.09458 149.64062 781.27344 C 173.59248 779.77871 182.10389 779.3689 188.13477 779.41992 C 191.56 779.44887 196.86312 778.14193 201 776.24805 C 204.87077 774.47594 209.8388 772.63019 212.04102 772.14648 C 215.24451 771.44289 216.60942 769.95664 218.86523 764.71289 C 220.41601 761.10802 222.91238 757.50094 224.41406 756.69727 C 226.61991 755.51681 226.98107 754.41994 226.29297 750.99414 C 224.76396 743.38198 224.37457 742.72843 219.98242 740.42969 C 211.69883 736.09427 207.56309 735.15365 192.625 734.20703 C 179.02134 733.345 172.98488 731.6323 175.32227 729.29492 C 175.7831 728.83408 181.219 729.20897 187.40234 730.12891 C 194.77824 731.22625 203.1738 731.46622 211.81055 730.82812 C 219.05084 730.29313 227.58523 729.91817 230.77734 729.99414 C 234.74411 730.08859 240.23116 728.56778 248.11133 725.18945 C 260.13862 720.03323 262.9673 718.13053 262.98242 715.18359 C 262.98745 714.21452 265.09843 711.98698 267.67188 710.23438 C 270.24532 708.48177 272.69234 705.68901 273.10938 704.02734 C 274.70804 697.65786 264.8665 689.17854 252.30664 686.10352 C 240.81091 683.28901 221.04262 681.08479 217.88672 682.26562 C 213.31016 683.97805 208.20214 683.67668 201.17188 681.28125 C 195.59639 679.38147 194.48354 678.30449 191.19531 671.63672 C 188.01681 665.19138 186.76479 663.92619 182.33594 662.68359 C 176.31073 660.99309 173.95207 657.98351 173.0332 650.80664 C 172.66769 647.95177 171.75418 645.00226 171.00391 644.25195 C 170.25361 643.50168 169.62393 641.05696 169.60352 638.82031 C 169.57373 635.5452 171.02436 633.44556 177.05664 628.0332 C 185.0341 620.87561 186.89498 616.27212 187.54102 602.08789 C 187.94134 593.29883 190.10685 590.08789 195.63672 590.08789 C 201.56502 590.08789 213.94463 585.43473 217 582.05859 C 218.31339 580.60729 220.10295 579.41992 220.97852 579.41992 C 224.22732 579.41992 244.71907 562.82793 249.42969 556.38281 C 252.11217 552.71278 257.30794 546.78801 260.97461 543.21484 C 267.81514 536.54874 273.04212 534.34895 292.30664 530.03711 C 296.33996 529.13433 301.30119 527.55604 303.33008 526.5293 C 305.35897 525.50255 310.01985 524.48288 313.6875 524.26367 C 318.32162 523.98644 320.90922 523.10696 322.16992 521.38281 C 329.83507 510.90014 333.77754 464.86988 327.5957 458.03906 C 326.07648 456.36035 325.6759 454.7251 326.39258 453.13672 C 326.98396 451.82605 327.60241 448.65457 327.76758 446.08789 C 327.93263 443.52125 328.49749 437.15172 329.02148 431.93359 L 329.97266 422.44531 L 338.50391 425.53906 L 347.0332 428.63281 L 353.33789 425.9082 C 357.68098 424.03099 362.90376 423.11691 370.13086 422.96875 L 380.61914 422.75391 L 382.13086 418.27539 C 383.2612 414.9251 385.15119 413.08015 389.64062 410.94336 C 394.10189 408.81998 396.32626 406.65896 398.31641 402.51758 C 399.78853 399.4542 402.33983 395.51424 403.98438 393.76367 C 405.62896 392.01315 406.97461 389.27716 406.97461 387.68359 C 406.97461 385.8029 408.72902 383.64524 411.97461 381.5332 C 417.58105 377.8849 421.03268 374.96701 424.63867 370.49805 L 428.35547 372.94336 L 438.58203 362.7168 L 448.80859 344.30859 L 447.19141 340.80469 C 448.11105 339.93607 448.80497 339.43469 449.16992 339.43164 C 451.18547 339.41724 457.40994 332.04662 461.91797 324.33789 L 465.52734 318.16602 L 471.25 320.25977 C 481.56947 324.03669 503.93507 325.72156 520.68359 323.98438 C 548.56978 321.09194 549.29048 320.60883 543.40039 308.68359 C 540.91267 303.64681 539.7859 299.21491 539.72656 294.22461 L 539.64062 287.0293 L 548.19922 284.59961 C 552.90651 283.26332 557.29721 281.63052 557.95508 280.97266 C 560.60559 278.32226 560.49274 271.42572 557.73633 267.55469 C 555.34559 264.19707 555.01034 261.7748 555.07422 248.32422 C 555.13299 235.95492 555.56336 232.59244 557.26562 231.17969 C 558.4304 230.213 560.13151 227.63994 561.04688 225.46289 C 562.57732 221.82305 562.42667 221.26082 559.17578 218.46484 C 556.93426 216.53694 553.91007 215.4229 550.91211 215.42188 L 546.18359 215.41992 L 546.74805 202.5293 C 547.23451 191.40708 547.84593 188.66252 551.20117 182.54883 C 555.41432 174.87189 555.18253 172.94332 549.26367 166.44336 C 546.65489 163.57848 545.91874 163.49425 529.70898 164.21875 C 520.1904 164.64417 509.40996 164.36648 504.91992 163.58008 C 493.23725 161.53384 468.41761 160.60457 462.51172 161.99219 C 455.58146 163.62048 451.5453 167.75152 448.19531 176.64062 C 444.02525 187.70583 444.22042 194.5795 448.97461 204.08789 C 451.98043 210.09949 454.61413 213.18254 459.57227 216.49609 C 464.02217 219.46998 466.67933 222.38599 467.73242 225.44922 C 469.61667 230.92991 469.0553 231.67055 463.73633 230.72461 C 460.38525 230.12862 458.34623 230.9851 452.52148 235.44336 C 448.60631 238.44003 442.60762 242.21033 439.18945 243.82227 C 434.39028 246.08548 432.30348 248.12062 430.0293 252.75391 C 428.40954 256.05389 427.03918 259.95328 426.98438 261.41992 C 426.83516 265.42637 422.89154 269.40881 415.22266 273.29492 C 408.55198 276.67522 408.26325 276.70823 405.98828 274.33594 C 402.15928 270.34321 397.61906 260.39102 396.7207 254.02539 C 395.54724 245.71051 395.6478 244.11673 398.11719 232.08789 C 399.32153 226.22123 400.30649 219.16991 400.30664 216.41992 C 400.30679 212.99374 401.18049 210.68678 403.08008 209.08789 C 404.60482 207.80455 408.26307 204.41763 411.20898 201.5625 C 415.842 197.07211 416.45443 195.81691 415.74414 192.26562 C 414.60896 186.58957 407.47442 179.65254 401.02148 177.94922 C 394.24404 176.16029 383.84471 169.61484 381.08203 165.39844 C 379.92293 163.62943 378.97461 159.49541 378.97461 156.21289 C 378.97461 152.93037 378.37397 149.87313 377.64062 149.41992 C 376.90732 148.96668 376.30664 146.49931 376.30664 143.93555 C 376.30664 139.60307 376.80049 139.0506 383.30664 136.10938 C 387.5721 134.1811 392.39076 130.51495 395.64062 126.72461 C 398.57399 123.30342 404.11475 118.47366 407.95312 115.99219 C 411.7915 113.51072 418.53614 108.16707 422.94141 104.11719 C 427.34667 100.06731 431.53477 96.753906 432.24805 96.753906 C 432.96132 96.753906 435.00195 94.609644 436.7832 91.988281 C 439.40022 88.135257 439.89954 86.051152 439.38477 81.111328 C 437.84578 66.342306 433.78868 64.150565 411.30469 65.947266 C 402.90117 66.618793 395.36895 67.826365 394.56641 68.628906 C 393.76386 69.431451 390.94664 70.087891 388.30664 70.087891 C 385.66664 70.087891 382.84168 70.754015 382.02734 71.568359 C 381.21297 72.382704 377.3434 73.850096 373.42773 74.830078 C 369.51207 75.81006 363.73702 77.321666 360.5957 78.189453 L 354.88477 79.767578 L 345.09375 69.228516 C 337.59619 61.158132 332.37347 57.031221 322.80469 51.617188 C 315.93147 47.728292 307.90798 42.822252 304.97461 40.714844 C 302.04128 38.607436 297.84061 36.478186 295.64062 35.982422 C 293.44064 35.486661 285.94126 32.219732 278.97461 28.722656 C 266.0148 22.21719 255.32746 19.413499 243.56055 19.431641 z M 237.0957 26.751953 C 237.48181 26.811217 237.77233 27.172142 238.0293 27.841797 C 239.32114 31.208362 236.50777 33.417212 230.68359 33.611328 C 227.5433 33.716006 223.46729 34.207598 221.625 34.705078 C 219.78271 35.202547 217.83205 35.168 217.29102 34.626953 C 213.61138 30.947337 221.3863 26.575437 229.05273 28.013672 C 231.89071 28.546075 234.55311 28.323963 235.58594 27.466797 C 236.22678 26.934942 236.70959 26.69269 237.0957 26.751953 z M 248.82617 28.759766 C 249.95158 28.799061 250.97461 29.990541 250.97461 32.087891 C 250.97461 34.10129 250.21324 35.419922 249.05273 35.419922 C 246.52846 35.419922 245.43331 33.512203 246.44531 30.875 C 247.01294 29.395778 247.95086 28.729202 248.82617 28.759766 z M 347.56641 136.17773 C 350.59266 136.15959 353.91698 136.47134 357.37305 137.12695 C 365.38788 138.64734 366.09276 139.07881 368.61133 144.01562 C 370.74291 148.19348 371.13859 150.81768 370.52344 156.70312 C 369.53823 166.12912 371.378 169.81521 378.45898 172.59766 C 381.47588 173.78314 384.77654 175.40099 385.79297 176.19141 C 386.8094 176.98178 390.64002 178.73818 394.30664 180.09375 C 401.99118 182.93475 408.30664 188.62111 408.30664 192.69922 C 408.30664 196.65234 404.45314 202.08789 401.65039 202.08789 C 399.10662 202.08789 395.85109 205.18699 397.0918 206.42773 C 397.51068 206.84662 396.77771 208.83123 395.46289 210.83789 C 393.63674 213.62514 393.15908 216.62147 393.44141 223.5332 C 393.85984 233.7826 392.75207 235.19025 382.03516 238.01367 C 375.37242 239.769 367.5256 245.8381 369.44141 247.75391 C 370.27789 248.59039 373.22676 248.22043 377.7832 246.70703 L 384.83203 244.36523 L 388.42578 248.66992 C 392.86324 253.9853 392.10576 259.81494 386.88477 260.5332 C 385.10079 260.77865 383.07168 261.52993 382.375 262.20117 L 382.37305 262.19922 C 380.47202 264.03085 379.73672 263.714 378.29102 260.43945 C 376.50772 256.4002 369.93715 254.10241 367.84375 256.78516 C 365.59058 259.67256 359.45563 262.5433 357.76758 261.5 C 355.6462 260.18892 355.97796 258.08789 358.30664 258.08789 C 362.63031 258.08789 359.47534 253.71153 351.33594 248.41992 C 344.86709 244.2144 341.5671 243.86837 336.92773 246.9082 C 334.3682 248.58529 333.64062 250.20593 333.64062 254.24023 C 333.64062 257.0892 333.03998 259.41992 332.30664 259.41992 C 331.52715 259.41992 330.97461 254.92043 330.97461 248.58594 C 330.97461 239.11236 330.45585 236.73143 326.84961 229.63477 C 322.6673 221.40454 318.59276 216.75391 315.56445 216.75391 C 313.35237 216.75391 304.30664 224.82047 304.30664 226.79297 C 304.30664 229.2172 299.72601 232.75391 296.58594 232.75391 C 291.50338 232.75391 279.55107 227.5053 276.08203 223.75 C 272.32042 219.67805 270.91234 216.62475 270.15625 210.89453 C 269.87619 208.77206 269.15283 206.3734 268.54883 205.5625 C 267.94482 204.75164 267.29961 199.25143 267.11328 193.3418 L 266.77344 182.59766 L 274.16992 177.6875 C 280.51 173.4779 282.01667 172.98318 284.72852 174.21875 C 286.46838 175.01151 289.14824 178.246 290.68359 181.40625 C 293.05668 186.29076 294.46913 187.48144 300.10547 189.35352 C 306.04655 191.32696 307.22899 191.35009 311.47461 189.57617 C 314.86609 188.15911 316.43918 186.52919 317.00781 183.8418 C 317.44473 181.77681 318.11164 178.88661 318.49023 177.41992 C 318.86883 175.95324 319.43554 167.58726 319.75 158.82812 C 320.37404 141.44536 320.67717 140.80745 328.34375 140.77344 C 330.93061 140.76221 334.23123 139.94329 335.67773 138.95312 C 338.30578 137.15419 342.52265 136.20797 347.56641 136.17773 z M 347.54102 147.63086 C 344.95257 147.68465 341.27439 148.65119 338.24609 150.11719 C 332.42369 152.93573 331.41586 154.08383 333.19727 155.86523 C 334.42601 157.09323 335.55461 156.98704 339.88672 155.23633 C 341.95113 154.40204 345.73996 153.34234 348.30664 152.88086 C 354.4311 151.77969 354.61689 148.24426 348.58008 147.66406 C 348.2599 147.63329 347.91079 147.62318 347.54102 147.63086 z M 350.375 158.08789 C 347.6746 158.08789 344.38845 158.66276 343.07227 159.36719 C 339.09673 161.4948 330.92767 170.26446 331.72266 171.55078 C 332.8547 173.38249 335.78643 172.9881 337.64062 170.75391 C 339.93072 167.99451 343.28502 168.25137 345.97461 171.39258 C 348.97181 174.8931 351.88069 173.56839 352.69922 168.33008 C 353.06383 165.99667 353.79558 162.73788 354.32422 161.08789 C 355.20277 158.34603 354.86258 158.08789 350.375 158.08789 z M 466.23438 170.18164 C 468.95808 170.16304 473.03741 170.4015 479.51758 170.78711 C 489.11886 171.35846 506.57329 171.98013 518.30664 172.16797 C 530.03996 172.35577 539.84184 172.87178 540.08789 173.31641 C 540.3339 173.76099 540.136 176.48715 539.64844 179.37305 C 538.6528 185.2662 537.93113 194.77159 537.55469 206.9707 L 537.30273 215.18945 L 531.13867 216.73828 C 524.15702 218.49289 520.30664 221.38604 520.30664 224.88086 C 520.30664 226.19058 519.70791 227.63465 518.97461 228.08789 C 516.78358 229.44198 517.45801 233.33823 520.30664 235.77734 C 523.4647 238.48133 523.76258 242.43913 520.98047 244.74805 C 517.91633 247.29106 515.50108 256.48155 517.39844 258.37891 C 518.56144 259.54202 518.47976 260.42627 517.06055 262.00195 C 516.02768 263.14862 514.79232 265.64708 514.31641 267.55469 C 513.00638 272.80547 519.81051 278.08789 527.88672 278.08789 C 533.47241 278.08789 533.87675 278.31466 533.22656 281.08789 C 532.83984 282.73792 532.962 286.48659 533.49805 289.41992 C 534.967 297.45871 533.00044 301.79876 527.18359 303.35547 C 516.89394 306.10919 498.97461 305.82405 498.97461 302.90625 C 498.97461 301.96681 499.39066 300.78317 499.89844 300.27539 C 501.52643 298.6474 501.74852 293.64635 500.36914 289.68945 C 499.30581 286.63915 499.57347 284.71797 501.66797 280.38281 C 503.11965 277.3782 504.30664 273.32198 504.30664 271.36914 C 504.30664 269.41633 504.95131 265.97232 505.73828 263.71484 C 506.79114 260.69413 506.75065 258.82836 505.58398 256.64844 C 504.71212 255.01931 504.03101 251.36027 504.07031 248.51758 C 504.10954 245.67492 503.23865 241.18689 502.13477 238.54492 C 500.51838 234.67627 509.55365 246.26661 510.82422 243.19922 C 511.75376 240.95471 502.93315 223.78966 502.43164 220.43945 C 501.96358 217.31265 502.29739 211.45324 503.17383 207.41992 C 506.31333 192.97206 505.13947 184.37158 499.43359 180.01953 C 493.88113 175.78446 489.86878 175.89243 484.63281 180.41992 L 480.39258 184.08789 L 479.82812 201.16406 C 479.51741 210.55696 478.94257 218.56329 478.55078 218.95508 C 478.159 219.34686 476.4852 218.11227 474.83203 216.21094 C 473.17237 214.30216 470.40715 212.75391 468.65625 212.75391 C 464.35398 212.75391 455.17015 205.13807 452.88867 199.67773 C 449.50705 191.58441 452.11583 180.29081 459.07031 172.91797 C 460.9199 170.95713 461.69486 170.21265 466.23438 170.18164 z M 465.33203 177.42578 C 462.73496 177.40525 461.53876 178.16577 459.48047 180.38672 C 455.77271 184.38742 455.1284 193.0991 458.30664 196.27734 C 459.40663 197.37734 460.32277 199.58403 460.33789 201.18164 C 460.35773 203.08616 461.85057 204.85779 464.67188 206.32617 C 474.13763 211.25282 478.1052 208.44537 475.95117 198.3457 C 475.0374 194.06191 475.09435 191.53311 476.14453 189.85156 C 479.93899 183.77563 476.7432 178.69905 468.48047 177.68164 C 467.21996 177.52642 466.19772 177.43262 465.33203 177.42578 z M 254.61133 179.6875 C 256.44871 179.63063 257.81386 179.95507 258.30273 180.74609 C 259.3449 182.43229 260.45103 192.14264 260.35352 198.75391 C 260.12977 213.9209 260.56284 216.88061 263.90625 223.02344 C 268.80924 232.03168 272.96475 236.13461 280.44727 239.35352 C 287.26875 242.28802 292.88057 241.99289 294.16992 238.63281 C 294.56741 237.597 296.67447 236.75391 298.86523 236.75391 C 301.0518 236.75391 303.32177 235.89718 303.9082 234.84961 C 304.83921 233.18654 317.73583 226.7488 318.18945 227.7207 C 318.28364 227.92245 319.69862 230.95214 321.33398 234.45508 C 323.10481 238.24814 324.30664 243.39915 324.30664 247.18945 C 324.30664 250.68982 324.8561 254.12363 325.52734 254.82031 C 326.19855 255.51699 326.95002 257.58659 327.19531 259.41992 C 327.56903 262.21167 328.45302 262.82139 332.64062 263.16797 C 336.85317 263.51659 337.64062 263.17088 337.64062 260.97656 C 337.64062 259.54408 338.54063 258.0276 339.64062 257.60547 C 340.74066 257.18337 341.64062 255.61861 341.64062 254.12891 C 341.64062 248.31444 347.66472 251.57417 351.72461 259.58594 C 354.4967 265.05646 355.61599 266.08789 358.79102 266.08789 C 363.13914 266.08789 370.97461 262.5296 370.97461 260.55469 C 370.97461 259.81878 372.52725 261.06209 374.42578 263.31836 C 376.82465 266.16926 379.06235 267.41992 381.75977 267.41992 C 383.89459 267.41992 385.64062 266.82123 385.64062 266.08789 C 385.64062 261.37164 398.10549 269.11382 399.50781 274.70117 C 399.97519 276.56331 400.97164 278.08789 401.7207 278.08789 C 402.46977 278.08789 402.98145 280.33791 402.85938 283.08789 C 402.73718 285.83787 403.68171 292.52286 404.95703 297.94531 C 409.90787 318.99554 405.90492 340.46327 396.61719 342.67773 C 394.61313 343.15554 391.92391 343.85896 390.64062 344.24023 C 389.19254 344.67042 388.30664 344.21949 388.30664 343.05078 C 388.30664 338.15127 375.05689 332.24863 368.11719 334.05664 C 365.6552 334.69806 361.2405 335.52817 358.30664 335.90234 C 355.37278 336.2764 351.85577 337.00993 350.49219 337.5332 C 348.59396 338.26163 346.53394 336.87586 341.70117 331.61914 C 335.9242 325.33534 334.88872 324.75391 329.47852 324.75391 C 326.08121 324.75391 322.197 325.71364 320.34375 327.01172 C 318.57017 328.25397 313.87812 329.71064 309.91797 330.24805 C 304.00172 331.05089 301.96689 330.76698 298.51172 328.66016 C 296.19895 327.2499 293.19673 326.09448 291.83984 326.0918 C 289.19708 326.08647 279.50988 316.88251 276.45508 311.47461 C 275.35353 309.52452 274.68859 304.93019 274.81445 300.14062 C 275.00774 292.78147 274.6793 291.76193 271.01758 288.32422 C 265.92225 283.54055 263.4749 284.25957 255.26172 292.94727 C 246.89524 301.79714 245.21753 302.62611 240.55469 300.21484 C 234.50019 297.08396 229.64062 288.56661 229.64062 281.08594 C 229.64062 272.08983 234.02066 257.22546 237.58203 254.13672 C 243.48645 249.01584 238.60882 243.38291 230.0957 245.49219 C 226.01771 246.50257 223.97746 248.25452 219.81836 254.3125 C 213.02322 264.21006 210.34083 263.65067 211.34766 252.54688 C 211.96901 245.69463 211.76762 244.75391 209.67773 244.75391 C 208.3704 244.75391 206.55353 245.65387 205.64062 246.75391 C 203.34199 249.52358 201.9959 249.27428 198.42383 245.41992 C 196.39426 243.22999 193.90077 242.08789 191.1543 242.08789 C 186.56542 242.08789 185.84567 240.68342 189.0625 238.01367 C 190.7939 236.57673 191.81964 236.67872 195.07812 238.60352 C 199.87718 241.43839 203.09213 240.57613 208.23047 235.07812 C 212.18714 230.84449 215.3394 221.92375 214.05859 218.58594 C 212.75927 215.20001 214.98919 207.79378 218.42188 204.08984 C 220.28469 202.07982 223.24795 198.155 225.00781 195.36719 C 226.76767 192.57937 229.58031 189.87638 231.25781 189.35938 C 232.93532 188.84237 236.82595 186.73486 239.9043 184.67773 C 244.23842 181.78145 250.56909 179.81261 254.61133 179.6875 z M 466.37109 182.08789 C 470.44818 182.08789 471.94664 187.05508 469.42773 192.22461 C 466.83211 197.55178 464.77242 197.53642 463.00391 192.17773 C 460.95253 185.96207 462.24491 182.08789 466.37109 182.08789 z M 284.40234 186.35156 C 282.61589 186.26966 280.99719 187.46151 279.7168 189.9375 C 277.21966 194.76641 276.96469 204.26012 279.30664 205.20508 C 282.55114 206.51427 284.40053 206.05915 285.21094 203.75391 C 285.6621 202.47057 287.55941 199.76824 289.42578 197.74805 L 292.81836 194.07422 L 290.0957 190.41406 C 288.14373 187.7899 286.18879 186.43347 284.40234 186.35156 z M 382.98047 195.41016 C 380.50589 195.45185 378.49841 196.18076 377.97656 197.74805 C 377.6725 198.66122 379.2966 201.28098 381.58594 203.57031 C 385.08824 207.07254 386.42023 207.598 389.98633 206.88477 C 396.02782 205.67645 397.07845 204.13019 394.51562 200.21875 C 392.52406 197.17923 387.10477 195.34067 382.98047 195.41016 z M 354.72852 197.08789 C 352.87888 197.06731 351.54166 198.11842 351.23828 200.24414 C 350.97538 202.08641 352.28531 204.28536 355.00781 206.57617 C 357.70469 208.84544 360.7643 210.08789 363.66406 210.08789 C 368.92025 210.08789 371.1712 207.5543 367.73633 205.50391 C 366.43186 204.72521 363.53291 202.40799 361.29297 200.35547 C 358.94084 198.20021 356.57815 197.10847 354.72852 197.08789 z M 289.01172 210.79297 C 288.39978 210.80746 287.63753 211.06569 286.71289 211.56055 C 284.65807 212.66024 284.45699 213.32734 285.71875 214.84766 C 287.94493 217.53002 290.97461 217.22052 290.97461 214.31055 C 290.97461 211.90963 290.35799 210.76109 289.01172 210.79297 z M 541.98828 220.95117 C 545.19183 220.89348 547.92846 221.52193 549.11719 223.08789 C 551.68889 226.47567 551.44278 227.17364 546.64062 230.10156 C 543.75291 231.86226 540.08327 232.71143 535.64062 232.64453 C 527.27052 232.51864 525.64062 231.85554 525.64062 228.57812 C 525.64062 224.52141 534.94048 221.07809 541.98828 220.95117 z M 475.41797 227.84375 C 476.561 227.93931 477.64062 229.09227 477.64062 230.83203 C 477.64062 231.88875 476.44126 232.75391 474.97461 232.75391 C 472.07983 232.75391 471.70416 231.76982 473.51172 228.91602 C 474.02269 228.1093 474.73215 227.78641 475.41797 227.84375 z M 460.58984 237.43555 C 462.96858 237.30918 465.82146 237.70389 467.72266 238.69531 C 469.8771 239.81878 473.4406 240.75051 475.64062 240.76562 C 481.37474 240.80667 484.00949 242.75391 482.21875 245.62695 C 480.53992 248.32051 478.97768 249.21589 470.97461 252.07227 C 460.6452 255.75893 458.52686 258.11205 458.61719 265.80664 C 458.68439 271.52658 458.12552 273.06911 454.83594 276.2207 C 450.84786 280.04154 450.00089 282.66105 452.29688 284.08008 C 454.23868 285.28015 456.90153 283.4033 461.5293 277.57031 C 463.79108 274.71949 465.71146 272.91948 465.79688 273.57031 C 466.27438 277.20361 465.59018 302.81263 464.96289 304.78906 C 464.55395 306.07754 463.03808 307.44116 461.5957 307.81836 C 459.91075 308.25898 458.97461 309.64404 458.97461 311.69141 C 458.97461 313.44405 457.02396 317.93685 454.64062 321.67578 C 450.33242 328.43441 450.28857 328.45978 446.97461 326.2793 C 439.57777 321.41247 433.06524 312.95698 431.9375 306.75391 C 431.53755 304.55392 430.25672 298.55297 429.0918 293.41992 C 426.1172 280.31263 426.42123 276.85948 431.02734 271.4707 C 433.38785 268.70912 434.97461 265.33353 434.97461 263.07031 C 434.97461 255.65337 441.71896 247.66833 452.64062 242.1543 C 454.65731 241.13613 456.30664 239.85191 456.30664 239.30078 C 456.30664 238.20838 458.21111 237.56191 460.58984 237.43555 z M 542.27344 239.60742 C 546.64065 239.58086 547.36991 241.24579 546.30469 246.0957 C 545.61243 249.2476 544.45725 250.28947 540.54102 251.28711 C 528.01234 254.47866 522.97461 254.125 522.97461 250.05664 C 522.97461 246.07873 531.15701 240.76397 538.64648 239.87695 C 540.06422 239.70904 541.26562 239.61355 542.27344 239.60742 z M 171.14258 248.43164 L 173.77734 251.25977 C 177.01617 254.73629 177.16741 254.7364 184.92969 251.30273 C 191.22086 248.51979 191.22517 248.51967 193.70703 251.18359 C 195.65734 253.27696 197.31464 253.69871 201.43164 253.14648 L 206.67383 252.44336 L 205.70898 257.7168 C 204.43445 264.68674 205.1758 268.87255 208.22656 271.92773 C 211.75819 275.46443 217.31259 273.91395 218.47461 269.06641 C 219.7804 263.61924 222.57004 258.6116 226.47656 254.70508 C 231.53187 249.64977 233.38693 252.28463 229.96094 259.6543 C 226.46102 267.18304 223.73153 284.31633 224.86523 291.63867 C 225.43462 295.31642 227.2299 299.04511 229.79688 301.88281 L 233.83203 306.34375 L 244.94531 305.70508 C 251.05734 305.35339 256.73027 304.64893 257.55273 304.14062 C 258.3752 303.63232 260.08695 301.01233 261.35547 298.31836 C 263.1046 294.60365 264.46438 293.41992 266.98438 293.41992 C 269.744 293.41992 270.37708 294.14074 270.71875 297.66602 C 271.02319 300.80869 270.43933 302.27951 268.47266 303.33203 C 266.63535 304.31539 265.99444 305.73213 266.39258 307.92773 C 266.70915 309.67346 266.09293 313.58199 265.02344 316.61328 C 262.95101 322.48413 262.97461 322.39019 262.97461 325.375 C 262.97461 326.45054 261.024 329.40972 258.64062 331.94922 C 256.25729 334.48872 252.91085 338.40854 251.20508 340.66016 C 249.49934 342.91181 247.39996 344.72738 246.53906 344.69336 C 245.67816 344.66052 241.97331 341.91469 238.30664 338.58984 C 234.63997 335.26503 228.94064 330.66968 225.64062 328.37891 C 222.34064 326.0881 218.83381 323.42178 217.84766 322.45312 C 216.8615 321.48451 214.16152 319.73395 211.84766 318.56445 C 209.53379 317.39499 205.57572 314.89259 203.05273 313.00195 C 192.44016 305.04945 175.64258 297.1728 152.97461 289.52148 C 132.73021 282.68821 128.91203 280.98114 128.57422 278.61523 C 127.91059 273.96751 140.94549 263.32706 157.00781 255.4043 L 171.14258 248.43164 z M 545.80664 256.05859 C 546.47648 256.03059 546.95483 256.0741 547.16992 256.20703 C 547.79593 256.5939 548.30664 258.63287 548.30664 260.73633 C 548.30664 264.0574 547.35296 265.01159 541.05664 267.99023 C 533.61483 271.51075 523.82938 272.55012 522.24609 269.98828 C 521.75933 269.20067 522.62445 267.21327 524.16797 265.57031 C 525.71145 263.92731 526.97461 261.99571 526.97461 261.2793 C 526.97461 259.97065 541.11776 256.25462 545.80664 256.05859 z M 474.99805 256.75391 C 478.7515 256.75391 479.29625 260.77906 477.70117 276.73438 C 476.89734 284.77487 476.60417 292.80253 477.04883 294.57422 C 477.49349 296.34591 477.27609 298.15514 476.56641 298.59375 C 473.46428 300.51099 472.49673 295.2036 472.51562 276.39648 C 472.53456 258.19228 472.71585 256.75391 474.99805 256.75391 z M 550.17969 272.75391 C 554.48884 272.75391 554.74745 275.82718 550.67773 278.67773 C 547.05268 281.21693 538.97461 281.46762 538.97461 279.04102 C 538.97461 276.681 545.97356 272.75391 550.17969 272.75391 z M 418.51562 279.50195 C 420.23496 279.38085 420.40425 280.9459 419.82031 284.59766 C 419.22016 288.35065 419.53936 290.23008 420.98242 291.42773 C 422.43735 292.63522 422.97461 295.88728 422.97461 303.50586 C 422.97461 309.23944 423.57334 314.3007 424.30664 314.75391 C 425.03998 315.20715 425.64062 316.96883 425.64062 318.66992 C 425.64062 320.84735 426.82113 322.25298 429.62891 323.41602 C 434.51516 325.43995 438.97461 332.31975 438.97461 337.83594 C 438.97461 341.1736 437.08045 343.81877 428.80469 352.04102 C 424.53663 356.28147 420.4051 360.1817 418.24023 362.04492 L 415.20703 359.79492 L 407.63477 351.51758 C 409.246 349.51458 410.57821 347.47199 411.18164 345.8418 C 411.91022 343.87353 413.96178 341.30984 415.74023 340.14453 C 418.43723 338.37741 418.97461 336.93788 418.97461 331.46875 C 418.97461 327.86225 418.37397 324.54109 417.64062 324.08789 C 416.90732 323.63465 416.30261 320.44786 416.29883 317.00781 C 416.29433 313.56776 415.39429 309.03606 414.29883 306.93555 C 413.20333 304.83507 412.30664 300.21922 412.30664 296.67969 C 412.30664 293.14012 411.70791 289.87316 410.97461 289.41992 C 408.28725 287.75905 409.68875 283.46431 413.57422 281.45508 C 415.89428 280.25533 417.48403 279.57461 418.51562 279.50195 z M 130.97461 290.75391 C 141.41715 290.75391 144.34412 291.22148 147.64648 293.41992 C 149.84963 294.88657 152.64723 296.68658 153.86328 297.41992 C 155.07935 298.15326 160.23542 301.55573 165.32031 304.98047 C 170.40519 308.40525 177.06555 311.88036 180.12109 312.70312 C 183.17662 313.52589 187.61849 315.86664 189.99219 317.9043 C 195.27219 322.43686 212.70074 334.08789 214.20117 334.08789 C 214.79977 334.08789 217.33811 335.8879 219.84375 338.08789 C 222.34943 340.28792 225.06014 342.08789 225.86719 342.08789 C 226.67427 342.08789 228.70343 343.56352 230.375 345.36719 C 232.04661 347.17085 235.1142 349.04989 237.19336 349.54297 C 239.27255 350.03608 242.59107 352.16044 244.56641 354.26367 C 246.55304 356.37896 249.56399 358.08789 251.30469 358.08789 C 255.75546 358.08789 262.44673 350.56042 264.33203 343.43359 C 265.20321 340.1403 267.05445 335.84775 268.44531 333.89453 C 269.83614 331.94123 270.97461 329.38495 270.97461 328.21484 C 270.97461 325.17629 277.21348 325.46461 278.88086 328.58008 C 279.61473 329.95133 283.68578 332.44886 287.92773 334.13086 C 292.16965 335.81286 296.41072 337.78062 297.35156 338.50391 C 298.2924 339.22719 303.58105 339.7917 309.10547 339.75391 C 317.11939 339.70148 319.49843 339.21197 320.87305 337.33203 C 323.41334 333.858 330.79716 334.24451 333.84766 338.01172 C 335.20005 339.68185 336.30664 342.10867 336.30664 343.4043 C 336.30664 347.00981 339.70239 349.09901 344.02148 348.15039 C 346.12415 347.68857 349.58084 347.97045 351.70312 348.77734 C 354.75056 349.936 355.84929 349.85215 356.93359 348.38086 C 357.68871 347.35627 361.75741 346.1648 365.97461 345.73242 C 374.50459 344.8578 377.93535 346.6695 376.69922 351.39648 C 376.07836 353.77067 376.6371 354.08789 381.45312 354.08789 C 384.55956 354.08789 388.79009 355.2328 391.27539 356.74805 C 393.67644 358.21197 396.72225 359.41333 398.04297 359.41602 C 399.41064 359.41885 401.96576 357.52479 404.48828 355.01367 L 406.14844 358.33398 L 415.28516 364.3457 C 413.30195 366.00322 409.8915 369.10526 406.42188 372.44141 C 400.48242 378.15239 397.6056 381.9965 397.16211 384.81055 C 396.80823 387.05604 395.76248 389.91135 394.83789 391.15625 C 392.58949 394.18376 382.72507 403.41992 381.74023 403.41992 C 381.31035 403.41992 380.15507 405.23437 379.17383 407.45117 C 377.041 412.26954 372.55089 414.75214 363.92578 415.88086 C 359.15046 416.5058 357.36573 416.25518 356.83984 414.88477 C 355.67477 411.8486 348.82324 411.25175 344.33203 413.79492 C 340.43727 416.00031 340.09527 415.97802 335.33008 413.24414 C 332.60561 411.68108 329.99617 409.5817 329.53125 408.57812 C 329.06629 407.57451 327.70029 404.86197 326.49609 402.54883 C 325.29194 400.23568 324.30664 397.67869 324.30664 396.86719 C 324.30664 396.05569 323.17247 392.84694 321.78516 389.73828 C 320.39781 386.62958 318.91715 383.03724 318.49414 381.75391 C 317.60943 379.0698 313.83207 378.61272 312.99219 381.08789 C 312.68113 382.00454 312.16432 388.21936 311.8457 394.90039 C 311.52698 401.58142 310.60099 408.29173 309.78711 409.8125 C 308.97319 411.33327 308.30664 413.5178 308.30664 414.66602 C 308.30664 415.81424 307.10731 417.95324 305.64062 419.41992 C 301.93933 423.12121 284.68258 423.38048 283.39648 419.75391 C 281.71947 415.02515 278.57838 412.75391 273.71484 412.75391 C 271.04922 412.75391 265.41266 411.8539 261.18945 410.75391 C 256.96628 409.65391 251.58973 408.74987 249.24219 408.74609 C 246.89461 408.74201 242.87332 408.20064 240.30664 407.54297 C 237.73996 406.88529 231.93213 406.00187 227.39844 405.58008 L 219.1543 404.81445 L 216.19336 409.60547 L 213.23242 414.39648 L 202.4375 413.4707 C 196.49979 412.96171 189.0146 411.39166 185.80469 409.98242 C 182.59481 408.57315 178.87213 407.41992 177.53125 407.41992 C 176.19037 407.41992 172.88126 405.92123 170.17969 404.08789 C 167.47813 402.25456 163.40209 400.73544 161.12109 400.70898 C 158.84009 400.68412 154.57396 399.5048 151.64062 398.08789 C 148.70729 396.67098 145.30733 395.49325 144.08398 395.4668 C 139.74908 395.37862 137.64062 393.76072 137.64062 390.52344 C 137.64062 388.72034 137.04908 386.13983 136.32617 384.78906 C 135.29342 382.85939 136.32008 380.09172 141.11719 371.87109 C 146.04775 363.42181 148.51941 360.63944 153.96484 357.41406 C 161.93083 352.69574 164.59853 349.27596 161.71289 347.47656 C 160.55416 346.75399 158.83712 346.78127 157.41016 347.54492 C 155.81256 348.39989 154.1791 348.27957 152.41797 347.17969 C 150.11256 345.73995 149.09497 346.25288 143.88281 351.48242 C 140.62803 354.74805 135.94122 358.95755 133.46875 360.83594 C 129.35688 363.95975 128.66136 364.09601 125.30664 362.42969 C 123.28945 361.4277 118.18879 359.71033 113.97266 358.61328 C 109.75652 357.51627 104.97771 355.74824 103.35352 354.68555 C 99.949424 352.45827 86.230377 352.05382 84.939453 354.14258 C 84.018269 355.63296 73.30387 355.52796 70.837891 354.00391 C 68.857925 352.78021 72.187339 343.37572 74.96875 342.33594 C 77.687391 341.31962 80.044918 338.32931 82.523438 332.75391 C 84.618653 328.04072 96.488697 315.41992 98.826172 315.41992 C 99.521635 315.41992 101.43258 313.16994 103.07422 310.41992 C 106.87846 304.04726 113.67661 296.75391 115.81055 296.75391 C 116.71569 296.75391 117.64653 295.4039 117.88086 293.75391 C 118.28856 290.88317 118.85394 290.75391 130.97461 290.75391 z M 473.5 306.94336 C 477.06229 306.91479 483.22349 307.67915 493.61914 309.22266 C 504.51454 310.84041 510.50299 311.02153 520.77344 310.04297 C 528.02042 309.35245 534.48053 309.11488 535.12891 309.51562 C 535.77732 309.91637 536.30664 311.38134 536.30664 312.77148 C 536.30664 314.65898 535.04047 315.50498 531.30664 316.11133 C 528.55666 316.55792 524.92864 317.48525 523.24414 318.17188 C 519.86146 319.55091 518.00525 319.53469 497.51367 317.95508 C 480.167 316.61792 468.97461 313.27043 468.97461 309.41992 C 468.97461 307.79304 469.93771 306.97193 473.5 306.94336 z M 80.501953 362.31445 C 93.340845 362.3322 104.33216 365.03663 114.53516 370.56055 C 126.88181 377.24506 128.0341 378.78058 125.84375 385.63672 C 124.23032 390.68704 120.53349 416.90703 119.35156 431.68555 C 119.01731 435.86491 118.01772 439.88735 117.12891 440.625 C 116.24009 441.36265 109.84142 442.6541 102.91016 443.49414 C 95.978896 444.33418 90.007277 445.12736 89.640625 445.25586 C 88.066516 445.80816 66.105002 443.75073 64.080078 442.86133 C 62.855436 442.32343 60.269674 438.64397 58.332031 434.68359 C 54.15441 426.14485 47.071528 398.26955 46.767578 389.16992 C 46.31532 375.62954 52.347526 365.47271 61.75 363.94336 C 68.448982 362.85372 74.666093 362.30639 80.501953 362.31445 z M 230.35547 420.8418 C 231.67936 420.76552 233.29757 421.26131 235.4375 422.23633 L 238.69141 423.71875 L 235.5 428.42188 C 231.90185 433.72399 231.74758 434.54903 233.6875 438.17383 C 234.872 440.38697 236.55196 440.75391 245.52539 440.75391 C 253.43942 440.75391 256.40787 440.2409 257.73438 438.64258 C 260.10648 435.78439 257.94808 432.49617 252.51172 430.68555 C 244.34537 427.96572 244.42038 426.10926 252.70703 425.84961 C 256.88704 425.71846 261.65661 425.56816 263.30664 425.51562 C 266.66762 425.40893 266.84183 427.99674 264.07812 437.06836 C 262.89827 440.9412 261.32435 442.64668 257.01172 444.73438 C 253.96085 446.21126 250.00585 447.35999 248.2207 447.28516 C 241.54723 447.00619 222.62387 442.34426 221.62891 440.73438 C 220.46954 438.85848 221.46726 434.77249 225.12305 426.41992 C 226.75781 422.6849 228.14899 420.96893 230.35547 420.8418 z M 139.2207 430.24609 C 142.89499 430.15368 144.38925 430.93538 147.53906 433.98828 C 150.15197 436.52083 153.99207 438.51096 157.69141 439.24805 C 166.74666 441.05217 176.06517 443.34474 185.64062 446.125 C 190.40729 447.50899 197.84725 448.87241 202.17383 449.15625 C 210.66219 449.71294 213.64062 451.92682 213.64062 457.67578 C 213.64062 459.75135 214.42289 460.75391 216.04102 460.75391 C 217.36102 460.75391 219.01039 461.26229 219.70703 461.88281 C 222.67759 464.52875 240.45485 466.39176 257.86914 465.88281 C 277.10599 465.32065 279.42219 464.58844 281.81055 458.30664 C 282.84576 455.58364 283.70486 455.18671 287.33789 455.75391 C 289.70395 456.12313 296.41528 456.02278 302.25 455.53125 C 311.46668 454.75482 313.17508 454.95438 315.2793 457.05859 C 317.1389 458.9182 317.38508 460.07256 316.33789 462.0293 C 315.58773 463.43093 314.97461 470.9178 314.97461 478.66602 C 314.97461 491.08698 314.65785 493.03062 312.30664 495.08789 C 306.956 499.76967 304.92573 501.90427 302.51953 505.37305 C 300.52205 508.25274 299.36705 508.75926 296.32812 508.0918 C 293.45039 507.45975 290.89156 508.35915 285.18164 512.01172 C 281.10512 514.6194 276.8006 516.75391 275.61719 516.75391 C 272.85904 516.75391 268.41567 519.04791 264.78906 522.3457 C 263.2209 523.77168 261.01237 524.748 259.88086 524.51367 C 257.29377 523.978 239.62687 539.62601 236.92969 544.8418 C 235.82429 546.97938 232.54372 549.93888 229.64062 551.41992 C 226.73749 552.90097 223.45667 555.86502 222.34961 558.00586 C 221.24255 560.1467 218.98031 562.30516 217.32227 562.80273 C 215.66422 563.30027 210.74431 565.49131 206.38867 567.67188 C 199.93199 570.90428 197.09936 571.56483 191.05469 571.25 C 186.97699 571.0377 182.33028 571.59038 180.72852 572.47656 C 179.12672 573.36275 174.32738 574.08178 170.0625 574.07422 C 165.79762 574.06715 156.49603 574.78085 149.39258 575.66016 C 139.19993 576.92184 135.71297 576.91131 132.85547 575.60938 C 130.33132 574.45942 128.81189 574.38344 127.83789 575.35742 L 127.83789 575.35547 C 126.22071 576.97413 123.8315 576.98056 118.50781 575.38477 C 113.9998 574.03347 102.31279 573.84383 87.818359 574.88672 C 81.080811 575.37148 76.812371 575.12488 75.884766 574.19727 C 75.090502 573.403 72.611668 572.74181 70.375 572.73047 C 64.865522 572.69951 43.417304 566.85085 36.306641 563.43945 C 33.556702 562.12013 32.945954 549.9963 35.384766 545.15234 C 38.791382 538.38616 34.443702 515.38318 28.414062 508.26758 C 24.928355 504.15405 26.112188 482.71808 30.333984 473.48828 C 32.153052 469.51142 33.640625 465.45917 33.640625 464.48242 C 33.640625 462.88255 39.600944 453.06394 41.570312 451.41992 C 42.009539 451.05327 43.419824 449.10453 44.703125 447.08789 C 45.986426 445.07121 47.636516 443.41992 48.371094 443.41992 C 49.105671 443.41992 50.291113 445.07121 51.005859 447.08789 C 51.720601 449.10453 52.813169 451.64038 53.433594 452.72461 C 54.681643 454.9057 62.974609 457.10245 62.974609 455.25195 C 62.974609 454.61125 63.524234 454.08789 64.197266 454.08789 C 65.738243 454.08789 64.424202 484.93565 62.808594 486.6875 C 62.166108 487.38418 61.640625 490.04823 61.640625 492.60742 C 61.640625 497.13363 59.986446 508.0192 57.681641 518.66602 C 56.71802 523.11735 57.008142 524.53149 59.591797 528 C 61.654758 530.76945 62.864842 534.66756 63.34375 540.08789 C 64.19095 549.67663 69.657498 560.31884 74.726562 562.24609 C 76.60594 562.96058 80.881768 563.36809 84.226562 563.15039 C 89.624185 562.79882 90.352271 562.37315 90.703125 559.36328 C 90.933264 557.38901 89.957668 554.65777 88.369141 552.82617 C 83.605692 547.33388 85.748474 542.46149 90.580078 547.79883 C 96.223635 554.03312 104.83866 560.75391 107.1875 560.75391 C 108.53655 560.75391 109.64062 561.24234 109.64062 561.83984 C 109.64062 562.43735 111.62923 563.8747 114.05859 565.0332 C 118.82745 567.30731 120.62225 566.82111 127.03125 561.52539 C 129.68163 559.33538 130.22028 558.00097 129.49805 555.40625 C 128.98996 553.58085 128.51255 549.5366 128.43945 546.41992 C 128.36635 543.30325 127.70794 540.75391 126.97461 540.75391 C 124.92593 540.75391 125.40846 529.8965 127.64844 525.60156 C 128.74392 523.50105 129.64062 518.65148 129.64062 514.82422 C 129.64062 506.37739 130.55171 505.19057 133.83398 509.36328 C 136.95199 513.32717 142.94634 514.74255 148.64648 512.86133 C 154.77147 510.83989 155.9454 508.14418 155.25391 497.67969 C 154.73643 489.84862 154.20274 488.31098 151.36133 486.44922 C 147.91622 484.1919 141.64062 471.68556 141.64062 467.07812 C 141.64062 465.60596 140.34709 462.30885 138.76562 459.75 C 136.86578 456.676 135.92203 453.04478 135.98242 449.04688 C 136.04412 444.96623 135.20109 441.81655 133.39453 439.37305 C 129.23466 433.7465 130.55706 430.83419 137.5 430.33594 C 138.125 430.29108 138.6958 430.2593 139.2207 430.24609 z M 111.99414 450.5918 C 114.56224 450.51064 116.3764 450.78254 118.20117 451.38477 C 124.17424 453.35605 129.77009 459.78495 132.78125 468.13672 C 137.43075 481.03254 139.69865 485.42137 144.71289 491.21875 C 151.51249 499.08036 151.22153 503.69242 143.84961 504.88086 C 139.727 505.54549 138.22848 505.17348 136.18359 502.97852 C 134.78552 501.47789 133.64062 499.80538 133.64062 499.25977 C 133.64062 497.48263 128.22482 496.49574 126.46875 497.95312 C 125.49677 498.75983 124.70674 502.47594 124.63867 506.56055 C 124.57279 510.51431 123.27084 517.78997 121.74609 522.72656 C 118.81367 532.22062 118.16071 540.71417 120.20117 542.82031 C 121.31307 543.968 122.09964 551.12557 121.76953 557.08789 C 121.31327 565.32847 112.53244 551.44777 109.55859 537.78516 C 107.74374 529.44722 103.62336 523.56999 101.25391 525.93945 C 100.26501 526.92833 100.31208 528.36928 101.41016 530.7793 C 102.27026 532.66702 102.97461 535.51309 102.97461 537.10352 C 102.97461 539.55741 101.9074 538.94252 95.931641 533.04102 C 92.058581 529.21606 87.859882 526.08789 86.599609 526.08789 C 82.933453 526.08789 84.02842 530.44208 88.611328 534.08789 C 90.915884 535.92123 94.139301 538.69304 95.775391 540.24805 C 97.41148 541.8031 100.30034 543.46384 102.19531 543.93945 C 105.1584 544.68315 105.62633 545.5011 105.5332 549.7793 L 105.42383 554.75391 L 103.8125 551.12109 C 101.10799 545.02362 82.797659 534.5482 78.037109 536.375 C 74.006474 537.9217 76.995148 549.3422 82.806641 554.60156 C 84.331094 555.98117 85.255933 557.63029 84.863281 558.26562 C 83.583325 560.33665 80.250769 559.48514 77.03125 556.26562 C 72.510837 551.74523 68.817643 543.74725 67.853516 536.39648 C 67.394983 532.9005 66.10839 528.28179 64.996094 526.13086 C 62.770923 521.82783 62.322269 515.98104 64.130859 514.86328 C 64.766924 514.47013 65.641629 511.5847 66.074219 508.45117 C 69.682507 482.31404 70.891015 477.43103 74.46875 474.54688 C 78.02877 471.677 78.029386 471.66948 75.835938 466.1875 C 72.071415 456.77901 72.577455 455.72421 81.306641 454.79883 C 85.523308 454.35182 94.507586 453.05627 101.26953 451.91992 C 106.1057 451.10717 109.42604 450.67295 111.99414 450.5918 z M 44.164062 597.22656 C 47.23483 597.08133 51.266527 599.20083 50.265625 600.82031 C 48.966473 602.92241 40.306641 602.36378 40.306641 600.17773 C 40.306641 599.12714 41.484864 597.8923 42.923828 597.43555 C 43.305761 597.31433 43.725381 597.24731 44.164062 597.22656 z M 164.13477 603.87695 C 165.74574 603.84624 166.97461 604.72947 166.97461 606.16602 C 166.97461 606.85604 165.47396 607.41992 163.64062 607.41992 C 159.91085 607.41992 159.17224 605.47389 162.42773 604.22461 C 163.01851 603.9979 163.59777 603.88719 164.13477 603.87695 z M 145.38672 604.77344 C 147.10348 604.76202 148.10013 605.34438 147.64062 606.08789 C 146.64971 607.69124 146.78763 607.69124 144.30664 606.08789 C 142.69761 605.04788 142.90987 604.78856 145.38672 604.77344 z M 40.9375 609.34375 C 41.379505 609.27836 42.070895 609.52808 43.001953 610.10352 C 44.526735 611.04587 44.600037 611.6617 43.339844 612.92188 C 42.079651 614.18208 41.537705 614.03495 40.853516 612.25195 C 40.15722 610.43745 40.200824 609.45273 40.9375 609.34375 z M 134.17578 609.3457 C 134.54721 609.33963 135.03669 609.58667 135.64062 610.08789 C 138.44064 612.4117 138.1349 614.45242 134.64062 616.76367 C 130.92171 619.22354 126.05887 620.72681 125.05859 619.72656 C 123.5272 618.19517 124.42379 617.24775 128.94922 615.61133 C 131.50176 614.68829 133.52975 613.51739 133.45703 613.00977 C 133.11069 610.59214 133.35865 609.35907 134.17578 609.3457 z M 154.91016 610.10938 C 156.73152 610.01812 157.64062 611.15077 157.64062 613.50977 C 157.64062 616.4361 158.07602 616.80445 160.64062 616.03906 C 162.29062 615.54663 164.96955 614.3049 166.59375 613.28125 C 168.21795 612.2576 170.81118 611.41992 172.35742 611.41992 C 176.69917 611.41992 175.12852 615.99041 170.60742 616.51172 C 168.58466 616.74495 165.33259 617.76286 163.38086 618.77539 C 161.42914 619.78808 159.29108 620.28229 158.62891 619.87305 C 157.96673 619.4638 155.82232 620.60614 153.86523 622.41211 C 147.79513 628.01352 142.25486 628.11704 143.20508 622.61133 C 143.45977 621.13557 142.94884 620.2249 141.97461 620.41992 C 141.01422 620.612 140.30664 619.40739 140.30664 617.57617 C 140.30664 615.22825 141.19581 614.22846 143.70898 613.74805 C 146.85345 613.14695 147.04679 613.38693 146.26953 616.92578 C 145.55091 620.19757 145.8387 620.75391 148.24414 620.75391 C 152.0221 620.75391 153.26344 617.08015 150.23438 614.86523 C 147.94079 613.18811 147.96059 613.03317 150.64648 611.5957 C 152.39631 610.65924 153.81734 610.16413 154.91016 610.10938 z M 52.716797 618.41602 C 54.099505 618.42491 54.662107 618.61113 53.974609 618.91211 C 53.057942 619.31338 52.306641 620.49237 52.306641 621.53125 C 52.306641 623.47752 51.988841 623.54611 47.900391 622.48633 C 43.9977 621.47466 46.1295 618.77792 51.076172 618.46875 C 51.703719 618.42955 52.255894 618.41305 52.716797 618.41602 z M 58.974609 623.41992 C 59.707944 623.41992 60.306641 624.0206 60.306641 624.75391 C 60.306641 625.48725 59.707944 626.08789 58.974609 626.08789 C 58.241275 626.08789 57.640625 625.48725 57.640625 624.75391 C 57.640625 624.0206 58.241275 623.41992 58.974609 623.41992 z M 75.4375 624.98828 C 76.385501 624.98547 77.285091 625.4979 77.789062 626.39844 C 78.422251 627.52991 80.448315 628.83437 82.291016 629.29688 C 84.133713 629.75938 85.640625 631.04038 85.640625 632.14453 C 85.640625 633.24872 87.141278 634.72286 88.974609 635.41992 C 90.807945 636.11694 92.306641 637.00193 92.306641 637.38672 C 92.306641 638.39128 88.097875 638.0795 84.974609 636.84375 C 83.507941 636.2634 81.557293 636.0705 80.640625 636.41406 C 79.723957 636.7577 78.974609 636.04773 78.974609 634.83594 C 78.974609 633.62415 77.480175 631.13839 75.654297 629.3125 C 72.814458 626.47268 72.645872 625.87421 74.486328 625.16797 C 74.800274 625.0475 75.1215 624.98922 75.4375 624.98828 z M 98.974609 631.41992 C 99.70794 631.41992 100.30664 632.02056 100.30664 632.75391 C 100.30664 633.48725 99.70794 634.08789 98.974609 634.08789 C 98.241275 634.08789 97.640625 633.48725 97.640625 632.75391 C 97.640625 632.02056 98.241275 631.41992 98.974609 631.41992 z M 40.882812 633.16016 C 42.007128 632.94815 45.640625 636.65993 45.640625 638.18164 C 45.640625 638.8626 44.781049 639.41992 43.730469 639.41992 C 41.864943 639.41992 39.443594 634.50564 40.693359 633.25586 C 40.744192 633.20503 40.807858 633.17429 40.882812 633.16016 z M 48.421875 633.4375 C 49.203702 633.39787 49.640625 633.86578 49.640625 634.79492 C 49.640625 637.06116 49.563474 637.08709 47.195312 635.58594 C 45.763382 634.67825 45.829001 634.30094 47.529297 633.64844 C 47.863314 633.52026 48.161266 633.45071 48.421875 633.4375 z M 56.085938 634.70508 C 56.953308 634.73827 57.82834 635.02343 58.539062 635.61328 C 60.070123 636.88396 60.10135 637.39622 58.703125 638.2832 C 55.973807 640.01457 52.306641 639.60072 52.306641 637.5625 C 52.306641 635.77559 54.177723 634.63206 56.085938 634.70508 z M 65.794922 637.0918 C 67.972639 637.02689 70.974609 639.07222 70.974609 640.91602 C 70.974609 642.7958 66.466904 642.16445 64.574219 640.01953 C 63.137809 638.39169 63.197234 637.91841 64.923828 637.25586 C 65.190177 637.15365 65.483819 637.10107 65.794922 637.0918 z M 120.85547 637.0918 C 122.50684 637.01859 122.8289 638.42014 123.61719 644.32422 C 125.30982 657.00162 125.50182 669.30502 124.0332 671.08008 C 123.27803 671.99283 122.96679 673.9116 123.3418 675.3457 C 123.74315 676.88049 122.7104 679.73333 120.83203 682.2793 C 119.07689 684.65828 117.64062 687.68752 117.64062 689.01172 C 117.64062 692.36227 111.50149 692.23124 109.6875 688.8418 C 108.92837 687.42334 108.30664 683.11975 108.30664 679.2793 C 108.30664 674.64866 107.56325 671.47492 106.09766 669.85547 C 104.43216 668.0151 103.95775 665.23095 104.17383 658.55664 C 104.45193 649.96642 104.63997 649.52574 110.41797 643.91016 C 113.69435 640.72587 117.77175 637.77017 119.47852 637.3418 C 120.02323 637.20508 120.47438 637.10869 120.85547 637.0918 z M 82.974609 662.08789 C 83.707944 662.08789 84.306641 662.68658 84.306641 663.41992 C 84.306641 664.15326 83.707944 664.75391 82.974609 664.75391 C 82.241275 664.75391 81.640625 664.15326 81.640625 663.41992 C 81.640625 662.68658 82.241275 662.08789 82.974609 662.08789 z M 63.525391 662.3125 C 64.085142 662.34196 64.769216 662.47736 65.560547 662.72852 C 67.093126 663.21494 68.002625 664.16903 67.582031 664.84961 C 66.545624 666.5264 63.333733 666.4144 62.251953 664.66406 C 61.279072 663.08996 61.846137 662.22411 63.525391 662.3125 z M 90.974609 668.75391 C 92.527833 668.75391 93.427831 669.35455 92.974609 670.08789 C 92.521384 670.82119 91.621385 671.41992 90.974609 671.41992 C 90.327834 671.41992 89.427835 670.82119 88.974609 670.08789 C 88.521384 669.35455 89.421382 668.75391 90.974609 668.75391 z M 180.83789 669.54297 C 181.4967 669.47516 182.17235 672.82891 182.33789 676.99414 C 182.61693 684.01514 182.46238 684.45634 180.21484 683.05273 C 178.29986 681.85682 177.26099 682.01769 175.27344 683.81641 C 173.88957 685.06864 172.39699 685.73294 171.95703 685.29297 C 171.00202 684.33796 172.30246 680.4093 173.93945 679.30273 C 174.5772 678.8716 176.12007 676.52818 177.36914 674.09375 C 178.61821 671.65936 180.17908 669.611 180.83789 669.54297 z M 89.857422 677.84961 C 92.560666 677.89201 94.365156 679.47243 92.037109 680.94922 C 90.001388 682.24057 89.785919 682.2335 86.306641 680.79883 C 83.769221 679.7525 83.802837 679.63672 86.974609 678.38086 C 87.955461 677.99251 88.956341 677.83548 89.857422 677.84961 z M 145.71875 679.41992 C 146.49536 679.41992 146.75987 680.02056 146.30664 680.75391 C 145.85341 681.48725 145.21791 682.08789 144.89453 682.08789 C 144.57116 682.08789 144.30664 681.48725 144.30664 680.75391 C 144.30664 680.02056 144.94214 679.41992 145.71875 679.41992 z M 147.56836 682.67773 C 148.70829 682.62314 151.33756 682.84054 154.13672 683.25 C 154.77652 683.34358 154.55355 684.31993 153.64062 685.41992 C 151.48233 688.02031 148.80386 687.97031 147.7832 685.31055 C 147.33808 684.15057 146.97461 683.03253 146.97461 682.82617 C 146.97461 682.74485 147.18838 682.69593 147.56836 682.67773 z M 181.80078 686.41016 C 182.16431 686.39181 182.47423 686.47737 182.67383 686.67773 C 183.2061 687.21201 182.22344 688.79764 180.49219 690.20117 C 176.44022 693.48607 171.93612 693.61098 172.5918 690.41992 C 172.87729 689.03042 174.03546 688.25515 175.45508 688.50195 C 176.76624 688.7299 178.70817 688.19303 179.77148 687.31055 C 180.43604 686.759 181.1949 686.44073 181.80078 686.41016 z M 134.07031 687.55859 C 134.42434 687.56667 134.83579 687.60445 135.30664 687.66992 C 138.76405 688.15064 140.25801 689.77394 140.28711 693.08594 C 140.31488 696.26036 138.66688 696.01683 135.20703 692.33398 C 131.9756 688.89425 131.59212 687.50209 134.07031 687.55859 z M 145.61914 697.48438 C 146.48396 697.39802 147.49454 697.584 148.1582 697.99414 C 149.39793 698.76036 149.37003 699.31375 148.03711 700.4043 C 146.7958 701.42001 145.85261 701.32552 144.69922 700.07227 C 143.44146 698.70555 143.46788 698.18303 144.82031 697.66406 C 145.05794 697.57286 145.33087 697.51316 145.61914 697.48438 z M 95.052734 698.08594 C 95.829348 698.08594 96.093851 698.68658 95.640625 699.41992 C 95.187399 700.15326 94.551892 700.75391 94.228516 700.75391 C 93.905143 700.75391 93.640625 700.15326 93.640625 699.41992 C 93.640625 698.68658 94.276125 698.08594 95.052734 698.08594 z M 199.70508 698.72852 C 200.64053 698.72478 201.64062 699.28645 201.64062 700.16602 C 201.64062 700.48943 200.70577 700.75391 199.5625 700.75391 C 198.41919 700.75391 197.8597 700.14376 198.32031 699.39844 C 198.60572 698.93666 199.14381 698.73076 199.70508 698.72852 z M 257.64258 699.63477 C 258.57267 699.52579 258.3468 700.5514 257.92578 703.41992 C 257.24248 708.07562 256.37318 708.36061 253.41211 704.90234 C 251.39649 702.54823 251.46746 702.28939 254.51172 700.90234 C 256.1106 700.17384 257.08452 699.70015 257.64258 699.63477 z M 136.97461 702.08594 C 138.07461 702.08594 138.97461 702.68658 138.97461 703.41992 C 138.97461 704.15326 138.07461 704.75391 136.97461 704.75391 C 135.87461 704.75391 134.97461 704.15326 134.97461 703.41992 C 134.97461 702.68658 135.87461 702.08594 136.97461 702.08594 z M 193.79883 702.52539 C 194.76748 702.5802 195.67824 703.50857 196.50195 705.31641 C 197.3635 707.20734 199.1725 708.75391 200.52148 708.75391 C 201.8704 708.75391 202.97461 709.25412 202.97461 709.86523 C 202.97461 712.09266 201.2952 712.56096 198.83008 711.02148 C 197.10162 709.9422 195.57316 709.86081 193.97461 710.76562 C 191.1411 712.36951 181.64062 711.76471 181.64062 709.98047 C 181.64062 709.27759 183.08405 709.06519 184.84766 709.50781 C 187.42832 710.15555 188.40429 709.59333 189.84766 706.63086 C 191.21379 703.82698 192.55342 702.45492 193.79883 702.52539 z M 152.19336 702.99805 C 152.8177 702.97497 153.52768 703.08484 154.27734 703.36133 C 156.85012 704.31022 156.84447 704.37215 154.02539 705.88086 C 151.95675 706.98811 150.88127 707.015 150.23828 705.97461 C 149.22989 704.34302 150.32035 703.06729 152.19336 702.99805 z M 211.79883 703.41992 C 212.89882 703.41992 213.42781 704.02056 212.97461 704.75391 C 212.52137 705.48725 211.25038 706.08594 210.15039 706.08594 C 209.0504 706.08594 208.52141 705.48725 208.97461 704.75391 C 209.42785 704.02056 210.6988 703.41992 211.79883 703.41992 z M 118.97461 704.75391 C 119.98609 704.75235 120.99691 705.20792 122.64062 706.11914 C 124.65729 707.23716 126.90213 709.49217 127.62891 711.13086 C 128.35568 712.76955 130.01261 714.44744 131.31055 714.85938 C 134.19963 715.77633 138.10301 722.96179 137.11328 725.54102 C 136.30061 727.6588 131.84756 727.86821 127.20703 726.00781 C 124.33308 724.85559 124.26639 724.60471 126.29297 722.57812 C 129.14773 719.72322 126.77463 716.81941 123.68359 719.38477 C 121.68413 721.04417 111.77088 720.66152 109.96484 718.85547 C 108.06536 716.95599 111.78558 708.09342 115.30664 706.13086 C 116.95035 705.21453 117.96313 704.75547 118.97461 704.75391 z M 70.623047 704.84766 C 71.435578 704.79321 72.712586 705.65852 74.306641 707.41992 C 75.633969 708.88661 76.17733 710.01668 75.513672 709.93164 C 71.614171 709.4318 69.640625 708.33175 69.640625 706.65625 C 69.640625 705.48936 69.991078 704.89 70.623047 704.84766 z M 117.37305 706.64453 C 116.76693 706.52702 116.30664 707.35457 116.30664 708.67578 C 116.30664 710.18574 116.90729 711.41992 117.64062 711.41992 C 118.37396 711.41992 118.97461 710.55476 118.97461 709.49805 C 118.97461 708.44133 118.37396 707.20711 117.64062 706.75391 C 117.54896 706.69725 117.45964 706.66132 117.37305 706.64453 z M 95.068359 707.50195 C 95.869527 707.51836 96.306641 708.38592 96.306641 710.08594 C 96.306641 711.86371 95.418405 712.75391 93.640625 712.75391 C 90.618348 712.75391 90.22356 711.37017 92.574219 709.01953 C 93.602633 707.99111 94.445229 707.4892 95.068359 707.50195 z M 236.30664 708.75391 C 237.77329 708.75391 238.97461 709.3526 238.97461 710.08594 C 238.97461 710.81928 237.77329 711.41992 236.30664 711.41992 C 234.83996 711.41992 233.64062 710.81928 233.64062 710.08594 C 233.64062 709.3526 234.83996 708.75391 236.30664 708.75391 z M 76.175781 711.48047 C 77.059862 711.40238 78.447745 712.0376 79.746094 713.33594 C 80.943225 714.53307 81.158269 715.56096 80.318359 716.08008 C 78.530216 717.18521 78.600735 721.69747 80.423828 722.82422 C 81.220862 723.3168 84.20581 722.66921 87.058594 721.38281 C 91.284423 719.47721 92.622954 719.35553 94.277344 720.72852 C 97.389822 723.31167 96.725483 724.54387 91.974609 725.00195 C 89.197341 725.26973 87.640625 726.1381 87.640625 727.41992 C 87.640625 729.98951 93.643101 730.88189 95.15625 728.53711 C 96.031521 727.18079 96.498526 727.45059 97.105469 729.66211 C 98.250284 733.8335 101.35661 734.50327 105.27148 731.42383 C 109.93453 727.75587 111.44499 728.03869 115.48242 733.33203 C 119.76322 738.94444 119.90116 741.52782 115.97461 742.58008 C 111.14499 743.87438 110.78073 743.62558 111.43555 739.4707 C 112.13808 735.01301 108.91659 732.96915 104.69141 735.19336 C 103.38037 735.8835 97.806639 736.89292 92.306641 737.43555 C 85.751655 738.08222 81.211313 739.28368 79.126953 740.92188 C 75.485208 743.78407 75.036627 743.85851 72.306641 742.06641 C 70.528864 740.89936 70.528864 740.60731 72.306641 739.44141 C 73.406642 738.71997 74.907295 737.85881 75.640625 737.52734 C 77.755142 736.57158 71.002026 731.41992 67.634766 731.41992 C 64.867796 731.41992 62.974609 729.19861 62.974609 725.95312 C 62.974609 725.26589 64.44076 725.06988 66.232422 725.51953 C 70.801803 726.66639 72.23822 725.35602 71.095703 721.08398 C 70.311901 718.15326 70.665362 717.14179 72.878906 715.98242 C 74.39774 715.18691 75.489986 713.83522 75.306641 712.97852 C 75.104455 712.03363 75.488163 711.5412 76.175781 711.48047 z M 76.802734 724.75391 C 72.085839 724.75391 71.942314 726.87664 76.40625 730.63281 C 81.001105 734.49912 80.672548 734.37438 83.480469 733.29688 C 85.246585 732.61917 85.131712 731.95798 82.671875 728.63086 C 80.98254 726.34591 78.573141 724.75391 76.802734 724.75391 z M 153.48047 728.80469 C 154.62487 728.84293 154.86646 729.65943 154.3418 731.3125 C 153.73932 733.21077 154.57699 734.48819 157.58594 736.26562 C 159.81647 737.58321 161.64062 739.13182 161.64062 739.70703 C 161.64063 741.88003 153.53696 740.64831 150.97461 738.08594 C 147.77706 734.88842 147.50081 730.68116 150.41602 729.5625 C 151.78109 729.03867 152.79383 728.78174 153.48047 728.80469 z M 65.529297 734.25195 C 65.992491 734.27101 66.391754 734.39372 66.613281 734.61523 C 67.056336 735.05816 66.268838 735.37228 64.863281 735.31445 C 63.310024 735.25047 62.992995 734.93538 64.056641 734.50977 C 64.53789 734.3171 65.066103 734.2329 65.529297 734.25195 z M 139.15039 735.41992 C 140.54862 735.41992 142.04008 738.0612 140.71875 738.19727 C 140.12547 738.25838 138.20271 738.46538 136.44531 738.65625 C 133.46091 738.98046 133.41275 738.88429 135.70117 737.21094 C 137.04873 736.22561 138.6005 735.41992 139.15039 735.41992 z M 143.73438 738.78125 C 144.11358 738.75109 144.54418 739.54862 145.33984 741.29492 C 146.74747 744.38416 146.63506 744.75391 144.2793 744.75391 C 141.46574 744.75391 141.27167 744.17026 142.79688 740.29492 C 143.17692 739.32929 143.43943 738.8047 143.73438 738.78125 z M 153.30664 743.44141 C 155.86555 743.41004 155.29198 747.0986 152.05664 751.47461 C 148.15811 756.74766 146.98071 756.44596 147.93164 750.41992 C 148.72336 745.40275 150.20416 743.47958 153.30664 743.44141 z M 101.5625 744.75391 C 102.98589 744.75391 104.52138 745.35455 104.97461 746.08789 C 105.44197 746.8441 104.32187 747.41992 102.38672 747.41992 C 100.51011 747.41992 98.974609 746.82123 98.974609 746.08789 C 98.974609 745.35455 100.13911 744.75391 101.5625 744.75391 z M 120.24609 745.20508 C 120.85817 745.18972 121.44723 745.29955 121.9043 745.58203 C 122.75453 746.1075 122.58404 746.84735 121.44922 747.56641 L 121.44922 747.56836 C 119.11937 749.04362 117.97591 749.04167 117.06055 747.56055 C 116.36604 746.43684 118.40987 745.25115 120.24609 745.20508 z M 190.30664 746.08789 C 191.40667 746.08789 192.30664 746.68658 192.30664 747.41992 C 192.30664 748.15326 191.40667 748.75391 190.30664 748.75391 C 189.20665 748.75391 188.30664 748.15326 188.30664 747.41992 C 188.30664 746.68658 189.20665 746.08789 190.30664 746.08789 z M 138.01953 746.37695 C 138.2542 746.38318 138.43797 746.43994 138.55469 746.55664 C 138.93193 746.93391 138.88961 747.81033 138.46094 748.50391 C 137.40374 750.2146 132.30664 751.46178 132.30664 750.00977 C 132.30664 748.7414 136.37688 746.33336 138.01953 746.37695 z M 164.61133 750.24023 C 164.6888 750.24762 164.73687 750.26751 164.75391 750.29883 C 164.89016 750.54945 166.19544 752.19509 167.6543 753.95703 L 170.30664 757.16016 L 166.02539 756.33398 C 163.6705 755.87938 161.38564 756.08757 160.94727 756.79688 C 159.62057 758.9435 156.66014 758.24453 155.97461 755.62305 C 155.4891 753.76651 156.45957 752.75256 159.91797 751.50195 C 162.12616 750.70359 164.069 750.1885 164.61133 750.24023 z M 198.74414 751.73438 C 200.26694 751.71092 200.61681 752.69091 199.84766 754.69531 C 198.99685 756.9125 198.66793 756.95989 193.68164 755.57031 C 190.4032 754.65665 190.4079 754.64548 194.72461 752.85742 C 196.49428 752.12441 197.83046 751.74845 198.74414 751.73438 z M 139.5625 755.41992 C 140.61922 755.41992 141.85341 756.02056 142.30664 756.75391 C 142.75987 757.48725 141.89666 758.08789 140.38672 758.08789 C 138.87677 758.08789 137.64062 757.48725 137.64062 756.75391 C 137.64062 756.02056 138.50578 755.41992 139.5625 755.41992 z M 181.71875 760.75391 C 182.49533 760.75391 182.75984 761.35459 182.30664 762.08789 C 181.8534 762.82123 181.21806 763.41992 180.89453 763.41992 C 180.57112 763.41992 180.30664 762.82123 180.30664 762.08789 C 180.30664 761.35459 180.94213 760.75391 181.71875 760.75391 z M 165.5293 762.25195 C 165.99249 762.27101 166.39175 762.39372 166.61328 762.61523 C 167.05634 763.05812 166.26883 763.37423 164.86328 763.31641 C 163.31001 763.25246 162.993 762.93538 164.05664 762.50977 C 164.53789 762.3171 165.0661 762.2329 165.5293 762.25195 z "
           style="fill:#000000;stroke-width:1.33333337" />
      </g>
    </g>
  </g>
</svg>
