<?xml version="1.0" encoding="UTF-8" standalone="no"?>
<svg
   xmlns:dc="http://purl.org/dc/elements/1.1/"
   xmlns:cc="http://creativecommons.org/ns#"
   xmlns:rdf="http://www.w3.org/1999/02/22-rdf-syntax-ns#"
   xmlns:svg="http://www.w3.org/2000/svg"
   xmlns="http://www.w3.org/2000/svg"
   xml:space="preserve"
   enable-background="new 0 0 595.275 350"
   viewBox="0 0 521.30717 533.77686"
   height="533.77686"
   width="521.30719"
   y="0px"
   x="0px"
   id="Capa_1"
   version="1.1"><metadata
     id="metadata23362"><rdf:RDF><cc:Work
         rdf:about=""><dc:format>image/svg+xml</dc:format><dc:type
           rdf:resource="http://purl.org/dc/dcmitype/StillImage" /><dc:title></dc:title></cc:Work></rdf:RDF></metadata><defs
     id="defs23360" /><g
     transform="matrix(8.5066928,0,0,7.8515835,-96.006537,-2126.7008)"
     id="g23908"><rect
       style="clip-rule:evenodd;fill:#364766;fill-rule:evenodd"
       x="13.221"
       y="274.27499"
       width="57.056999"
       height="28.462999"
       id="rect23102" /><path
       style="clip-rule:evenodd;fill:#ffffff;fill-rule:evenodd"
       d="m 50.984,284.675 c 0.608,0.22 1.638,-0.22 1.899,0.26 0.048,0.79 -1.242,0.337 -1.842,0.522 -0.065,0.64 0.204,1.5 -0.336,1.566 -0.631,0.073 -0.416,-0.82 -0.446,-1.516 -0.423,-0.162 -1.286,0.086 -1.625,-0.156 -0.295,-0.886 0.911,-0.522 1.567,-0.623 -0.19,-0.713 0.052,-2.013 0.782,-1.357 0.078,0.296 -0.189,0.907 0.001,1.304"
       id="path23104" /><path
       style="clip-rule:evenodd;fill:#ffffff;fill-rule:evenodd"
       d="m 56.572,286.864 c 0.011,-0.663 0.035,-1.079 -0.446,-1.096 -0.52,-0.015 -0.261,0.526 -0.782,0.473 -0.935,-0.096 0.136,-1.151 0.559,-1.202 1.961,-0.238 1.693,2.51 0.56,3.234 0.722,0.114 2.161,-0.159 2.237,0.416 0.068,0.539 -0.665,0.346 -1.345,0.313 -0.841,-0.04 -2.411,0.258 -2.458,-0.367 -0.026,-0.368 0.5,-0.469 0.838,-0.726 0.334,-0.255 0.513,-0.575 0.837,-1.045"
       id="path23106" /><path
       style="clip-rule:evenodd;fill:#ffffff;fill-rule:evenodd"
       d="m 61.269,291.036 c -0.25,0.247 -0.918,0.071 -1.343,0.055 -2.504,-0.111 -4.724,0.192 -7.323,0.154 -0.58,-0.007 -1.171,0.003 -1.06,-0.47 0.105,-0.451 2.183,-0.225 2.962,-0.258 1.854,-0.081 4.606,-0.373 6.482,-0.053 0.194,0.03 0.447,0.288 0.282,0.572"
       id="path23108" /><path
       style="clip-rule:evenodd;fill:#ffffff;fill-rule:evenodd"
       d="m 56.015,293.644 c 1.297,-0.422 2.658,0.321 2.292,1.405 -0.165,0.498 -1.047,0.839 -1.567,0.837 -0.716,0 -1.791,-0.494 -1.118,-0.99 0.39,0.102 1.893,0.575 1.956,-0.157 0.035,-0.39 -0.459,-0.531 -0.949,-0.47 -0.416,0.05 -0.628,0.481 -1.007,0.367 -0.287,-0.091 -0.426,-1.103 -0.445,-1.202 -0.081,-0.377 -0.211,-0.957 0.057,-1.355 0.81,0.045 2.957,-0.392 2.962,0.313 0.005,0.685 -1.565,0.24 -2.295,0.366 -0.122,0.238 0.114,0.589 0.114,0.886"
       id="path23110" /><path
       style="clip-rule:evenodd;fill:#ffffff;fill-rule:evenodd"
       d="m 55.193,282.333 c 0.341,0.271 1.961,0.552 2.013,-0.053 0.017,-0.225 -0.125,-0.177 -0.225,-0.366 -0.437,-0.039 -1.213,0.253 -1.284,-0.259 -0.051,-0.359 0.416,-0.505 0.95,-0.521 0.253,-0.215 0.296,-0.739 0,-0.936 -0.875,-0.203 -0.919,0.573 -1.567,0.417 -0.369,-0.878 0.768,-1.292 1.625,-1.146 0.792,0.132 1.167,1.083 0.728,1.819 0.52,0.473 0.798,1.03 0.388,1.562 -0.724,0.95 -3.725,0.502 -2.628,-0.517"
       id="path23112" /><rect
       style="clip-rule:evenodd;fill:#cc9348;fill-rule:evenodd"
       x="11.286"
       y="300.457"
       width="61.282001"
       height="2.461"
       id="rect23114" /><path
       d="m 21.07,290.933 c 0,0 -0.241,-3.029 5.648,-2.92 l 4.524,0 0.06,0 c 0.343,0.015 0.613,0.275 0.619,0.596 l 0,0.019 c -0.071,3.705 -0.011,13.702 -0.011,13.702 0,0 2.595,1.602 2.595,3.955 0,4.523 -0.322,14.976 -0.322,14.976 l -13.403,0 0.29,-30.328 z"
       id="path23136"
       style="fill:#d9edf9;fill-opacity:1" /><path
       d="m 24.034,312.56896 0,-18.91469 c -0.293,-0.89375 -1.37,-2.22728 -2.013,-1.16127 -0.377,0.6161 -0.225,3.16968 -0.225,4.85787 l 0,15.54033 c 0.794,-0.0203 1.668,0.12362 2.238,-0.32224"
       id="path23116"
       style="clip-rule:evenodd;fill:#c3c6c8;fill-opacity:1;fill-rule:evenodd" /><path
       style="clip-rule:evenodd;fill:#646c87;fill-rule:evenodd"
       d="m 32.193,320.703 -4.522,0 0,10.548 3.255,0 c 0,0 2.35,-5.74 1.267,-10.548"
       id="path23118" /><path
       style="clip-rule:evenodd;fill:#790d23;fill-rule:evenodd"
       d="m 31.684,330.658 -4.125,0 0,8.188 4.526,0 c 0,0 0.532,-2.506 -2.264,-3.376 l 1.863,-4.812 z"
       id="path23120" /><path
       style="clip-rule:evenodd;fill:#646c87;fill-rule:evenodd"
       d="m 22.583,320.703 4.52,0 0,10.548 -3.255,0 c 0,0 -2.35,-5.74 -1.265,-10.548"
       id="path23122" /><path
       style="clip-rule:evenodd;fill:#790d23;fill-rule:evenodd"
       d="m 23.093,330.658 4.123,0 0,8.188 -4.524,0 c 0,0 -0.534,-2.506 2.26,-3.376 l -1.859,-4.812 z"
       id="path23124" /><path
       style="fill:#c3c6c8"
       d="m 44.738,290.937 -2.979,-0.135 c 0,0 -0.401,7.816 -9.007,2.962 l -1.139,0.868 0,1.273 c 0,0 2.889,3.068 6.983,2.247 4.095,-0.825 5.622,-3.321 6.142,-7.215"
       id="path23126" /><path
       style="fill:#ffffff"
       d="m 47.048,287.604 -2.306,0 c -0.287,0 -0.52,-0.217 -0.52,-0.488 0,-0.266 0.233,-0.482 0.52,-0.482 l 2.306,0 c 0.287,0 0.521,0.216 0.521,0.482 0,0.271 -0.234,0.488 -0.521,0.488"
       id="path23128" /><path
       style="fill:#cc9348"
       d="m 29.911,270.864 c -2.433,0.056 -4.793,1.419 -5.552,3.077 -0.427,1.387 -0.282,3.225 -0.282,5.374 0.004,2.573 0.615,5.024 -2.177,4.634 -0.523,-0.24 -0.765,-0.344 -0.952,-0.902 -0.893,3.813 2.817,7.209 6.152,5.761 0.005,-0.128 0.014,-0.293 0.022,-0.483 l 4.31,0 0,-11.524 c 1.202,-0.184 2.187,-0.613 2.501,-1.544 0,0 -0.043,0.008 0,0 1.309,-2.281 -1.168,-4.456 -4.022,-4.393"
       id="path23130" /><path
       d="m 28.808,293.359 c 0,1.521 1.237,2.75 2.764,2.75 1.525,0 2.762,-1.23 2.762,-2.75 0,-1.519 -1.236,-2.751 -2.762,-2.751 -1.527,0 -2.764,1.232 -2.764,2.751"
       id="path23132"
       style="fill:#d9edf9;fill-opacity:1" /><path
       style="clip-rule:evenodd;fill:#f6bdb4;fill-rule:evenodd"
       d="m 27.208,276.812 c 0,0.451 -0.005,1.807 0,1.352 l -0.139,9.852 c 0.008,0.061 2.371,4.905 3.101,1.098 0.011,-0.061 0.16,0.008 0.168,-0.05 -0.111,-1.01 -0.032,-2.197 -0.054,-3.287 l 0,-1.148 c 1.099,-0.04 1.913,-0.168 2.512,-0.523 0.616,-0.36 0.956,-0.977 1.139,-1.739 l 0,-5.944 c -0.007,-0.19 -0.007,-0.38 0,-0.562 l 0,-0.6 c -0.674,1.968 -4.318,1.705 -6.727,1.551"
       id="path23134" /><polygon
       style="clip-rule:evenodd;fill:#f6bdb4;fill-rule:evenodd"
       points="23.915,316.2 20.863,316.2 20.863,310.836 25.028,310.836 25.028,314.393 23.915,314.393 "
       id="polygon23138" /><polygon
       style="fill:#f6bdb4"
       points="30.263,290.84 27.073,288 30.271,287.183 "
       id="polygon23140" /><path
       style="fill:#ffffff"
       d="m 28.931,281.114 c 0,0.868 0.855,1.572 1.913,1.572 1.058,0 1.917,-0.705 1.917,-1.572 l -3.83,0 z"
       id="path23142" /><rect
       style="fill:#1d1d1b"
       x="28.391001"
       y="277.798"
       width="1.9170001"
       height="0.70200002"
       id="rect23144" /><rect
       style="fill:#1d1d1b"
       x="31.334"
       y="277.798"
       width="1.918"
       height="0.70200002"
       id="rect23146" /><path
       style="fill:#f6bdb4"
       d="m 27.515,279.763 0,-1 -1.913,0 0,1.111 c 0,0.597 0.402,1.091 0.912,1.117 l 1.001,0 0,-1.228 z"
       id="path23148" /><path
       style="fill:#f6bdb4"
       d="m 41.746,288.29 0,-0.008 0,-0.081 0.003,0 c 0.065,-1.44 1.6,-2.597 3.494,-2.597 l 0.464,0 0,2.597 0.008,0 0,2.782 -3.969,0 0,-2.688 0,-0.005 z"
       id="path23150" /></g></svg>