<?xml version="1.0" encoding="UTF-8" standalone="no"?>
<svg
   xmlns:dc="http://purl.org/dc/elements/1.1/"
   xmlns:cc="http://creativecommons.org/ns#"
   xmlns:rdf="http://www.w3.org/1999/02/22-rdf-syntax-ns#"
   xmlns:svg="http://www.w3.org/2000/svg"
   xmlns="http://www.w3.org/2000/svg"
   xml:space="preserve"
   enable-background="new 0 0 595.275 350"
   viewBox="0 0 497.05763 657.90851"
   height="657.90851"
   width="497.05765"
   y="0px"
   x="0px"
   id="Capa_1"
   version="1.1"><metadata
     id="metadata21638"><rdf:RDF><cc:Work
         rdf:about=""><dc:format>image/svg+xml</dc:format><dc:type
           rdf:resource="http://purl.org/dc/dcmitype/StillImage" /><dc:title></dc:title></cc:Work></rdf:RDF></metadata><defs
     id="defs21636" /><g
     transform="translate(-297.50563,319.49056)"
     id="g22188"><polygon
       points="300.147,321.617 299.882,321.47 298.392,324.507 295.091,321.729 296.189,320.008 294.92,319.213 295.384,318.661 "
       id="polygon20976"
       transform="matrix(10.227757,0,0,10.091394,-2432.9059,-3081.1922)"
       style="fill:#f6bdb4" /><path
       d="m 692.64557,338.39768 -97.37848,0 0,-13.51238 0,-13.57292 0,-32.00991 c 13.69497,1.63481 25.44666,9.09235 32.39131,19.6984 l 20.87485,0 c 24.19887,4.17784 42.54747,20.04151 44.11232,39.39681"
       id="path20978"
       style="clip-rule:evenodd;fill:#f39c8f;fill-rule:evenodd" /><path
       d="m 742.05586,197.7741 c -11.62895,17.61958 -36.61537,23.31112 -55.73105,12.59406 l -18.96226,-10.53541 c -19.13613,-10.71706 -19.31,-15.9545 -18.66565,-33.48325 l 2.99672,-10.69688 c 7.76288,-20.20297 22.30674,-48.4286 41.48379,-37.73171 l 43.91799,26.85319 c 19.17705,10.6767 16.59965,35.32997 4.96046,53"
       id="path20980"
       style="fill:#f6bdb4" /><path
       d="m 742.05586,197.7741 c -10.9846,16.67098 -33.85387,22.63499 -52.51952,14.26924 -16.42578,-16.14624 -26.55127,-37.89319 -26.55127,-61.8098 0,-7.70981 1.10461,-15.29854 3.07856,-22.52398 7.45604,-9.78865 16.52806,-15.68202 27.10356,-9.78865 l 43.91798,26.85319 c 19.18728,10.6767 16.60988,35.32997 4.97069,53"
       id="path20982"
       style="fill:#f6bdb4" /><path
       d="m 665.84885,127.61873 c -2.10692,7.54837 -3.11948,15.127 -3.11948,22.61481 0,23.09921 9.45046,45.12872 26.63309,62.02171 19.15659,8.58778 41.90312,2.43202 52.91842,-14.34995 7.96742,-12.07941 10.98461,-25.8037 8.04924,-36.72259 -1.94327,-7.25572 -6.33098,-12.84634 -13.10176,-16.62052 l -43.88731,-26.85321 c -9.32771,-5.18697 -18.58383,-1.8669 -27.4922,9.90975 m 23.83067,84.20259 c -17.00876,-16.73153 -26.40807,-38.61976 -26.40807,-61.59786 0,-7.43736 1.033,-14.95546 3.09901,-22.40289 8.66291,-11.39319 17.65311,-14.69308 26.68422,-9.67765 l 43.84639,26.87337 c 6.65828,3.70355 10.98462,9.19327 12.88699,16.29761 0.68525,2.63385 1.04323,5.43925 1.04323,8.38594 0,8.98135 -3.16038,19.09292 -9.04134,27.98344 -10.88234,16.49942 -33.29136,22.57445 -52.11043,14.13804"
       id="path20984"
       style="fill:#f7b5ad" /><path
       d="m 707.17922,176.85464 c -3.83542,9.24372 -15.64847,14.24906 -26.22398,11.14091 -10.67777,-3.06779 -16.13939,-13.10873 -12.15057,-22.32217 l 38.37455,11.18126 z"
       id="path20986"
       style="fill:#ffffff" /><path
       d="m 734.86576,160.85979 c 0,8.29512 7.26169,14.98571 16.28259,14.98571 9.02088,0 16.29281,-6.69059 16.29281,-14.98571 0,-8.27494 -7.27193,-14.96554 -16.29281,-14.96554 -9.0209,0 -16.28259,6.6805 -16.28259,14.96554"
       id="path20988"
       style="clip-rule:evenodd;fill:#6a2e19;fill-rule:evenodd" /><path
       d="m 678.40853,95.164814 c -9.31748,-2.169657 -18.80885,2.95678 -21.16122,11.564726 -2.38308,8.58778 3.22174,17.23611 12.5699,19.51677 7.68105,1.73572 15.49506,-1.45316 19.28956,-7.52818 -1.19665,8.75933 4.8275,17.26637 14.38022,19.42592 5.06275,1.26143 10.11526,0.45412 14.29841,-1.70544 -0.76709,8.56759 5.16502,16.65081 14.4825,18.82045 1.48303,0.37338 3.08879,0.51467 4.55135,0.51467 l 0,0.15136 c -5.79914,2.59349 5.748,12.04913 3.99906,18.31588 -3.17061,11.18126 -11.95625,18.03332 0.20455,20.84882 9.02088,2.18983 18.19518,-0.9385 23.55453,-7.25571 0.50116,0.16147 0.91026,0.30274 1.38075,0.38347 9.27658,2.16965 18.71679,-3.00723 21.09986,-11.51427 1.90236,-6.90252 -1.3603,-13.94632 -7.57877,-17.49848 6.86283,-1.45316 12.65174,-6.27684 14.45182,-12.92708 2.71036,-9.56664 -3.54903,-19.30483 -13.88929,-21.70659 -3.32402,-0.8174 -6.62759,-0.73667 -9.73682,0 1.58529,-1.90727 2.77171,-4.07692 3.44675,-6.52913 2.62853,-9.47582 -3.6104,-19.214013 -13.85861,-21.605677 -7.03671,-1.685257 -14.08363,0.403655 -18.74748,4.874147 0.69548,-6.841969 -4.01951,-13.320634 -11.45509,-15.137088 -7.82424,-1.816453 -15.7303,2.18983 -18.35883,9.092349 -0.9205,-4.319128 -4.41839,-7.871291 -9.24589,-9.021711 -6.70941,-1.604526 -13.57224,2.18983 -15.31095,8.375863 -0.47048,1.665071 -0.47048,3.350342 -0.23524,4.934683 -2.18874,-2.058647 -4.96047,-3.592536 -8.13107,-4.389752"
       id="path20990"
       style="clip-rule:evenodd;fill:#6a2e19;fill-rule:evenodd" /><path
       d="m 723.63567,208.57189 c 0,8.30523 7.27194,14.99582 16.29282,14.99582 8.92883,0 16.31327,-6.69059 16.31327,-14.99582 0,-8.29512 -7.38444,-15.01599 -16.31327,-15.01599 -9.03111,-0.0105 -16.29282,6.71078 -16.29282,15.01599"
       id="path20992"
       style="clip-rule:evenodd;fill:#6a2e19;fill-rule:evenodd" /><path
       d="m 732.58496,185.41214 c 0,8.3254 4.73545,15.016 13.75633,15.016 9.02089,0 16.29282,-6.6906 16.29282,-15.016 0,-8.29512 -7.27193,-14.98571 -16.29282,-14.98571 -2.30124,-0.0105 -13.75633,6.6805 -13.75633,14.98571"
       id="path20994"
       style="clip-rule:evenodd;fill:#6a2e19;fill-rule:evenodd" /><path
       d="m 746.33106,195.82646 c 0,8.22448 7.27194,14.91509 16.29283,14.91509 8.92883,0 16.28259,-6.69061 16.28259,-14.91509 0,-8.29513 -7.35376,-15.01598 -16.28259,-15.01598 -9.02089,0 -16.29283,6.72085 -16.29283,15.01598"
       id="path20996"
       style="clip-rule:evenodd;fill:#6a2e19;fill-rule:evenodd" /><path
       d="m 736.99312,169.26592 -3.0581,6.23647 c -1.7694,3.50173 -0.0921,7.57865 3.63086,9.11253 3.77404,1.60453 8.11062,0.0808 9.84933,-3.35034 l 3.17061,-6.24658 -13.5927,-5.75208 z"
       id="path20998"
       style="fill:#f6bdb4" /><polygon
       points="302.679,328.36 298.361,324.488 299.885,321.448 307.711,325.721 308.533,326.204 308.74,326.833 308.74,338.864 308.573,338.864 299.467,334.158 "
       id="polygon21000"
       transform="matrix(10.227757,0,0,10.091394,-2432.9059,-3081.1922)"
       style="fill:#ffde15" /><path
       d="m 680.80183,299.00087 -20.84417,0 c -7.0367,-10.59596 -18.8293,-18.08378 -32.51404,-19.71859 l 0,32.0301 0,13.58301 0,13.51237 68.49529,0 0,-34.93639 c -4.70478,-1.99811 -9.76751,-3.5219 -15.13708,-4.4705"
       id="path21002"
       style="fill:#f6bdb4" /><path
       d="m 695.93891,303.48145 0,34.9364 28.98546,0 c -1.27847,-15.04626 -12.68241,-27.94306 -28.98546,-34.9364"
       id="path21004"
       style="fill:#ffde15" /><polygon
       points="308.573,321.964 308.855,321.24 306.461,320.434 306.18,321.158 "
       id="polygon21006"
       transform="matrix(10.227757,0,0,10.091394,-2432.9059,-3081.1922)"
       style="fill:#1d1d1b" /><polygon
       points="304.9,320.726 305.182,320.001 302.786,319.196 302.507,319.92 "
       id="polygon21008"
       transform="matrix(10.227757,0,0,10.091394,-2432.9059,-3081.1922)"
       style="fill:#1d1d1b" /><path
       d="m 377.71247,-124.81748 c 0,7.43736 6.54575,13.51238 14.62569,13.51238 8.12083,0 14.72797,-6.07502 14.72797,-13.51238 l 0,-40.07292 c 0,-7.43736 -6.60714,-13.46192 -14.72797,-13.46192 -8.07994,0 -14.62569,6.02456 -14.62569,13.46192 l 0,40.07292 z"
       id="path21010"
       style="fill:#fab31f" /><path
       d="m 355.85575,-192.08671 c 0,18.95164 18.55315,34.27037 41.55537,34.27037 23.00224,0 41.54515,-15.31873 41.54515,-34.27037 l 0,-60.32635 c 0,-18.92136 -18.54291,-34.2401 -41.54515,-34.2401 -23.00222,0 -41.55537,15.31874 -41.55537,34.2401 l 0,60.32635 z"
       id="path21012"
       style="fill:#ffd391" /><rect
       x="359.16943"
       y="-183.36786"
       width="38.231358"
       height="88.541885"
       id="rect21014"
       style="fill:#ffd391" /><path
       d="m 399.02711,-304.7773 0,-14.71326 53.99234,0 c 4.97068,5.61082 7.8856,12.48306 7.8856,19.97087 l 0,5.67137 c 0,18.79017 -18.4918,34.04837 -41.28947,34.04837 -22.83858,0 -41.32014,-15.2582 -41.32014,-34.04837 l 0,-5.67137 c 0,-1.82653 0.1432,-3.54207 0.47049,-5.25761 l 20.26118,0 z"
       id="path21016"
       style="fill:#fab31f" /><path
       d="m 400.81697,-304.7773 c 0,0 -55.71059,-20.15252 -51.30243,48.26713 0,0 -72.53525,-8.04283 -22.12264,69.13614 l -26.55126,-1.95773 c 0,0 -18.83953,51.60739 33.03566,81.13481 l 26.97059,-18.23515 0,-133.36785 c 0,0 23.14542,6.69059 32.82088,-21.52495 l 7.1492,-23.4524 z"
       id="path21018"
       style="fill:#fab31f" /><rect
       x="426.57031"
       y="205.41319"
       width="42.281548"
       height="110.56131"
       id="rect21020"
       style="fill:#ffd391" /><rect
       x="361.19452"
       y="210.1463"
       width="42.312233"
       height="110.5714"
       id="rect21022"
       style="fill:#ffd391" /><path
       d="m 392.72681,311.97841 c 15.22913,0.0505 30.46849,8.21439 31.34808,24.16888 l 0.0511,0 0,1.98801 -62.93138,0 0,-0.91832 0,-1.06969 0,-24.16888 31.53217,0 z"
       id="path21024"
       style="clip-rule:evenodd;fill:#1d1d1b;fill-rule:evenodd" /><path
       d="m 424.34081,-199.66535 -37.61769,0 c -0.0614,0.56512 -0.0614,1.09997 -0.0614,1.66508 0,10.41432 8.43789,18.90118 18.87021,18.90118 10.44254,0 18.87021,-8.48686 18.87021,-18.90118 0,-0.56511 0,-1.09996 -0.0614,-1.66508"
       id="path21026"
       style="clip-rule:evenodd;fill:#ffffff;fill-rule:evenodd" /><path
       d="m 360.54006,-230.30282 -20.58847,0 c 0,0 -1.83078,30.85948 18.81907,29.5476 20.60893,-1.35224 1.7694,-29.5476 1.7694,-29.5476"
       id="path21028"
       style="fill:#ffd391" /><path
       d="m 458.0515,311.97841 c 15.22913,0.0505 30.46849,8.21439 31.34808,24.16888 l 0.0511,0 0,1.98801 -62.90071,0 0,-0.91832 0,-1.06969 0,-24.16888 31.5015,0 z"
       id="path21030"
       style="clip-rule:evenodd;fill:#1d1d1b;fill-rule:evenodd" /><rect
       x="374.76703"
       y="-237.32637"
       width="22.327196"
       height="7.7905564"
       id="rect21032"
       style="fill:#1d1d1b" /><rect
       x="408.97858"
       y="-237.32637"
       width="22.337421"
       height="7.7905564"
       id="rect21034"
       style="fill:#1d1d1b" /><path
       d="m 562.78374,54.506586 c -2.5774,-50.6890699 -36.20627,-93.779321 -83.45851,-113.195162 3.29334,-5.802552 5.12411,-12.099582 5.12411,-18.648896 0,-30.405368 -38.84502,-55.068738 -86.78252,-55.068738 -44.3987,0 -73.93646,21.10111 -80.44131,48.257047 -1.2887,4.642041 -2.21943,9.829018 -2.65922,15.126999 l 46.05559,0 0.23524,282.498474 202.04935,0 0,-158.969724 -0.12273,0 z"
       id="path21036"
       style="clip-rule:evenodd;fill:#009a3a;fill-rule:evenodd" /><path
       d="m 360.69348,-69.102895 c 0,0 -33.62887,99.349775 64.11781,105.727536 0,0 10.96416,-42.6765078 48.80686,-41.3343522 L 487.48699,27.49192 c 0,0 -34.96871,9.445552 -48.81709,32.918134 0,0 -142.91246,7.396984 -123.92973,-129.512949 l 45.95331,0 z"
       id="path21038"
       style="fill:#ffd391" /><polygon
       points="288.871,303.582 290.027,307.353 293.294,307.376 291.725,303.923 "
       id="polygon21040"
       transform="matrix(10.227757,0,0,10.091394,-2432.9059,-3081.1922)"
       style="fill:#ffd391" /><path
       d="m 360.97986,-125.97799 c 0,7.22544 8.10038,13.05826 18.2054,13.05826 10.0948,0 18.22586,-5.83282 18.22586,-13.05826 l 0,-27.00457 c 0,-7.14471 -8.13106,-13.03808 -18.22586,-13.03808 -10.09479,0 -18.2054,5.89337 -18.2054,13.03808 l 0,27.00457 z"
       id="path21042"
       style="fill:#ffd391" /></g></svg>