<?xml version="1.0" encoding="UTF-8" standalone="no"?>
<!-- Generator: Adobe Illustrator 14.0.0, SVG Export Plug-In . SVG Version: 6.00 Build 43363)  -->

<svg
   xmlns:dc="http://purl.org/dc/elements/1.1/"
   xmlns:cc="http://creativecommons.org/ns#"
   xmlns:rdf="http://www.w3.org/1999/02/22-rdf-syntax-ns#"
   xmlns:svg="http://www.w3.org/2000/svg"
   xmlns="http://www.w3.org/2000/svg"
   xmlns:sodipodi="http://sodipodi.sourceforge.net/DTD/sodipodi-0.dtd"
   xmlns:inkscape="http://www.inkscape.org/namespaces/inkscape"
   version="1.1"
   id="Capa_1"
   x="0px"
   y="0px"
   width="312.4537"
   height="608.24243"
   viewBox="0 0 312.45369 608.24243"
   enable-background="new 0 0 595.275 350"
   xml:space="preserve"
   inkscape:version="0.91 r13725"
   sodipodi:docname="painter-orange.svg"><metadata
     id="metadata37002"><rdf:RDF><cc:Work
         rdf:about=""><dc:format>image/svg+xml</dc:format><dc:type
           rdf:resource="http://purl.org/dc/dcmitype/StillImage" /><dc:title></dc:title></cc:Work></rdf:RDF></metadata><defs
     id="defs37000" /><sodipodi:namedview
     pagecolor="#ffffff"
     bordercolor="#666666"
     borderopacity="1"
     objecttolerance="10"
     gridtolerance="10"
     guidetolerance="10"
     inkscape:pageopacity="0"
     inkscape:pageshadow="2"
     inkscape:window-width="1916"
     inkscape:window-height="1035"
     id="namedview36998"
     showgrid="false"
     fit-margin-top="0"
     fit-margin-left="0"
     fit-margin-right="0"
     fit-margin-bottom="0"
     inkscape:zoom="0.42501839"
     inkscape:cx="206.26027"
     inkscape:cy="-9.6699694"
     inkscape:window-x="4"
     inkscape:window-y="1"
     inkscape:window-maximized="1"
     inkscape:current-layer="g37567" /><g
     id="g37567"><g
       id="g37596"><path
         d="m 289.72897,108.00222 c 3.17584,0 5.75146,2.89031 5.75146,6.42892 l 0,101.20598 c 0,3.51159 -2.57562,6.41991 -5.75146,6.41991 -3.17585,0 -5.84264,-2.90832 -5.84264,-6.41991 l 0,-101.20598 c 0.008,-3.53861 2.66679,-6.42892 5.84264,-6.42892"
         id="path36078"
         inkscape:connector-curvature="0"
         style="clip-rule:evenodd;fill:#790d23;fill-rule:evenodd" /><rect
         x="281.53091"
         y="132.68231"
         width="16.395859"
         height="8.2567511"
         id="rect36080"
         style="clip-rule:evenodd;fill:#f6a14d;fill-rule:evenodd" /><path
         d="m 288.67288,121.69744 c -10.67477,0 -19.27538,-9.49931 -19.27538,-21.23165 0,-21.969982 20.5442,-15.658112 20.5442,-35.296032 0,-8.45484 -5.24242,-15.56807 -12.26271,-17.52195 19.13105,1.1165 34.34926,18.65646 34.34926,40.0772 -0.008,14.532592 -8.17515,33.972432 -23.35537,33.972432"
         id="path36082"
         inkscape:connector-curvature="0"
         style="clip-rule:evenodd;fill:#f6a14d;fill-rule:evenodd" /><path
         d="m 122.56415,401.68864 -23.606091,0 0,180.59505 0,23.44665 23.606091,0 21.5243,0 0,-1.75579 -0.0304,0 c -0.68379,-13.8303 -10.89511,-21.1146 -21.49392,-21.69086 l 0,-180.59505 z"
         id="path36084"
         inkscape:connector-curvature="0"
         style="clip-rule:evenodd;fill:#790d23;fill-rule:evenodd" /><path
         d="m 72.214109,401.71565 23.62889,0 0,180.59505 0,23.44665 -23.62889,0 -21.5623,0 0,-1.7828 0.0607,0 c 0.6762,-13.8303 10.88752,-21.1146 21.50151,-21.66385 l 0,-180.59505 z"
         id="path36086"
         inkscape:connector-curvature="0"
         style="clip-rule:evenodd;fill:#790d23;fill-rule:evenodd" /><path
         d="m 65.710469,58.254618 c 0,0 10.60642,33.99945 -22.51201,53.871472 l 12.01198,16.40546 c 0,0 -4.07997,13.6502 -2.34009,22.40217 l 33.825,0 0,-96.379782 -20.98488,3.70068 z"
         id="path36088"
         inkscape:connector-curvature="0"
         style="clip-rule:evenodd;fill:#790d23;fill-rule:evenodd" /><path
         d="m 152.79544,178.36018 116.95915,-0.31514 c 9.68707,2.68322 7.30898,-33.14406 7.30898,-35.30504 l 6.73158,0 0,25.34652 0.10642,0 22.80073,2.82728 -2.71239,28.73205 -20.9013,6.11378 -0.27352,-7.97763 -132.48887,6.32988 2.18814,-23.25757 0.28112,-2.49413 z"
         id="path36090"
         inkscape:connector-curvature="0"
         style="clip-rule:evenodd;fill:#ffd391;fill-rule:evenodd" /><path
         d="m 28.192989,217.23084 c -2.24133,-1.90887 -19.0398703,22.15907 -20.1111503,24.06793 -16.752947,30.16371 -7.64328596,72.39289 29.0384603,70.35797 0,0 -6.10096,-24.38308 -6.19974,-24.69822 -1.54994,-6.3749 -10.64439,-4.55607 -12.71857,-11.10205 -3.02389,-9.34624 4.90053,-22.16807 10.71278,-27.89467 1.15485,-1.24256 15.5753,-16.31541 16.01597,-15.8562 -0.10642,0 -16.73775,-14.87476 -16.73775,-14.87476"
         id="path36092"
         inkscape:connector-curvature="0"
         style="clip-rule:evenodd;fill:#ffd391;fill-rule:evenodd" /><path
         d="m 72.176129,222.00301 0,184.74593 72.679701,0 c 0,0 0.87374,-134.40406 -19.25261,-193.43488 l 38.49,0 0,-5.30341 0,-29.64146 -59.39129,0 c -3.56333,-0.47722 -7.172251,-0.71133 -10.895121,-0.71133 -28.93207,0 -54.7491,14.9738 -71.38808,38.2854 -0.31151,0.37817 -0.70659,0.80136 -1.05609,1.18854 l 21.8814,18.00818 c 0.0152,-0.009 15.58291,-21.05157 28.93209,-13.13697"
         id="path36094"
         inkscape:connector-curvature="0"
         style="fill:#ffde15" /><polygon
         points="468.588,292.077 468.588,289.271 471.074,289.271 471.074,277.64 464.454,277.64 464.454,289.271 465.253,289.271 465.253,291.757 "
         id="polygon36096"
         transform="matrix(7.5977102,0,0,9.0040906,-3442.0839,-2445.3418)"
         style="clip-rule:evenodd;fill:#ffd391;fill-rule:evenodd" /><rect
         x="108.25012"
         y="137.17557"
         width="9.8846216"
         height="22.150064"
         id="rect36098"
         style="clip-rule:evenodd;fill:#642b13;fill-rule:evenodd" /><path
         d="m 125.61082,213.35908 0,0 38.49,0 0,-5.2944 0,-29.64147 -59.39129,0 -21.813031,0 c -23.38576,3.11542 -44.04393,16.05429 -58.44919,34.93587 l 101.163511,0 z m -53.434691,158.44498 0,0 0,34.95389 72.679701,0 c 0,-1.90887 0.076,-15.44202 -0.44828,-34.95389 l -72.231421,0 z m 0,-64.43327 0,0 0,34.90886 71.106971,0 c -0.50145,-11.05702 -1.23083,-22.92441 -2.18054,-34.90886 l -68.926431,0 z m 0,-64.46028 0,34.86384 66.100081,0 c -1.44356,-12.12851 -3.13786,-23.92387 -5.25003,-34.86384 l -60.850051,0 z"
         id="path36100"
         inkscape:connector-curvature="0"
         style="fill:#e30613" /><path
         d="m 111.04601,235.13998 c -0.24313,-0.45021 -0.46345,-0.89141 -0.69139,-1.29659 -0.10641,-0.30614 -0.3191,-0.62128 -0.49385,-0.92742 -2.81115,-4.36699 -7.47615,-7.29332 -12.824931,-7.29332 -7.93961,0 -14.51922,6.42892 -15.48413,14.61364 -0.0531,0.27012 -0.0531,0.50423 -0.0988,0.77435 -1.90702,18.0532 -17.40635,13.80327 -17.40635,13.80327 l -0.076,0.14407 c -2.06658,-0.45921 -4.23193,-0.70232 -6.47325,-0.70232 -18.18892,0 -33.1868,16.05429 -33.1868,35.62018 0,12.71378 6.20732,23.80682 15.53731,30.16371 3.92042,2.71923 8.44106,4.51105 13.23521,5.17735 l 0.0684,0 c 3.49495,0.81037 7.12666,1.3146 10.89512,1.3146 29.8514,0 54.194471,-27.42646 54.194471,-61.04774 0,-11.02101 -2.64401,-21.38471 -7.19504,-30.34378"
         id="path36102"
         inkscape:connector-curvature="0"
         style="fill:#642b13" /><path
         d="m 97.309359,119.8516 c -0.0988,0.37817 -0.15196,0.79236 -0.25833,1.13452 -1.38279,7.90559 4.528241,16.0633 13.250411,18.20627 8.6386,2.07094 16.84412,-2.6292 18.20411,-10.48977 0.12151,-0.40518 0.12151,-0.76534 0.17474,-1.21555 L 97.309359,119.8516 Z"
         id="path36104"
         inkscape:connector-curvature="0"
         style="fill:#ffffff" /><path
         d="m 136.99979,54.553938 0,-52.5928904 C 56.881939,-12.805662 48.456069,60.667718 48.456069,60.667718 l 88.543721,0 0,-6.11378 z"
         id="path36106"
         inkscape:connector-curvature="0"
         style="clip-rule:evenodd;fill:#1d1d1b;fill-rule:evenodd" /><path
         d="m 37.067099,282.9517 c 0,-4.8352 3.51775,-8.68895 7.87884,-8.68895 4.27751,0 7.79524,3.86275 7.79524,8.68895 0,4.75416 -3.52533,8.69795 -7.79524,8.69795 -4.36109,0 -7.87884,-3.93479 -7.87884,-8.69795"
         id="path36108"
         inkscape:connector-curvature="0"
         style="clip-rule:evenodd;fill:#e94d3c;fill-rule:evenodd" /><path
         d="m 52.748779,306.89357 c 0,-4.80818 3.59372,-8.68894 7.89403,-8.68894 4.33069,0 7.85602,3.88076 7.85602,8.68894 0,4.8262 -3.52533,8.68895 -7.85602,8.68895 -4.30031,0 -7.89403,-3.86275 -7.89403,-8.68895"
         id="path36110"
         inkscape:connector-curvature="0"
         style="clip-rule:evenodd;fill:#63b770;fill-rule:evenodd" /><path
         d="m 79.386359,297.02509 c 0,-4.82619 3.52533,-8.68895 7.84843,-8.68895 4.36868,0 7.89403,3.86276 7.89403,8.68895 0,4.74516 -3.52535,8.61692 -7.89403,8.61692 -4.3231,0 -7.84843,-3.87176 -7.84843,-8.61692"
         id="path36112"
         inkscape:connector-curvature="0"
         style="clip-rule:evenodd;fill:#f6a14d;fill-rule:evenodd" /><path
         d="m 93.282569,274.27175 c 0,-4.82619 3.57852,-8.71596 7.886421,-8.71596 4.3231,0 7.84084,3.89878 7.84084,8.71596 0,4.80819 -3.51774,8.69796 -7.84084,8.69796 -4.307901,0.009 -7.886421,-3.88977 -7.886421,-8.69796"
         id="path36114"
         inkscape:connector-curvature="0"
         style="clip-rule:evenodd;fill:#72c6cf;fill-rule:evenodd" /><path
         d="m 93.282569,245.57572 c 0,-4.81719 3.57852,-8.71596 7.886421,-8.71596 4.3231,0 7.84084,3.89877 7.84084,8.71596 0,4.73615 -3.51774,8.61691 -7.84084,8.61691 -4.307901,0 -7.886421,-3.88076 -7.886421,-8.61691"
         id="path36116"
         inkscape:connector-curvature="0"
         style="clip-rule:evenodd;fill:#f4a094;fill-rule:evenodd" /><rect
         x="225.70302"
         y="214.05243"
         width="15.810835"
         height="70.204895"
         id="rect36118"
         style="fill:#69424a;fill-opacity:1" /><rect
         x="171.43251"
         y="268.35617"
         width="121.35822"
         height="177.15547"
         id="rect36120"
         style="fill:#ffffff;stroke:#352a2a;stroke-width:2.47251105;stroke-linecap:round;stroke-linejoin:round;stroke-miterlimit:4;stroke-dasharray:none;stroke-opacity:1" /><polygon
         points="480.903,304.445 484.826,304.985 483.593,310.906 482.746,309.824 "
         id="polygon36122"
         transform="matrix(7.5977102,0,0,9.0040906,-3442.0839,-2445.3418)"
         style="fill:#63b770" /><polygon
         points="474.613,321.063 474.613,323.609 477.887,323.609 473.526,338.953 475.891,338.953 480.521,323.609 482.746,323.609 482.746,338.953 484.826,338.953 484.826,323.609 487.119,323.609 491.799,339.133 494.167,339.133 489.748,323.609 492.549,323.609 492.549,321.063 "
         id="polygon36124"
         transform="matrix(7.5977102,0,0,9.0040906,-3442.0839,-2445.3418)"
         style="fill:#69424a;fill-opacity:1" /><path
         d="m 193.64072,368.5806 c 0,-23.44665 17.19362,-42.49931 38.45962,-42.49931 21.228,0 38.46719,19.05266 38.46719,42.49931 0,23.42864 -17.23919,42.50831 -38.46719,42.50831 -21.266,0 -38.45962,-19.07967 -38.45962,-42.50831"
         id="path36126"
         inkscape:connector-curvature="0"
         style="fill:#f6a14d" /><rect
         x="91.033554"
         y="78.684959"
         width="18.135735"
         height="6.5909939"
         id="rect36128"
         style="fill:#1d1d1b" /><rect
         x="118.88687"
         y="78.684959"
         width="18.11294"
         height="6.5909939"
         id="rect36130"
         style="fill:#1d1d1b" /></g></g></svg>