<?xml version="1.0" encoding="UTF-8" standalone="no"?>
<!-- Generator: Adobe Illustrator 14.0.0, SVG Export Plug-In . SVG Version: 6.00 Build 43363)  -->

<svg
   xmlns:dc="http://purl.org/dc/elements/1.1/"
   xmlns:cc="http://creativecommons.org/ns#"
   xmlns:rdf="http://www.w3.org/1999/02/22-rdf-syntax-ns#"
   xmlns:svg="http://www.w3.org/2000/svg"
   xmlns="http://www.w3.org/2000/svg"
   xmlns:sodipodi="http://sodipodi.sourceforge.net/DTD/sodipodi-0.dtd"
   xmlns:inkscape="http://www.inkscape.org/namespaces/inkscape"
   version="1.1"
   id="Capa_1"
   x="0px"
   y="0px"
   width="435"
   height="590"
   viewBox="0 0 429.73469 0"
   enable-background="new 0 0 595.275 350"
   xml:space="preserve"
   inkscape:version="0.91 r13725"
   sodipodi:docname="skater-jump.svg"><metadata
     id="metadata32489"><rdf:RDF><cc:Work
         rdf:about=""><dc:format>image/svg+xml</dc:format><dc:type
           rdf:resource="http://purl.org/dc/dcmitype/StillImage" /><dc:title></dc:title></cc:Work></rdf:RDF></metadata><defs
     id="defs32487" /><sodipodi:namedview
     pagecolor="#ffffff"
     bordercolor="#666666"
     borderopacity="1"
     objecttolerance="10"
     gridtolerance="10"
     guidetolerance="10"
     inkscape:pageopacity="0"
     inkscape:pageshadow="2"
     inkscape:window-width="1916"
     inkscape:window-height="1035"
     id="namedview32485"
     showgrid="false"
     fit-margin-top="0"
     fit-margin-left="0"
     fit-margin-right="0"
     fit-margin-bottom="0"
     inkscape:zoom="0.46029144"
     inkscape:cx="38.294613"
     inkscape:cy="-132.8739"
     inkscape:window-x="4"
     inkscape:window-y="1"
     inkscape:window-maximized="1"
     inkscape:current-layer="Capa_1" /><g
     id="g37625"><path
       style="fill:#926a3a"
       inkscape:connector-curvature="0"
       id="path32115"
       d="m 176.50159,46.514905 -109.39413,75.667735 26.19443,4.58124 -29.93276,20.11513 c 0,0 56.65751,42.24016 117.80103,-20.11513 l 68.24636,-59.71071 0,-18.064565 -72.91493,-2.4737 z" /><path
       style="fill:#f6bdb4"
       inkscape:connector-curvature="0"
       id="path32117"
       d="m 202.33088,49.411745 -18.73515,37.463625 -15.9879,0 0,10.51325 c 0,8.03141 6.52035,14.54116 14.60559,14.54116 0.23473,0 0.51293,-0.0163 0.79983,-0.0407 l 0,0.0407 0,52.27331 27.40287,0 0,-18.14593 38.75697,0 0,0.0651 0.0435,-0.0407 0,-68.6372 c -0.0261,-0.56147 -0.0261,-1.09039 0,-1.61117 l 0,-8.81257 -46.88568,-17.608885 z" /><path
       style="fill:#009a3a"
       inkscape:connector-curvature="0"
       id="path32119"
       d="m 178.67504,49.411745 -45.30341,0 c 0,0 4.71204,-17.5682 45.30341,-15.32233 l 0,15.32233 z" /><path
       style="fill:#74b028"
       inkscape:connector-curvature="0"
       id="path32121"
       d="m 114.92338,49.468705 c 0,0 24.12531,50.800485 62.62147,-0.10579 l -62.62147,0.10579 z" /><polygon
       style="clip-rule:evenodd;fill:#926a3a;fill-rule:evenodd"
       transform="matrix(8.6938034,0,0,8.1371905,-839.4128,-2020.7059)"
       id="polygon32123"
       points="124.033,263.294 124.033,266.281 122.676,266.281 122.676,263.552 " /><path
       style="clip-rule:evenodd;fill:#ffffff;fill-rule:evenodd"
       inkscape:connector-curvature="0"
       id="path32125"
       d="m 217.37116,106.2663 31.78455,0 c 0.0695,0.45568 0.0695,0.92763 0.0695,1.48096 0,9.61816 -7.13762,17.36477 -15.93575,17.36477 -8.82421,0 -15.96182,-7.74661 -15.96182,-17.36477 -0.009,-0.55333 -0.009,-1.02528 0.0435,-1.48096" /><rect
       style="fill:#1d1d1b"
       id="rect32127"
       height="6.2981853"
       width="17.022467"
       y="76.834099"
       x="212.52872" /><rect
       style="fill:#1d1d1b"
       id="rect32129"
       height="6.2981853"
       width="10.667296"
       y="76.834099"
       x="238.65356" /><polygon
       style="clip-rule:evenodd;fill:#926a3a;fill-rule:evenodd"
       transform="matrix(8.6938034,0,0,8.1371905,-839.4128,-2020.7059)"
       id="polygon32131"
       points="116.661,259.003 118.061,259.003 118.061,260.365 119.823,260.365 119.823,253.633 118.061,253.959 118.061,256.421 116.661,256.421 " /><path
       style="fill:#74b028"
       inkscape:connector-curvature="0"
       id="path32133"
       d="m 177.49268,18.148655 0,31.27936 71.90645,0 c 0,-0.008 5.48579,-37.90303 -71.90645,-31.27936" /><polygon
       style="fill:#f6bdb4"
       transform="matrix(8.6938034,0,0,8.1371905,-839.4128,-2020.7059)"
       id="polygon32135"
       points="98.142,281.151 97.243,281.796 101.659,285 105.645,281.784 105.647,277.324 102.625,279.881 100.035,276.003 96.553,278.775 " /><polygon
       style="fill:#f6bdb4"
       transform="matrix(8.6938034,0,0,8.1371905,-839.4128,-2020.7059)"
       id="polygon32137"
       points="105.629,277.323 101.663,280.246 101.663,284.967 105.629,281.803 " /><path
       style="fill:#f6bdb4"
       inkscape:connector-curvature="0"
       id="path32139"
       d="m 406.444,6.048655 0,0.0244 -2.79071,0 0,27.79664 -12.32782,0 c -0.67811,22.857375 4.69466,32.703375 4.69466,32.703375 l -37.07038,25.5996 0,30.62025 70.78495,-52.79409 0,-63.950185 -23.2907,0 z" /><polygon
       style="fill:#e95315"
       transform="matrix(8.6938034,0,0,8.1371905,-839.4128,-2020.7059)"
       id="polygon32141"
       points="117.597,268.506 117.597,269.172 117.597,273.614 117.599,273.614 117.599,289.184 125.838,282.51 125.838,272.98 137.836,263.424 137.836,259.663 125.838,268.509 118.392,268.506 " /><path
       style="fill:#ffde15"
       inkscape:connector-curvature="0"
       id="path32143"
       d="m 182.93501,218.24217 71.6804,-54.06349 -71.62824,0.0244 -104.01267,71.77816 0,36.38951 103.96051,-77.52301 0,23.39442 z m -0.0435,68.79995 71.69779,-54.06349 0,-32.37789 -71.69779,50.02745 0,36.41393 z" /><path
       style="fill:#00b0db"
       inkscape:connector-curvature="0"
       id="path32145"
       d="M 321.28819,361.01732 C 334.042,331.2352 371.26887,228.45435 254.59803,275.87789 l -71.64564,54.29134 0,140.70829 37.71372,-29.6031 0,-94.62738 c 0,0 26.41178,-35.05502 67.87253,-37.27647 0,0 42.75612,3.02703 -19.24809,93.37426 -8.87637,37.42293 103.4128,-37.91931 103.4128,-37.91931 -20.16963,-29.44849 -44.97305,-9.80531 -51.41516,-3.8082" /><path
       style="fill:#e95315"
       inkscape:connector-curvature="0"
       id="path32147"
       d="m 232.1941,527.76461 c -24.93383,16.48595 -56.91834,16.28252 -71.35874,-0.43127 -14.4578,-16.64055 -5.97265,-43.51769 18.96118,-59.9955 l 141.8481,-93.69974 c 24.90774,-16.4534 56.84008,-16.29066 71.2718,0.415 14.50126,16.66496 6.00742,43.53396 -18.93511,60.02805 L 232.1941,527.76461 Z" /><path
       style="fill:#12214f"
       inkscape:connector-curvature="0"
       id="path32149"
       d="m 367.26102,418.70186 c -2.42557,0 -4.65118,0.48009 -6.65076,1.29381 l -16.34435,-15.56644 c 0.81722,-1.67626 1.28669,-3.56409 1.28669,-5.50074 0,-7.6571 -7.18978,-13.96342 -16.05746,-13.96342 -8.79813,0 -15.9966,6.29818 -15.9966,13.96342 0,7.7466 7.19847,14.0041 15.9966,14.0041 2.99936,0 5.78138,-0.68352 8.12002,-1.89596 l 14.77946,16.33947 c -0.71289,1.64372 -1.20844,3.4339 -1.20844,5.28918 0,7.74659 7.18978,14.01223 16.06615,14.01223 8.79813,0 15.98791,-6.26564 15.98791,-14.01223 0.009,-7.68151 -7.18109,-13.96342 -15.97922,-13.96342" /><path
       style="fill:#12214f"
       inkscape:connector-curvature="0"
       id="path32151"
       d="m 245.42606,511.44141 c -2.35602,0 -4.6251,0.47196 -6.65076,1.25313 L 222.43095,497.1525 c 0.86938,-1.65185 1.29538,-3.53967 1.29538,-5.47633 0,-7.72219 -7.14631,-13.939 -15.9966,-13.939 -8.86768,0 -16.05745,6.21681 -16.05745,13.939 0,7.74661 7.18977,14.02852 16.05745,14.02852 2.93851,0 5.71183,-0.74862 8.1374,-1.98547 l 14.69253,16.42085 c -0.73028,1.64371 -1.18236,3.41762 -1.18236,5.28917 0,7.72219 7.17239,14.00412 16.04007,14.00412 8.86768,0 15.9879,-6.28193 15.9879,-14.00412 0.009,-7.68151 -7.11153,-13.98783 -15.97921,-13.98783" /></g></svg>