<?xml version="1.0" encoding="UTF-8" standalone="no"?>
<svg
   xmlns:dc="http://purl.org/dc/elements/1.1/"
   xmlns:cc="http://creativecommons.org/ns#"
   xmlns:rdf="http://www.w3.org/1999/02/22-rdf-syntax-ns#"
   xmlns:svg="http://www.w3.org/2000/svg"
   xmlns="http://www.w3.org/2000/svg"
   xmlns:sodipodi="http://sodipodi.sourceforge.net/DTD/sodipodi-0.dtd"
   xmlns:inkscape="http://www.inkscape.org/namespaces/inkscape"
   xml:space="preserve"
   enable-background="new 0 0 595.275 350"
   viewBox="0 0 489.85017 584.15094"
   height="584.15094"
   width="489.85019"
   y="0px"
   x="0px"
   id="Capa_1"
   version="1.1"
   inkscape:version="0.48.4 r9939"
   sodipodi:docname="touristssimple.png"><sodipodi:namedview
     pagecolor="#ffffff"
     bordercolor="#666666"
     borderopacity="1"
     objecttolerance="10"
     gridtolerance="10"
     guidetolerance="10"
     inkscape:pageopacity="0"
     inkscape:pageshadow="2"
     inkscape:window-width="2556"
     inkscape:window-height="1564"
     id="namedview10310"
     showgrid="false"
     inkscape:zoom="1.1426992"
     inkscape:cx="-55.523115"
     inkscape:cy="350.64764"
     inkscape:window-x="0"
     inkscape:window-y="16"
     inkscape:window-maximized="0"
     inkscape:current-layer="Capa_1" /><metadata
     id="metadata30697"><rdf:RDF><cc:Work
         rdf:about=""><dc:format>image/svg+xml</dc:format><dc:type
           rdf:resource="http://purl.org/dc/dcmitype/StillImage" /><dc:title></dc:title></cc:Work></rdf:RDF></metadata><defs
     id="defs30695" /><path
     style="fill:#790d23;fill-rule:evenodd"
     id="path29607"
     d="m 363.14407,307.85218 39.16017,-10.08797 0,8.38175 41.9969,-1.1637 0,174.06665 0,21.04085 0,1.71409 -32.23856,0 0,-4.32454 c -0.12014,0.85705 -0.24696,1.71409 -0.24696,2.61045 l 0,-140.76769 c 0,-9.56903 -3.99144,-12.9579 -8.14307,-12.80064 l 0,0.10222 c -0.22694,-0.0786 -0.48058,-0.0786 -0.68749,-0.10222 -0.22694,0.0236 -0.4472,0.0236 -0.68749,0.10222 l 0,-0.10222 c -4.23173,-0.16512 -6.48776,3.23161 -6.48776,12.80064 l -0.58737,120.03349 0,22.45616 c 0,0 -32.09171,-1.99716 -32.09171,-1.71409 l 0,-192.24545 z"
     inkscape:connector-curvature="0" /><rect
     style="fill:#1d1d1b"
     id="rect29609"
     height="88.464355"
     width="12.201259"
     y="147.38812"
     x="454.81363" /><path
     style="fill:#f6bdb4;fill-rule:evenodd"
     id="path29611"
     d="m 413.72457,75.57723 10.37908,0 c 0,0 3.02362,17.45541 -10.37908,18.22597 l 0,-18.22597 z"
     inkscape:connector-curvature="0" /><rect
     style="fill:#926a3a"
     id="rect29613"
     height="172.65135"
     width="83.379723"
     y="136.98566"
     x="361.26831" /><polygon
     style="fill:#784421;fill-rule:evenodd"
     transform="matrix(6.6746495,0,0,7.8627993,-3379.8459,-2080.2844)"
     id="polygon29615"
     points="564.657,281.991 564.404,281.991 566.994,284.635 568.844,281.996 568.847,281.996 568.847,281.991 568.847,281.991 568.822,280.201 568.822,278.029 568.822,269.62 559.986,269.62 559.986,280.201 564.657,280.201 " /><path
     style="fill:#1d1d1b"
     id="path29617"
     d="m 407.35028,33.37759 0,-17.67558 -24.7496,0 C 372.44186,14.51473 371.7744,0 371.7744,0 l -13.90997,0 0,39.65996 11.05322,0 2.85675,0 17.54098,0 c -0.0935,17.65199 16.24609,13.85425 16.24609,13.85425 l 0,12.66697 11.27349,-5.4096 0,-27.39399 -9.48468,0 z"
     inkscape:connector-curvature="0" /><rect
     style="fill:#1d1d1b"
     id="rect29619"
     height="52.74366"
     width="48.130898"
     y="66.196938"
     x="320.80688" /><path
     style="fill:#ffffff"
     id="path29621"
     d="m 329.3837,92.58446 c 0,-7.30454 5.1061,-13.20164 11.4003,-13.20164 6.30754,0 11.41365,5.8971 11.41365,13.20164 0,7.28096 -5.10611,13.20164 -11.41365,13.20164 -6.2942,-0.008 -11.4003,-5.92855 -11.4003,-13.20164"
     inkscape:connector-curvature="0" /><rect
     style="fill:#1d1d1b"
     id="rect29623"
     height="65.544296"
     width="48.137573"
     y="235.85254"
     x="429.41013" /><path
     style="fill:#1d1d1b;fill-rule:evenodd"
     id="path29625"
     d="m 395.23579,584.15095 0,-85.73596 -32.08504,0 0,66.18904 c 0,0 -13.7965,0.25161 -11.73403,19.53906 l 43.81907,0 z"
     inkscape:connector-curvature="0" /><path
     style="fill:#1d1d1b;fill-rule:evenodd"
     id="path29627"
     d="m 444.28111,584.15095 0,-85.73596 -32.44547,0 0,66.18904 c 0,0 -13.92332,0.25161 -11.84083,19.53906 l 44.2863,0 z"
     inkscape:connector-curvature="0" /><rect
     style="fill:#1d1d1b"
     id="rect29629"
     height="100.43153"
     width="15.251575"
     y="136.98566"
     x="429.41013" /><path
     style="fill:#646c87"
     id="path29631"
     d="m 429.93729,235.86039 c -0.36043,2.6419 -0.52729,5.39388 -0.52729,8.2638 0,21.434 10.18551,38.82651 22.7472,38.82651 l 2.62314,0 c 12.58171,0 22.76723,-17.39251 22.76723,-38.82651 0,-2.86992 -0.18689,-5.61403 -0.5273,-8.2638 l -47.08298,0 z"
     inkscape:connector-curvature="0" /><path
     style="fill:#1d1d1b"
     id="path29633"
     d="m 457.54364,272.33592 c 0,2.79915 -2.02242,5.03219 -4.57881,5.03219 -2.52301,0 -4.55211,-2.22517 -4.55211,-5.03219 0,-2.77557 2.0291,-5.02433 4.55211,-5.02433 2.56307,0 4.57881,2.24876 4.57881,5.02433"
     inkscape:connector-curvature="0" /><path
     style="fill:#926a3a"
     id="path29635"
     d="m 373.04258,137.00142 -11.8742,0 c -2.10252,17.80924 -13.30258,32.43404 -28.28049,37.78861 -0.62074,0.23588 -1.28153,0.44032 -1.949,0.62116 -0.3938,0.13367 -1.21479,0.3381 -1.21479,0.3381 -1.8155,0.39314 -3.70443,0.62903 -5.62005,0.62903 -15.59866,0 -28.26714,-14.27098 -28.26714,-31.91511 0,-10.48897 4.51206,-19.76707 11.44702,-25.56982 l 0,-17.1409 c -17.46088,7.50897 -29.72889,25.2789 -29.72889,45.98951 0,27.50407 21.63922,49.82656 48.31779,49.82656 26.67858,0 48.31779,-22.32249 48.31779,-49.82656 0,-3.69551 -0.38046,-7.27309 -1.14804,-10.74058"
     inkscape:connector-curvature="0" /><path
     style="fill:#784421"
     id="path29637"
     d="m 307.25723,118.97202 c -2.50299,-3.56971 -3.99811,-8.12227 -3.99811,-13.06011 0,-11.54259 8.06965,-20.85214 18.0082,-20.85214 l 2.3962,0 0,33.91225 -16.40629,0 z"
     inkscape:connector-curvature="0" /><path
     style="fill:#926a3a"
     id="path29639"
     d="M 461.27477,57.79944 C 453.6857,54.19828 445.64942,52.9245 437.8601,53.60071 l 0,-0.10222 c -0.82098,0.10222 -1.60859,0.20443 -2.42957,0.3381 -0.04,0.0157 -0.0868,0.0157 -0.14017,0.0157 -30.45642,4.54469 -54.81222,22.73135 -62.46804,46.23325 l 12.46824,0 c 9.6382,-11.95931 23.94864,-21.12734 41.16257,-25.77425 3.33065,-1.13224 7.06177,-1.75341 10.96644,-1.75341 8.6103,0 16.27947,3.02718 21.25876,7.74486 9.9786,9.1523 13.76981,23.85573 8.41006,36.57774 -0.81431,1.93425 -1.82885,3.70338 -2.96354,5.37816 0,0 -0.54065,0.71551 -0.83433,1.09293 -0.42718,0.55826 -0.88773,1.17156 -1.35496,1.6905 -4.74567,5.41747 -10.68611,9.44322 -17.26064,11.88855 l 0,22.3618 c 17.08043,-1.94211 32.95942,-13.42966 40.65529,-31.60059 11.35358,-26.9065 0.58069,-58.19257 -24.05544,-69.89242"
     inkscape:connector-curvature="0" /><path
     style="fill:#502d16"
     id="path29641"
     d="m 385.33061,100.10916 c 2.48297,-3.56184 3.98477,-8.11441 3.98477,-13.05224 0,-11.52687 -8.05631,-20.85215 -17.99486,-20.85215 l -2.3962,0 0,33.91226 16.40629,0 z"
     inkscape:connector-curvature="0" /><path
     style="fill:#aa00d4;fill-rule:evenodd"
     id="path30103"
     d="m 133.44817,79.30028 c 0,0 47.28989,-14.53045 47.40336,-14.56191 6.34092,-1.95783 12.31473,-4.50538 19.10285,-4.12797 17.90141,0.95927 20.55124,21.87431 11.93427,35.20176 -6.48776,10.04865 -18.72907,19.39752 -29.40851,22.44829 -10.29898,2.93282 -22.96079,3.06649 -33.49339,1.87134 0,0.008 -22.12646,-14.93931 -15.53858,-40.83151"
     inkscape:connector-curvature="0" /><path
     style="fill:#000000;fill-rule:evenodd"
     id="path30105"
     d="m 110.76103,115.02884 c 0,0 2.06915,24.43758 -11.93427,35.12312 l 18.5355,0 c 0,0 3.96474,20.14449 -14.30377,26.04946 l 0,23.98153 -15.37172,48.67073 c 0,0 -30.09599,-15.15948 -35.04858,-30.57056 0,0 -5.77358,-11.73916 15.67875,-11.30671 0,0 5.76689,-1.3524 -7.00838,-9.93071 0,0 -25.2769,-15.97721 8.23651,-33.53484 0,0 5.76023,-2.28021 -4.12493,-8.16159 0,0 -9.47133,-5.00074 -7.82936,-19.47615 0,0 16.06588,-1.80844 19.36983,-20.85214 3.30395,-19.02012 31.74463,0 31.74463,0 l 2.05579,0 z"
     inkscape:connector-curvature="0" /><path
     style="fill:#ffd391;fill-rule:evenodd"
     id="path30107"
     d="m 99.06037,141.02325 c 1.48178,0 2.86343,0.45604 3.98477,1.29736 l 0,-32.22175 54.28492,-4.56042 0,59.32482 c 0,0 1.08797,13.98792 -14.64418,15.84354 l -19.0361,0 0,20.09732 -20.60464,0 0,-46.30403 c -1.12134,0.81773 -2.50299,1.29736 -3.98477,1.29736 -3.94471,0 -7.11517,-3.29451 -7.11517,-7.38317 0,-4.08865 3.17046,-7.39103 7.11517,-7.39103"
     inkscape:connector-curvature="0" /><path
     style="fill:#f7a541;fill-rule:evenodd"
     id="path30113"
     d="m 79.02975,90.71706 77.53273,-17.51831 c 0,0 -0.72086,-1.69051 -0.38046,-0.85705 -0.8677,-2.14654 -2.37617,-5.32311 -6.46773,-10.49684 L 81.75968,73.19875 c -1.40835,4.1201 -2.35615,8.82206 -2.65651,14.11372 -0.0534,1.11652 -0.0734,2.23304 -0.0734,3.40459"
     inkscape:connector-curvature="0" /><path
     style="fill:#aa00d4;fill-rule:evenodd"
     id="path30115"
     d="m 81.75968,73.20661 c 0.0134,0 67.89454,-11.32243 67.95461,-11.34602 -0.68749,0.10222 -5.70683,-6.08581 -6.62793,-6.86422 -2.99024,-2.56328 -6.27417,-4.67051 -9.79171,-6.29024 -10.05202,-4.65478 -21.89285,-6.40819 -31.66454,-0.0786 -3.75782,2.44533 -7.48228,5.57472 -10.63271,8.86924 -2.08249,2.19372 -3.75116,4.67836 -5.43317,7.24163 -2.11586,3.16871 -3.80455,7.23378 -3.80455,8.46824"
     inkscape:connector-curvature="0" /><path
     style="fill:#000000;fill-rule:evenodd"
     id="path30117"
     d="m 103.05181,176.20142 0,23.86359 -12.7686,0 1.64864,-92.75744 c 8.27656,2.03646 16.77339,7.72913 16.77339,7.72913 l 2.04912,0 c 0,0 2.07582,24.44544 -11.93427,35.09954 l 18.54217,0 c 0,0 3.96474,20.16808 -14.31045,26.06518"
     inkscape:connector-curvature="0" /><path
     style="fill:#1a1a1a;fill-rule:evenodd"
     id="path30119"
     d="m 157.34341,105.52271 0,-10.86638 -27.13912,0 -5.61338,11.93572 c -0.007,0 21.21871,10.717 32.7525,-1.06934"
     inkscape:connector-curvature="0" /><path
     style="fill:#aa00d4;fill-rule:evenodd"
     id="path30121"
     d="m 157.34341,71.98001 c 0,0 -15.65872,47.13748 -66.35936,49.86588 0,0 -37.93204,6.33741 -61.81393,-27.19743 L 157.34341,71.98001 z"
     inkscape:connector-curvature="0" /><path
     style="fill:#ffffff;fill-rule:evenodd"
     id="path30123"
     d="m 151.60673,153.6344 -22.70334,4.17336 c 0,0 1.6759,14.33106 12.4706,12.50593 -0.003,-0.007 12.76951,-0.14364 10.23274,-16.67929"
     inkscape:connector-curvature="0" /><polygon
     style="fill:#37abc8;fill-rule:evenodd"
     transform="matrix(-6.6746495,0,0,7.8627993,1795.1822,-2080.8152)"
     id="polygon30125"
     points="249.447,297.129 249.447,299.548 254.522,299.548 254.522,297.129 253.516,297.129 253.576,290.101 250.428,290.101 250.428,297.129 " /><path
     style="fill:#aa00d4;fill-rule:evenodd"
     id="path30127"
     d="m 136.33829,200.17509 c 8.20315,0 14.83775,7.30454 14.83775,16.29172 0,7.61119 -4.74568,13.9722 -11.13332,15.78064 l 0,23.64344 -18.5622,0 0,-55.72366 14.85777,0 z"
     inkscape:connector-curvature="0" /><path
     style="fill:#aa00d4;fill-rule:evenodd"
     id="path30129"
     d="m 152.36189,215.64094 -25.61951,4.46981 c 0,0 -10.70232,33.08728 9.67771,53.62067 0,0 20.03939,22.42723 53.40384,-3.81111 l -6.52047,-10.88807 c -3.86822,2.91528 -8.08691,4.89189 -12.94455,5.36317 -9.92609,1.00916 -18.49712,-1.32068 -22.32463,-10.29728 -0.003,-0.006 -5.48294,-26.75045 4.32761,-38.45719"
     inkscape:connector-curvature="0" /><path
     style="fill:#ffd391;fill-rule:evenodd"
     id="path30131"
     d="m 194.86288,245.65961 c 1.01079,0.45951 -9.72498,11.93141 -10.72488,12.7192 -0.2582,0.23839 -0.54169,0.43672 -0.7957,0.64439 l -0.029,0.0121 6.51321,10.89111 c 0.23273,-0.17704 0.47481,-0.37251 0.72881,-0.58019 0,0 11.81333,-11.62646 15.91283,-18.26402 0.0101,0.003 -11.56803,-5.39481 -11.60526,-5.42264"
     inkscape:connector-curvature="0" /><path
     style="fill:#ffd391;fill-rule:evenodd"
     id="path30133"
     d="m 196.87369,249.68756 -0.14697,-0.35093 -4.85592,-11.96146 24.87972,-10.14443 5.00804,12.32469 c 1.43998,3.60126 -2.97549,8.77191 -9.83618,11.54379 -6.88873,2.82705 -13.58954,2.17433 -15.04869,-1.41166"
     inkscape:connector-curvature="0" /><path
     style="fill:#926a3a;fill-rule:evenodd"
     id="path30135"
     d="m 128.21524,540.39842 c 0,0 26.92554,10.86639 28.57418,43.48128 l -84.09391,0 c 0,0 0.56067,-33.51125 28.03353,-38.51199 l 27.4862,-4.96929 z"
     inkscape:connector-curvature="0" /><path
     style="fill:#225500;fill-rule:evenodd"
     id="path30137"
     d="m 97.57193,423.53363 -32.97945,121.82621 101.00747,0 -35.38899,-121.38589 c 45.72803,-55.87305 24.33577,-110.26004 9.71162,-135.22442 l -51.80863,0 c -37.54491,73.91031 9.45798,134.7841 9.45798,134.7841"
     inkscape:connector-curvature="0" /><path
     style="fill:#790d23;fill-rule:evenodd"
     id="path30139"
     d="m 88.12062,288.72594 51.80863,0 c -5.29299,-9.05009 -9.72496,-14.26312 -9.72496,-14.26312 l -33.86717,0 c -3.11707,4.79631 -5.847,9.52971 -8.2165,14.26312"
     inkscape:connector-curvature="0" /><path
     style="fill:#aa00d4;fill-rule:evenodd"
     id="path30149"
     d="m 86.85911,200.17509 16.20605,0 0,55.72366 -16.20605,0 0,-32.59917 c -9.56477,7.42249 -34.04071,32.89796 -47.13637,105.66816 l -16.45301,0 c 0,0 10.15214,-89.12483 63.58938,-128.79265"
     inkscape:connector-curvature="0" /><polyline
     style="fill:#ffd391;fill-rule:evenodd"
     transform="matrix(-6.6746495,0,0,7.8627993,1795.1822,-2080.8152)"
     id="polyline30151"
     points="268.356,306.021 265.395,306.021 262.904,306.021   263.004,306.482 263.333,308.633 266.216,309.63 266.791,308.557 265.468,308.058 268.356,308.058 " /><path
     style="fill:none;stroke:#000000;stroke-width:4;stroke-linecap:butt;stroke-linejoin:miter;stroke-miterlimit:4;stroke-opacity:1;stroke-dasharray:none"
     d="m 124.48759,125.13868 12.4276,8.18549"
     id="path10459"
     inkscape:connector-curvature="0"
     sodipodi:nodetypes="cc" /><path
     sodipodi:nodetypes="cc"
     inkscape:connector-curvature="0"
     id="path11229"
     d="m 155.45315,124.48045 -12.3753,8.26433"
     style="fill:none;stroke:#000000;stroke-width:4;stroke-linecap:butt;stroke-linejoin:miter;stroke-miterlimit:4;stroke-opacity:1;stroke-dasharray:none" /></svg>