<?xml version="1.0" encoding="UTF-8" standalone="no"?>
<!-- Generator: Adobe Illustrator 14.0.0, SVG Export Plug-In . SVG Version: 6.00 Build 43363)  -->

<svg
   xmlns:dc="http://purl.org/dc/elements/1.1/"
   xmlns:cc="http://creativecommons.org/ns#"
   xmlns:rdf="http://www.w3.org/1999/02/22-rdf-syntax-ns#"
   xmlns:svg="http://www.w3.org/2000/svg"
   xmlns="http://www.w3.org/2000/svg"
   xmlns:sodipodi="http://sodipodi.sourceforge.net/DTD/sodipodi-0.dtd"
   xmlns:inkscape="http://www.inkscape.org/namespaces/inkscape"
   version="1.1"
   id="Capa_1"
   x="0px"
   y="0px"
   width="387.24466"
   height="657.55786"
   viewBox="0 0 387.24464 657.55786"
   enable-background="new 0 0 595.275 350"
   xml:space="preserve"
   inkscape:version="0.91 r13725"
   sodipodi:docname="waiterwine.svg"><metadata
     id="metadata34147"><rdf:RDF><cc:Work
         rdf:about=""><dc:format>image/svg+xml</dc:format><dc:type
           rdf:resource="http://purl.org/dc/dcmitype/StillImage" /><dc:title></dc:title></cc:Work></rdf:RDF></metadata><defs
     id="defs34145" /><sodipodi:namedview
     pagecolor="#ffffff"
     bordercolor="#666666"
     borderopacity="1"
     objecttolerance="10"
     gridtolerance="10"
     guidetolerance="10"
     inkscape:pageopacity="0"
     inkscape:pageshadow="2"
     inkscape:window-width="1916"
     inkscape:window-height="1035"
     id="namedview34143"
     showgrid="false"
     inkscape:zoom="0.92596773"
     inkscape:cx="475.11338"
     inkscape:cy="380.99074"
     inkscape:window-x="4"
     inkscape:window-y="1"
     inkscape:window-maximized="1"
     inkscape:current-layer="g34744"
     fit-margin-top="0"
     fit-margin-left="0"
     fit-margin-right="0"
     fit-margin-bottom="0" /><g
     id="g34693"
     transform="translate(177.47586,318.68781)"><g
       id="g34744"><g
         id="g37646"><path
           style="clip-rule:evenodd;fill:#a35744;fill-rule:evenodd"
           inkscape:connector-curvature="0"
           id="path33699"
           d="m 94.66867,-175.85824 46.32421,3.44957 c -2.04518,21.92005 -22.65986,38.73998 -47.129613,38.34699 -25.591885,-0.39299 -46.016525,-19.48352 -45.564052,-42.53887 0.235287,-11.10849 5.293937,-21.69299 14.207659,-29.43051 l 32.161796,30.17282 z" /><rect
           style="fill:#ffd391"
           id="rect33701"
           height="29.902094"
           width="30.152815"
           y="-113.81841"
           x="54.217632" /><path
           style="fill:#ddf1da;fill-opacity:1"
           inkscape:connector-curvature="0"
           id="path33703"
           d="m -2.5949702,-61.463514 0,0 -3.9817646,0 -0.7692032,0 -0.6153638,0 C -30.422072,-63.358594 -50.430443,-72.467205 -65.099617,-86.125755 -79.805001,-99.854171 -89.234542,-118.10633 -90.564811,-138.31469 l 0,-0.88204 0,-27.69263 31.47404,0 0,26.87172 c 0.913989,13.29176 7.067627,25.24735 16.714357,34.21624 9.429542,8.794216 22.225484,14.723983 36.5779341,16.025213 l 129.9593499,0.130997 1.20358,0 c 23.76389,1.694219 44.89439,11.449079 59.9889,26.085735 15.185,14.75892 24.41545,34.373437 24.41545,55.8044359 0,19.1254631 -7.41151,37.0195611 -19.98121,51.1671661 -12.61496,14.147604 -30.31571,24.627314 -51.07518,28.836657 l -2.5248,-10.191511 0,9.318203 -138.7735301,0 0,-132.83901 z M 136.17856,43.482011 c 11.68286,-3.22251 21.68252,-9.519067 29.02163,-17.771836 8.09927,-9.195941 12.94074,-20.8895472 12.94074,-33.4651941 0,-14.0602729 -6.0179,-26.9241119 -15.86372,-36.4868439 -6.99523,-6.78561 -15.9542,-11.955598 -26.0896,-14.785119 l 0,102.508993 z" /><path
           style="clip-rule:evenodd;fill:#1d1d1b;fill-rule:evenodd"
           inkscape:connector-curvature="0"
           id="path33705"
           d="m 76.723582,338.87 c -0.289582,0 -1.131183,-0.0698 -2.235217,-0.0698 l 0,-153.80716 c 14.687279,0 26.858805,0.0611 32.188945,0.39299 0,6.54108 -1.49316,125.98353 -0.36198,126.96164 1.7013,1.57195 5.37538,-0.22706 20.22555,4.17441 11.39328,3.40591 16.56957,8.24405 14.60584,22.34798 l -64.423138,0 z" /><path
           style="clip-rule:evenodd;fill:#1d1d1b;fill-rule:evenodd"
           inkscape:connector-curvature="0"
           id="path33707"
           d="m 61.339494,338.87 c 0.289582,0 1.113084,-0.0698 2.235217,-0.0698 l 0,-153.80716 c -14.687279,0 -26.876907,0.0611 -32.179895,0.39299 0,6.54108 1.466014,125.98353 0.371028,126.96164 -1.701299,1.57195 -5.375381,-0.22706 -20.2527,4.17441 -11.44757217,3.40591 -16.5514693,8.24405 -14.5877358,22.34798 l 64.4140858,0 z" /><path
           style="fill:#ffd391"
           inkscape:connector-curvature="0"
           id="path33709"
           d="m 103.16612,-123.6955 c -8.958973,15.02964 -29.736543,20.73235 -46.541398,12.66298 -16.69626,-8.07811 -22.985637,-26.81932 -14.017619,-41.86643 l 25.365648,-42.6524 c 8.958969,-15.00345 29.817983,-20.71488 46.514249,-12.64552 16.7234,8.06064 23.02183,26.82805 14.07191,41.87516 l -25.39279,42.62621 z" /><path
           style="fill:#ffffff"
           inkscape:connector-curvature="0"
           id="path33711"
           d="m 91.646148,-134.31494 c -3.339252,8.88155 -14.044768,12.89004 -23.854387,9.02128 -9.845816,-3.93862 -15.103555,-14.23493 -11.719055,-23.09902 l 35.573442,14.07774 z" /><path
           style="fill:#e30613"
           inkscape:connector-curvature="0"
           id="path33713"
           d="m 42.109383,-85.724034 0,29.03752 22.877045,-12.828907 c 0.814451,1.309963 2.434305,2.130873 4.271346,2.130873 1.791794,0 3.420697,-0.82091 4.316594,-2.130873 l 22.813699,12.828907 0,-29.03752 -22.732253,11.553877 c -0.859699,-1.388561 -2.524801,-2.314269 -4.39804,-2.314269 -1.909437,0 -3.511191,0.925708 -4.434237,2.314269 L 42.109383,-85.724034 Z" /><path
           style="clip-rule:evenodd;fill:#790d23;fill-rule:evenodd"
           inkscape:connector-curvature="0"
           id="path33715"
           d="m 29.440133,-80.021327 0,41.220177 74.703327,0 0,-50.896439 15.31169,0 0,9.676262 0,48.145518 c 0,9.92952 6.92284,18.435549 16.72341,21.9287843 l 0,225.6630147 -138.7735302,0 0,-225.6630147 C 7.1875,-13.44026 14.137489,-21.946289 14.137489,-31.875809 l 0,-48.145518 0,-9.676262 15.293594,0 0,9.676262 z" /><path
           style="clip-rule:evenodd;fill:#e30613;fill-rule:evenodd"
           inkscape:connector-curvature="0"
           id="path33717"
           d="m 14.137489,215.72472 0,0 -7.067631,0 0,-231.592779 c 4.416139,-4.191882 7.067631,-9.824724 7.067631,-16.00775 l 0,247.600529 z m 105.335761,-247.591797 0,0 c 0,6.174294 2.72389,11.807136 7.06763,16.007752 l 0,231.592775 -7.06763,0 0,-247.600527 z m -28.044289,-6.951538 0,0 7.004285,0 0,254.543335 -7.004285,0 0,-254.543335 z m -28.125733,0 0,0 6.995234,0 0,254.543335 -6.995234,0 0,-254.543335 z m -28.107637,0 7.067633,0 0,254.525865 -7.067633,0 0,-254.525865 z" /><path
           style="fill:#ffd391"
           inkscape:connector-curvature="0"
           id="path33719"
           d="m 136.3867,42.730965 c 0.41627,-0.06113 0.83255,-0.06113 1.25787,-0.06113 13.00408,0 23.56481,9.519067 23.56481,21.221402 0,11.667405 -10.56978,21.169004 -23.56481,21.169004 l -1.25787,0 0,-42.329274 z" /><path
           style="clip-rule:evenodd;fill:#a35744;fill-rule:evenodd"
           inkscape:connector-curvature="0"
           id="path33721"
           d="m 90.162036,-142.28825 c -3.936517,-5.25732 -9.872965,-8.57589 -16.343332,-9.77232 -3.103967,-0.81218 -6.452267,-1.10911 -9.927261,-0.76852 -7.140027,0.68119 -13.393207,3.96483 -17.619308,8.70689 5.149147,3.68537 11.863848,5.65031 18.877182,4.95167 3.239709,-0.29693 6.226032,-1.12657 8.931821,-2.35794 0.787304,2.5064 2.008981,4.9342 3.646934,7.2048 4.008914,5.26605 9.999659,8.63702 16.406678,9.78106 1.330271,-5.9385 0.126696,-12.34859 -3.972714,-17.74564" /><path
           style="fill:#ffd391"
           inkscape:connector-curvature="0"
           id="path33723"
           d="m -52.186033,-180.30338 0,1.1091 c 0,11.746 -10.50642,21.21267 -23.492408,21.21267 -13.013125,0 -23.564812,-9.46667 -23.564812,-21.21267 0,-0.36679 0.04528,-0.71611 0.04528,-1.1091 l 47.011969,0 z" /><rect
           style="fill:#6a2e19"
           id="rect33725"
           height="15.405169"
           width="13.845679"
           y="-318.68781"
           x="-42.991749" /><path
           style="fill:#790d23"
           inkscape:connector-curvature="0"
           id="path33727"
           d="m -14.123987,-207.94361 c 0,11.7198 -10.207796,11.38795 -22.895144,11.38795 -12.578755,0 -22.795602,0.33185 -22.795602,-11.38795 l 0,-42.11095 c 0,-11.64994 10.216847,-21.10787 22.795602,-21.10787 12.687348,0 22.895144,9.45793 22.895144,21.10787 l 0,42.11095 z" /><rect
           style="fill:#790d23"
           id="rect33729"
           height="57.682049"
           width="20.080761"
           y="-311.01141"
           x="-46.575302" /><polygon
           style="fill:#bcbdc3"
           transform="matrix(9.0494639,0,0,8.7330885,-1369.4441,-2620.5117)"
           id="polygon33731"
           points="137.577,276.709 137.648,277.309 135.05,277.309 135.126,276.709 " /><rect
           style="fill:#bcbdc3"
           id="rect33733"
           height="26.644653"
           width="5.7373605"
           y="-227.83762"
           x="-139.19658" /><path
           style="fill:#790d23"
           inkscape:connector-curvature="0"
           id="path33735"
           d="m -110.0302,-253.32946 c 0,15.56236 -11.75526,28.20786 -26.2887,28.20786 -14.56059,0 -26.31583,-12.6455 -26.31583,-28.20786 l 52.60453,0 z" /><polygon
           style="fill:#bcbdc3"
           transform="matrix(9.0494639,0,0,8.7330885,-1369.4441,-2620.5117)"
           id="polygon33737"
           points="133.512,272.111 133.357,271.059 139.17,271.059 139.016,272.111 " /><polygon
           style="fill:#bcbdc3"
           transform="matrix(9.0494639,0,0,8.7330885,-1369.4441,-2620.5117)"
           id="polygon33739"
           points="143.899,276.709 143.972,277.309 141.381,277.309 141.45,276.709 " /><rect
           style="fill:#bcbdc3"
           id="rect33741"
           height="26.644653"
           width="5.7464099"
           y="-227.83762"
           x="-81.97683" /><path
           style="fill:#790d23"
           inkscape:connector-curvature="0"
           id="path33743"
           d="m -52.819494,-253.32946 c 0,15.56236 -11.764301,28.20786 -26.297739,28.20786 -14.533438,0 -26.288697,-12.6455 -26.288697,-28.20786 l 52.586436,0 z" /><polygon
           style="fill:#bcbdc3"
           transform="matrix(9.0494639,0,0,8.7330885,-1369.4441,-2620.5117)"
           id="polygon33745"
           points="139.833,272.111 139.68,271.059 145.492,271.059 145.338,272.111 " /><polygon
           style="fill:#6a2e19"
           transform="matrix(9.0494639,0,0,8.7330885,-1369.4441,-2620.5117)"
           id="polygon33747"
           points="132.419,279.363 131.717,277.272 153.308,277.272 152.602,279.363 " /><rect
           style="fill:#eeeeee;fill-opacity:1"
           id="rect33749"
           height="32.242561"
           width="31.673124"
           y="-247.80154"
           x="-45.770004" /><polygon
           style="fill:#1d1d1b"
           transform="matrix(9.0494639,0,0,8.7330885,-1369.4441,-2620.5117)"
           id="polygon33751"
           points="157.962,280.249 158.337,279.56 160.605,280.642 160.23,281.329 " /><polygon
           style="fill:#1d1d1b"
           transform="matrix(9.0494639,0,0,8.7330885,-1369.4441,-2620.5117)"
           id="polygon33753"
           points="161.443,281.905 161.818,281.214 164.087,282.295 163.712,282.981 " /><path
           style="fill:#ffd391"
           inkscape:connector-curvature="0"
           id="path33755"
           d="m 60.950366,-170.12933 -11.438522,17.54477 -7.827787,-4.15695 c -5.375382,-2.85572 -7.492956,-8.59336 -4.669523,-12.92497 l 6.361774,-9.74613 17.574058,9.28328 z" /><path
           style="fill:#ffd391"
           inkscape:connector-curvature="0"
           id="path33757"
           d="m 111.58212,-147.15258 -10.1354,17.42251 7.80064,3.68537 c 5.33013,2.52386 11.64666,1.06543 14.14431,-3.24871 l 5.62876,-9.61513 -17.43831,-8.24404 z" /></g></g></g></svg>