<?xml version="1.0" encoding="UTF-8" standalone="no"?>
<svg
   xmlns:dc="http://purl.org/dc/elements/1.1/"
   xmlns:cc="http://creativecommons.org/ns#"
   xmlns:rdf="http://www.w3.org/1999/02/22-rdf-syntax-ns#"
   xmlns:svg="http://www.w3.org/2000/svg"
   xmlns="http://www.w3.org/2000/svg"
   xml:space="preserve"
   enable-background="new 0 0 595.275 350"
   viewBox="0 0 313.59206 440.41156"
   height="440.41156"
   width="313.59207"
   y="0px"
   x="0px"
   id="Capa_1"
   version="1.1"><metadata
     id="metadata27862"><rdf:RDF><cc:Work
         rdf:about=""><dc:format>image/svg+xml</dc:format><dc:type
           rdf:resource="http://purl.org/dc/dcmitype/StillImage" /><dc:title></dc:title></cc:Work></rdf:RDF></metadata><defs
     id="defs27860" /><g
     transform="translate(-176.48587,101.49356)"
     id="g28409"><polygon
       points="185.631,282.174 188.11,282.174 187.424,275.604 185.631,278.604 "
       id="polygon27358"
       transform="matrix(6.5555659,0,0,5.8617072,-937.46208,-1647.7201)"
       style="clip-rule:evenodd;fill:#ffd391;fill-rule:evenodd" /><path
       style="fill:#364766"
       d="m 412.41366,-89.010927 -0.67404,6.056251 c -3.99889,0.463076 -7.8009,1.394108 -11.29502,2.777471 l -5.27231,-5.192291 -12.46203,9.625152 4.39323,4.196071 c -3.18601,3.247385 -5.60564,6.968809 -7.0872,11.05442 l -9.66992,0 -0.0524,14.015348 8.55524,0.123727 c 0.66211,3.769077 2.08595,7.310528 4.23618,10.563775 l -6.18848,5.580541 12.25699,9.51209 5.17416,-4.494724 c 3.02867,1.822991 6.37185,3.298824 10.01674,4.353931 l -0.64349,6.683423 16.66548,1.230875 0.78529,-6.342105 c 14.92704,-1.406809 27.24531,-9.918076 32.05053,-21.430469 l 8.05791,0.795696 1.16701,-14.149742 -7.34241,-0.590905 c -0.55723,-4.396281 -2.24243,-8.534304 -4.72043,-12.244764 l 5.72821,-4.996035 -12.74997,-9.347831 -4.32562,3.856888 c -3.13356,-1.864023 -6.70101,-3.340932 -10.47701,-4.366731 l 0.83328,-6.337839 -16.95997,-0.932223 z m 4.44559,21.191547 c 11.01991,0 19.98113,7.477916 19.98113,16.645626 0,9.197018 -8.96778,16.660558 -19.98113,16.660558 -11.02646,0 -19.95497,-7.46354 -19.95497,-16.660558 0,-9.16771 8.92851,-16.645626 19.95497,-16.645626 z"
       id="path27360" /><path
       d="m 315.62124,282.6163 0,-90.46959 c 0,-6.33065 3.91366,-8.58154 7.99778,-8.49947 l 0,0.0879 c 0.21634,-0.0411 0.43923,-0.0411 0.66211,-0.0879 0.22945,0.0469 0.42612,0.0469 0.65556,0.0879 l 0,-0.0879 c 4.13657,-0.082 8.05679,2.16882 8.05679,8.49947 l -0.0327,90.46959 30.39159,0 0,-124.53197 -38.40906,-6.6882 0,5.55103 -41.14929,-0.75616 0,126.43116 31.82728,0 z"
       id="path27364"
       style="clip-rule:evenodd;fill:#cc9348;fill-rule:evenodd" /><rect
       x="261.11163"
       y="2.9542282"
       width="115.77785"
       height="159.0457"
       id="rect27366"
       style="fill:#926a3a" /><rect
       x="291.20831"
       y="2.9542282"
       width="58.882092"
       height="49.402473"
       id="rect27368"
       style="fill:#790d23" /><rect
       x="176.48587"
       y="233.31352"
       width="89.286812"
       height="105.2704"
       id="rect27370"
       style="clip-rule:evenodd;fill:#1d1d1b;fill-rule:evenodd" /><path
       d="m 239.39967,117.22823 c 2.22233,-1.30716 5.05434,-2.09263 8.51568,-2.09263 2.10433,0 3.98578,0.31067 5.64434,0.83823 l 12.21302,-28.8865 -4.66101,-4.619025 0,-79.5140579 c 0,0 -103.49272,48.5232129 -21.71203,114.2739829"
       id="path27372"
       style="clip-rule:evenodd;fill:#790d23;fill-rule:evenodd" /><polygon
       points="194.876,297.331 196.659,294.117 199.775,295.167 199.067,296.737 197.54,296.233 196.616,297.822 "
       id="polygon27374"
       transform="matrix(6.5555659,0,0,5.8617072,-937.46208,-1647.7201)"
       style="clip-rule:evenodd;fill:#1d1d1b;fill-rule:evenodd" /><path
       d="m 238.96045,116.90584 59.43275,25.40463 7.57169,-17.32134 30.59482,8.52292 18.5457,-33.880665 c 0,0 -29.57872,-19.27915 -41.14929,1.647135 l -52.83787,-18.810215 -22.1578,34.437535 z"
       id="path27376"
       style="clip-rule:evenodd;fill:#cc9348;fill-rule:evenodd" /><path
       d="m 446.45066,-1.1841184 -1.357,-0.3692869 -15.71369,-4.1266427 8.52223,-30.281579 c 0,0 34.65928,-4.138366 27.10071,34.7775086 L 490.07795,9.6659015 480.06105,56.530252 434.39497,35.193637 446.45066,-1.1841184 Z"
       id="path27378"
       style="clip-rule:evenodd;fill:#cc9348;fill-rule:evenodd" /><path
       d="m 279.45418,-91.952656 c 0,0 15.09746,3.341173 29.18537,-7.813655 0,0 11.29524,-3.886309 26.74671,0 l 0,14.531172 -44.17795,2.807758 0,50.193799 -11.75413,17.57926 0,-77.298334 z"
       id="path27380"
       style="clip-rule:evenodd;fill:#e30613;fill-rule:evenodd" /><polygon
       points="187.426,281.605 187.426,266.062 195.386,266.062 195.386,275.698 195.386,281.605 "
       id="polygon27382"
       transform="matrix(6.5555659,0,0,5.8617072,-937.46208,-1647.7201)"
       style="clip-rule:evenodd;fill:#1d1d1b;fill-rule:evenodd" /><path
       d="m 343.40372,-36.096447 c 0,0 0,13.382278 12.73091,16.436227 l 0,22.6144671 -16.73636,0 4.00545,-39.0506941 z"
       id="path27384"
       style="clip-rule:evenodd;fill:#1d1d1b;fill-rule:evenodd" /><rect
       x="272.8396"
       y="-67.825783"
       width="29.113268"
       height="16.647249"
       id="rect27386"
       style="clip-rule:evenodd;fill:#1d1d1b;fill-rule:evenodd" /><rect
       x="301.95291"
       y="-64.015709"
       width="41.45084"
       height="12.837139"
       id="rect27388"
       style="clip-rule:evenodd;fill:#8c8b8b;fill-rule:evenodd" /><polygon
       points="190.918,310.539 194.342,303.876 191.914,303.12 189.13,309.781 "
       id="polygon27390"
       transform="matrix(6.5555659,0,0,5.8617072,-937.46208,-1647.7201)"
       style="clip-rule:evenodd;fill:#1d1d1b;fill-rule:evenodd" /><path
       d="m 372.85132,78.283043 -7.3619,18.546448 40.1004,8.663599 c 0,0 10.79702,-4.78902 5.40834,-13.821905 L 372.85132,78.283043 Z"
       id="path27392"
       style="clip-rule:evenodd;fill:#1d1d1b;fill-rule:evenodd" /><path
       d="m 217.62864,302.57541 c 0,-7.99537 7.77489,-14.50773 17.39191,-14.50773 9.63668,0 17.39192,6.51236 17.39192,14.50773 0,8.02468 -7.75524,14.53704 -17.39192,14.53704 -9.62357,0 -17.39191,-6.51236 -17.39191,-14.53704"
       id="path27394"
       style="fill:#8c8b8b" /><path
       d="m 221.1293,298.6891 c 0,0 -41.65406,-33.5231 7.84047,-65.82111 0,0 49.16674,-24.47262 76.6149,-63.56435 l 5.13301,1.94609 c 2.26822,0.89097 -12.00325,19.78326 -13.74047,22.16311 -10.13491,13.59916 -24.58337,24.54883 -40.5134,33.28863 -13.81258,7.54989 -29.61149,14.09155 -36.59973,27.32729 -7.46023,14.0212 -4.16278,27.83138 8.45669,39.16206 l -7.19147,5.49828 z"
       id="path27396"
       style="fill:#8c8b8b" /><path
       d="m 256.49659,253.81773 c 0,1.09028 -1.06856,1.9754 -2.36656,1.9754 l -24.05894,0 c -1.35044,0 -2.40588,-0.88512 -2.40588,-1.9754 0,-1.08441 1.05544,-2.03401 2.40588,-2.03401 l 24.05894,0 c 1.298,0 2.36656,0.9496 2.36656,2.03401"
       id="path27398"
       style="fill:#8c8b8b" /><path
       d="m 256.49659,261.24451 c 0,1.102 -1.06856,1.97541 -2.36656,1.97541 l -24.05894,0 c -1.35044,0 -2.40588,-0.87341 -2.40588,-1.97541 0,-1.10199 1.05544,-2.03401 2.40588,-2.03401 l 24.05894,0 c 1.298,0.005 2.36656,0.93202 2.36656,2.03401"
       id="path27400"
       style="fill:#8c8b8b" /><path
       d="m 256.49659,270.47084 c 0,1.09028 -1.06856,1.97539 -2.36656,1.97539 l -24.05894,0 c -1.35044,0 -2.40588,-0.88511 -2.40588,-1.97539 0,-1.11372 1.05544,-1.98711 2.40588,-1.98711 l 24.05894,0 c 1.298,0 2.36656,0.87339 2.36656,1.98711"
       id="path27402"
       style="fill:#8c8b8b" /><path
       d="m 256.49659,277.89763 c 0,1.08441 -1.06856,1.98712 -2.36656,1.98712 l -24.05894,0 c -1.35044,0 -2.40588,-0.90271 -2.40588,-1.98712 0,-1.09028 1.05544,-1.9754 2.40588,-1.9754 l 24.05894,0 c 1.298,0 2.36656,0.89098 2.36656,1.9754"
       id="path27404"
       style="fill:#8c8b8b" /><path
       d="m 415.37728,98.11906 c 0,4.10906 -3.93334,7.38576 -8.85657,7.38576 -4.85768,0 -8.85657,-3.2767 -8.85657,-7.38576 0,-4.050439 3.99889,-7.38575 8.85657,-7.38575 4.92323,0.0055 8.85657,3.335311 8.85657,7.38575"
       id="path27406"
       style="fill:#8c8b8b" /><path
       d="m 434.41464,35.199499 c -4.99533,1.811267 -10.47579,2.78431 -16.27092,2.78431 -22.72813,0 -41.18861,-15.381119 -41.18861,-34.3378802 0,-0.2051596 -0.0525,-0.6858198 -0.0525,-0.6858198 l -0.0722,67.386187 c 14.51403,8.71636 31.19139,16.752764 52.32653,14.877015 0.118,-0.02348 0.20978,-0.02348 0.30155,-0.03517 21.92182,-2.051596 38.71717,-11.676523 48.81275,-25.70945 1.21278,-1.811268 1.79623,-2.936715 1.79623,-2.936715 L 434.41456,35.199499 Z"
       id="path27408"
       style="clip-rule:evenodd;fill:#790d23;fill-rule:evenodd" /><path
       d="m 332.96071,338.53113 0,-63.75779 30.35883,0 0,49.22075 c 0,0 13.05213,0.18758 11.09201,14.53117 l -41.45084,0 z"
       id="path27410"
       style="clip-rule:evenodd;fill:#790d23;fill-rule:evenodd" /><path
       d="m 283.72185,338.918 0,-63.91019 31.87316,0 0,49.34384 c 0,0 13.67491,0.18173 11.62957,14.56635 l -43.50273,0 z"
       id="path27412"
       style="clip-rule:evenodd;fill:#790d23;fill-rule:evenodd" /></g></svg>